<svg width="43" height="43" viewBox="0 0 43 43" fill="none" xmlns="http://www.w3.org/2000/svg">
<path d="M7.09373 29.5531L17.1457 23.5219M25.1873 19.5011L35.2393 13.4699M21.1665 7.4387V17.4907M21.1665 25.5323V35.5843M7.09373 13.4699L17.1457 19.5011M25.1873 23.5219L35.2393 29.5531M38.2549 15.4803V26.5375M24.1821 38.5999L35.2393 32.5687M6.08853 32.5687L18.1509 38.5999M4.07812 27.5427V15.4803M6.08853 10.4543L18.1509 4.4231M36.2445 10.4543L24.1821 4.4231" stroke="white" stroke-width="2" stroke-linecap="round" stroke-linejoin="round"/>
<path d="M21.1655 7.43867C22.831 7.43867 24.1811 6.08854 24.1811 4.42307C24.1811 2.7576 22.831 1.40747 21.1655 1.40747C19.5 1.40747 18.1499 2.7576 18.1499 4.42307C18.1499 6.08854 19.5 7.43867 21.1655 7.43867Z" stroke="white" stroke-width="2" stroke-linecap="round" stroke-linejoin="round"/>
<path d="M21.1655 41.6157C22.831 41.6157 24.1811 40.2655 24.1811 38.6001C24.1811 36.9346 22.831 35.5845 21.1655 35.5845C19.5 35.5845 18.1499 36.9346 18.1499 38.6001C18.1499 40.2655 19.5 41.6157 21.1655 41.6157Z" stroke="white" stroke-width="2" stroke-linecap="round" stroke-linejoin="round"/>
<path d="M4.07761 15.4802C5.74308 15.4802 7.09321 14.13 7.09321 12.4646C7.09321 10.7991 5.74308 9.44897 4.07761 9.44897C2.41214 9.44897 1.06201 10.7991 1.06201 12.4646C1.06201 14.13 2.41214 15.4802 4.07761 15.4802Z" stroke="white" stroke-width="2" stroke-linecap="round" stroke-linejoin="round"/>
<path d="M38.2544 15.4802C39.9198 15.4802 41.27 14.13 41.27 12.4646C41.27 10.7991 39.9198 9.44897 38.2544 9.44897C36.5889 9.44897 35.2388 10.7991 35.2388 12.4646C35.2388 14.13 36.5889 15.4802 38.2544 15.4802Z" stroke="white" stroke-width="2" stroke-linecap="round" stroke-linejoin="round"/>
<path d="M38.2544 33.5737C39.9198 33.5737 41.27 32.2236 41.27 30.5581C41.27 28.8926 39.9198 27.5425 38.2544 27.5425C36.5889 27.5425 35.2388 28.8926 35.2388 30.5581C35.2388 32.2236 36.5889 33.5737 38.2544 33.5737Z" stroke="white" stroke-width="2" stroke-linecap="round" stroke-linejoin="round"/>
<path d="M4.07761 33.5737C5.74308 33.5737 7.09321 32.2236 7.09321 30.5581C7.09321 28.8926 5.74308 27.5425 4.07761 27.5425C2.41214 27.5425 1.06201 28.8926 1.06201 30.5581C1.06201 32.2236 2.41214 33.5737 4.07761 33.5737Z" stroke="white" stroke-width="2" stroke-linecap="round" stroke-linejoin="round"/>
<path d="M21.1663 16.988L25.1871 19.2497V23.7731L21.1663 26.0348L17.1455 23.7731V19.2497L21.1663 16.988Z" stroke="white" stroke-width="2" stroke-linecap="round" stroke-linejoin="round"/>
</svg>
