<svg width="1920" height="1078" viewBox="0 0 1920 1078" fill="none" xmlns="http://www.w3.org/2000/svg">
<g clip-path="url(#clip0_60_372)">
<path d="M1376.38 577.939C1376.38 577.939 1382.9 578.682 1385.68 578.602C1419.08 577.642 1452.49 576.681 1485.86 574.792C1487.72 574.739 1489.57 574.685 1491.43 574.632C1532.25 573.458 1573.07 572.285 1613.9 571.111C1615.75 571.058 1617.61 571.005 1619.46 570.951C1624.1 570.818 1629.67 570.658 1632.61 576.153C1634.6 580.745 1631 584.568 1628.32 588.365C1605.03 617.862 1579.85 646.483 1556.58 676.91C1553 681.662 1548.39 682.725 1543.75 682.858C1511.28 683.791 1477.93 686.61 1445.48 688.473C1402.81 689.7 1360.18 692.785 1317.5 694.012C1306.37 694.332 1298.12 698.288 1291.92 708.696C1230.68 807.168 1169.44 905.639 1112.95 1007.69C1093.52 1042.66 1074.13 1078.55 1060.35 1116.15C1056.85 1123.69 1054.31 1132.13 1053.62 1140.52C1052.11 1152.65 1056.86 1156.23 1067.89 1152.2C1076.16 1149.17 1083.45 1144.31 1089.81 1139.48C1108.92 1125.91 1125.16 1109.63 1142.31 1092.4C1208.17 1025.42 1267.35 952.11 1325.57 877.903C1357.8 836.06 1394.77 797.801 1440.44 771.38C1470.58 753.775 1502.76 742.621 1537.99 740.679C1560.25 740.038 1582.63 743.115 1603.33 752.749C1644.74 772.016 1657.11 814.437 1652.58 850.834C1647.26 891.903 1629.69 926.815 1603.67 958.251C1549.82 1023.03 1479.31 1057.61 1394.96 1062.82C1394.96 1062.82 1394.03 1062.85 1393.1 1062.87C1366.2 1063.65 1363.52 1067.45 1362.47 1095.37C1361.55 1127.95 1379.76 1147.88 1412.37 1151.59C1443.12 1155.36 1470.74 1147.13 1497.27 1133.34C1530.22 1116.59 1559.3 1094.36 1585.53 1070.36C1622.64 1036.75 1656.91 1001.36 1687.33 961.425C1692.71 954.761 1697.16 948.124 1701.59 940.557C1727.27 897.043 1756.79 858.067 1793.87 823.524C1828.24 791.849 1866.49 765.642 1911.61 752.256C1936.47 745.032 1961.41 740.595 1988.45 744.467C2020.16 749.135 2036.36 763.548 2043.73 794.023C2043.81 796.811 2043.87 798.669 2044.82 799.572C2052.99 792.828 2061.18 787.013 2068.38 779.366C2080.13 767.87 2092.98 762.85 2108.75 762.397C2128.24 761.837 2147.72 761.277 2166.47 767.247C2170.2 768.07 2173.01 768.919 2176.78 770.671C2191.78 775.819 2192.82 779.509 2182.96 791.881C2134.59 853.716 2093.81 920.912 2060.56 991.612C2044.77 1023.68 2031.78 1056.6 2024.42 1091.22C2021.96 1102.45 2022.28 1113.6 2022.63 1125.68C2023.13 1143.33 2040.31 1159.58 2062.23 1146.86C2082.33 1135.12 2098.57 1118.85 2112.94 1101.7C2173.15 1032.08 2225.75 956.176 2273.61 876.687C2328.54 784.906 2384.46 694.956 2442.23 604.954C2477.77 549.067 2515.16 493.127 2550.67 436.311C2558.67 423.992 2566.81 416.319 2582.61 416.795C2599.31 416.315 2616.01 415.834 2633.64 415.328C2647.55 414.928 2661.47 414.528 2675.39 414.127C2680.03 413.994 2684.66 413.861 2688.38 413.754C2696.78 415.372 2698.77 419.965 2695.3 428.434C2694.45 431.248 2692.65 433.16 2690.87 436C2626.05 539.225 2561.24 642.449 2498.33 747.478C2433.64 855.348 2368.93 962.289 2312.73 1074.56C2302.21 1096.26 2291.69 1117.95 2285.84 1140.43C2284.17 1146.99 2280.67 1154.53 2286.4 1159.94C2293.08 1166.26 2301.35 1163.23 2308.72 1161.16C2318.84 1158.08 2328.89 1152.21 2338.01 1146.37C2363.53 1129.83 2387.15 1111.48 2410.71 1091.28C2476.81 1032.65 2538.14 969.514 2597.56 904.571C2621.86 877.835 2645.23 851.125 2669.56 825.318C2684.86 808.14 2695.4 787.379 2707.86 768.422C2720.31 749.466 2732.74 729.58 2744.27 710.651C2742.25 705.129 2737.67 707.121 2734.88 707.201C2703.39 709.966 2672.72 708.988 2641.2 710.824C2635.63 710.984 2629.14 711.17 2623.57 711.331C2608.65 708.97 2601.75 695.219 2608.8 681.998C2619.35 661.236 2631.78 641.351 2643.28 621.492C2648.6 612.97 2656.9 610.871 2666.18 610.605C2708.86 609.378 2750.58 607.248 2793.34 608.809C2807.26 608.409 2815.5 604.452 2823.5 592.133C2862.62 531.494 2903.61 471.731 2942.76 412.021C2948.98 402.543 2957.2 397.657 2969.29 398.239C3001.81 399.164 3034.31 399.16 3065.94 401.04C3078.98 402.525 3081.9 407.091 3074.8 418.454C3062.4 439.269 3049.99 460.083 3036.66 480.925C3014.48 516.899 2991.38 552.9 2969.2 588.875C2966.52 592.671 2963.84 596.468 2963.98 601.114C2966.89 605.679 2972.41 603.661 2976.12 603.554C3004.88 602.728 3033.64 601.901 3062.4 601.074C3067.04 600.941 3071.68 600.807 3075.39 600.701C3088.44 602.185 3093.34 611.344 3087.2 623.609C3081.92 633.99 3074.79 644.424 3068.59 654.831C3062.39 665.239 3056.16 674.717 3049.96 685.124C3045.56 693.62 3038.22 696.621 3028.94 696.887C3002.04 697.661 2975.13 698.434 2948.23 699.208C2934.31 699.608 2920.42 700.937 2906.47 700.408C2898.12 700.648 2893.62 705.427 2890.07 711.109C2874.11 737.605 2857.23 764.128 2841.31 791.553C2789.9 876.724 2738.46 960.965 2693.66 1049.67C2679.56 1076.11 2666.39 1102.52 2657.01 1131.62C2654.44 1139.13 2651.85 1145.72 2652.06 1153.15C2652.35 1163.37 2656.15 1166.05 2665.34 1163C2677.27 1158.01 2688.22 1151.18 2699.14 1143.43C2722.75 1125.08 2745.41 1105.83 2767.09 1084.75C2842.13 1013.78 2913.31 938.27 2983.54 861.858C2996.16 848.476 3003.13 832.467 3011.95 816.405C3075.6 704.845 3140.18 593.259 3203.83 481.699C3228.58 438.211 3254.26 394.697 3273.33 347.652C3277.68 337.298 3284.97 332.439 3296.07 331.19C3327.57 328.425 3358.18 327.545 3389.89 332.213C3392.67 332.133 3395.48 332.982 3398.29 333.831C3411.42 338.103 3415.34 345.43 3412.93 358.518C3411.26 365.075 3407.74 371.686 3405.12 377.341C3364.71 457.546 3319.58 535.096 3274.45 612.647C3219.6 707.215 3164.75 801.784 3109.87 895.423C3108.99 897.308 3107.22 900.149 3104.57 904.874C3111.88 900.945 3114.53 896.219 3118.14 892.396C3153.17 851.402 3191.07 813.116 3236.66 783.908C3258.53 769.33 3282.36 758.416 3309.1 752.068C3322.01 748.907 3335.9 747.578 3348.94 749.063C3375 751.103 3394.86 763.551 3406.69 787.389C3416.58 808.493 3418.15 830.766 3411.37 853.279C3403.69 876.747 3393.19 899.367 3380.82 921.111C3359.62 958.917 3338.42 996.723 3317.22 1034.53C3306.62 1053.43 3296.02 1072.34 3289.16 1092.06C3286.57 1098.64 3282.17 1107.14 3288.85 1113.46C3295.53 1119.77 3303.77 1115.82 3311.12 1112.82C3334.95 1101.9 3354.9 1085.52 3374.83 1068.21C3429.19 1021.08 3479.68 968.484 3527.36 915.038C3539.95 900.728 3552.54 886.417 3566.08 873.009C3590.44 848.131 3606.28 817.918 3624.01 788.581C3628.44 781.014 3632.86 773.448 3637.26 764.952C3642.59 756.43 3650.8 751.544 3661.01 751.251C3680.49 750.69 3699.98 750.13 3718.67 754.243C3722.38 754.136 3725.21 755.914 3728.95 756.737C3750.51 763.556 3757.37 776.378 3752.42 797.908C3747.47 819.439 3736.92 840.2 3726.35 860.032C3696.43 917.617 3660.84 971.645 3629.05 1028.35C3617.57 1049.14 3607.03 1069.9 3596.48 1090.67C3591.21 1101.05 3586.86 1111.4 3586.28 1123.51C3585.7 1135.61 3589.55 1140.15 3601.61 1139.8C3612.74 1139.48 3621.91 1135.5 3631.03 1129.66C3653.88 1116.91 3673.78 1098.67 3691.8 1079.56C3723.37 1047.03 3751.12 1010.9 3777.93 974.789C3805.63 936.796 3831.44 897.927 3855.34 857.254C3873.92 825.103 3894.38 793.827 3919.55 765.206C3926.74 756.63 3934.9 749.886 3943.06 743.142C3965.78 725.751 3989.9 725.057 4015.27 735.487C4032.18 742.44 4045.55 755.075 4056.18 769.648C4062.92 777.823 4062.12 782.496 4054.97 792C4037.11 816.692 4020.22 843.215 4003.32 868.809C3965.13 929.421 3928.85 991.838 3895.36 1054.18C3857.44 1124.08 3821.4 1194.86 3788.15 1265.56C3780.28 1282.52 3780.31 1283.45 3799.79 1282.89C3856.34 1279.41 3911.95 1275.95 3968.52 1273.39C4007.46 1271.34 4046.4 1269.29 4084.42 1267.27C4128 1265.09 4171.55 1261.98 4215.13 1259.79C4255 1257.72 4295.8 1255.62 4335.66 1253.54C4350.51 1253.11 4365.35 1252.69 4380.17 1251.33C4383.88 1251.22 4388.52 1251.09 4392.23 1250.98C4404.35 1252.49 4409.23 1260.72 4404.91 1272.01C4404.06 1274.82 4402.29 1277.66 4400.48 1279.57C4385.43 1305.11 4369.43 1329.75 4354.37 1355.29C4348.2 1366.63 4339.96 1370.59 4326.97 1370.96C4265.73 1372.72 4203.57 1374.51 4142.33 1376.27C4083.88 1377.95 4025.43 1379.63 3966.05 1381.33C3906.67 1383.04 3846.36 1384.77 3786.98 1386.48C3773.07 1386.88 3759.18 1388.21 3745.23 1387.68C3735.03 1387.98 3730.5 1391.83 3726.12 1401.25C3706.12 1448.32 3687.04 1495.37 3668.89 1542.38C3644.76 1607.24 3622.51 1672.97 3604.92 1739.5C3599.94 1760.11 3588.12 1768.81 3566.7 1766.64C3536.9 1763.78 3510.58 1752.45 3488.6 1730.76C3477.11 1719 3473.03 1706.1 3476.29 1690.2C3481.11 1664.02 3485.92 1637.84 3489.84 1612.62C3496.88 1566.86 3501.17 1522.1 3500.76 1475.61C3500.15 1454.24 3498.6 1432.9 3494.28 1411.63C3492 1396.82 3490.09 1395.02 3474.31 1395.47C3417.72 1397.1 3362.05 1398.7 3305.45 1400.32C3295.25 1400.62 3284.11 1400.94 3273.91 1401.23C3261.85 1401.58 3254.29 1397.15 3246.63 1389C3229.31 1368.11 3219.37 1345.14 3214.91 1319.24C3213.79 1312.76 3212.68 1306.28 3212.49 1299.78C3211.14 1284.94 3217.34 1274.53 3231.09 1268.55C3248.51 1260.61 3266.96 1256.36 3285.46 1253.97C3341.87 1245.84 3396.85 1252.63 3448.6 1276.25C3458.94 1280.6 3469.31 1285.88 3478.8 1293.05C3483.54 1296.63 3489.16 1298.33 3495.66 1298.15C3542.95 1295.86 3591.17 1293.54 3638.49 1292.18C3646.84 1291.94 3652.38 1290.85 3655.85 1282.38C3675.83 1234.38 3695.8 1186.38 3714.85 1138.41C3714.8 1136.55 3716.6 1134.64 3714.69 1132.83C3710.11 1134.82 3708.36 1138.59 3705.65 1141.46C3681.35 1168.2 3655.17 1194.06 3626.06 1215.35C3622.43 1218.25 3618.78 1220.21 3615.14 1223.11C3570.59 1256 3524.04 1251.76 3477.83 1227.05C3444.82 1209.4 3430.87 1176.33 3439.11 1139.83C3443.19 1120.18 3451.98 1103.19 3458.9 1085.32C3460.65 1081.55 3463.35 1078.68 3462.26 1073.14C3451.45 1084.61 3441.54 1095.12 3431.65 1106.56C3401.97 1139.96 3368.44 1168.82 3332.05 1194.98C3306.58 1213.38 3280.05 1227.16 3249.67 1236.4C3231.25 1241.58 3211.82 1244 3192.25 1241.77C3154.95 1236.34 3132.1 1216.53 3134.37 1166.25C3136.27 1135.51 3145.65 1106.42 3155.98 1078.22C3174.97 1028.39 3199.59 980.256 3224.21 932.122C3236.53 908.52 3248.82 883.989 3258.34 859.538C3260.06 854.839 3264.54 849.13 3259.74 843.689C3254.01 838.274 3248.6 844.009 3243.09 846.027C3230.23 851.046 3220.3 860.631 3210.36 870.216C3182.32 896.13 3159.97 926.53 3137.66 957.858C3083.23 1034.75 3036.33 1115.14 2991.33 1197.33C2985.16 1208.67 2978.96 1219.08 2973.71 1230.39C2970.21 1237.93 2964.73 1240.87 2956.32 1239.26C2939.54 1236.95 2923.66 1233.69 2908.6 1226.68C2863.43 1205.66 2849.92 1155.83 2860.02 1119.28C2866.74 1094.9 2877.21 1071.36 2887.7 1048.74C2889.42 1044.04 2892.1 1040.24 2891.91 1033.74C2885.63 1041.36 2878.42 1049 2872.14 1056.62C2824.49 1111 2774.96 1164.5 2716.81 1208.95C2696.82 1224.4 2674.93 1238.05 2651.05 1247.1C2606.04 1264.2 2561.98 1249.66 2537.58 1208.52C2517.05 1172.84 2508.56 1135.89 2525.04 1095.43C2528.54 1087.89 2531.08 1079.45 2534.53 1070.05C2527.13 1071.19 2524.48 1075.92 2520.88 1079.74C2491.09 1109.42 2461.33 1140.04 2429.63 1167.92C2403.33 1190.06 2376.09 1211.3 2346.88 1228.88C2333.18 1236.71 2318.52 1243.64 2303.83 1249.64C2241.44 1275.62 2162.3 1236.05 2147.2 1163.02C2147.07 1158.37 2146.91 1152.8 2142.13 1148.28C2131.29 1158.82 2119.53 1169.39 2108.69 1179.93C2089.71 1198.15 2068.82 1214.55 2045.02 1226.4C2022.15 1238.21 1998.21 1245.41 1972.07 1240.58C1939.38 1234.08 1917.51 1216.11 1908.23 1183.83C1905.18 1174.62 1903.95 1164.43 1901.8 1154.26C1897.14 1153.47 1896.32 1157.21 1894.54 1160.05C1872.94 1183.92 1849.41 1205.05 1821.07 1220.75C1787.28 1240.32 1751.33 1249.72 1712.1 1241.55C1677.53 1234.17 1655.6 1214.34 1646.26 1180.21C1640.06 1158.07 1639.39 1134.84 1641.53 1112.46C1641.4 1107.81 1644.07 1104.02 1641.1 1097.59C1634.82 1105.21 1628.51 1111.9 1622.21 1118.59C1585.34 1160.57 1543.65 1196.17 1494.27 1222.7C1454.96 1244.29 1413.51 1255.71 1367.96 1254.23C1345.67 1253.94 1324.2 1249.91 1303.52 1241.2C1270.64 1228.2 1249.54 1204.63 1240.2 1170.49C1232.96 1144.66 1232.21 1118.65 1235.14 1091.59C1235.06 1088.81 1237.77 1085.94 1234.88 1082.3C1218.71 1101.37 1203.45 1119.47 1187.25 1137.61C1156.67 1171.96 1125.13 1205.42 1088.79 1233.43C1076.97 1242.14 1065.12 1249.92 1052.32 1256.8C1015.77 1277.37 964.233 1261.19 942.967 1232.04C918.784 1198.33 906.581 1161.48 920.224 1119.25C928.755 1092.96 940.121 1068.46 951.488 1043.95C997.117 951.51 1050.33 864.428 1104.44 776.39C1116.84 755.575 1130.17 734.734 1143.5 713.892C1145.28 711.052 1147.98 708.184 1147.87 704.468C1132.1 704.921 1117.17 702.56 1101.46 704.872C1075.53 707.477 1049.53 707.295 1023.55 708.042C983.651 709.189 942.881 712.22 902.931 711.509C886.231 711.989 872.154 706.814 861.601 695.029C834.794 666.972 818.033 633.047 809.542 596.094C806.411 584.095 808.901 573.795 816.029 563.361C835.56 532.112 857.026 503.597 878.465 474.154C933.879 399.097 991.175 324.917 1043.73 247.153C1051.76 235.763 1059.79 224.373 1064.95 210.276C1058.4 208.604 1053.82 210.596 1048.3 212.614C997.675 228.019 949.036 248.015 900.423 268.941C782.973 317.883 667.511 371.418 554.039 429.545C524.75 444.336 496.442 460.958 467.18 476.678C462.621 479.599 458.062 482.52 453.503 485.44C448.944 488.361 448.123 492.104 451.04 496.67C454.938 503.068 459.764 509.438 463.636 514.906C511.976 581.401 562.118 645.983 612.287 711.495C684.651 806.126 758.817 898.846 825.747 998.282C837.388 1015.62 848.101 1032.98 857.887 1050.36C868.627 1068.65 871.945 1087.16 866.965 1107.76C855.285 1153.66 831.276 1190.62 794.992 1220.49C785.927 1228.19 773.946 1231.32 761.884 1231.67C700.622 1232.5 639.334 1232.4 578.098 1234.16C505.73 1236.24 434.288 1238.3 361.866 1238.52C294.136 1240.46 225.452 1241.51 157.722 1243.46C113.187 1244.74 68.599 1244.16 23.1631 1246.39C11.1017 1246.74 8.2381 1244.03 11.6555 1233.71C24.4508 1194.28 36.2915 1153.96 52.8247 1115.35C58.0176 1102.19 65.3065 1097.33 80.1781 1097.83C124.766 1098.41 168.32 1095.29 212.854 1094.01C256.461 1092.76 299.194 1093.39 342.801 1092.14C389.191 1090.81 435.635 1091.33 482.025 1090C547.9 1088.1 614.702 1086.18 680.603 1085.22C687.097 1085.03 693.592 1084.84 700.06 1083.73C707.456 1082.59 708.33 1080.7 703.504 1074.33C692.871 1059.76 681.336 1046.14 670.703 1031.57C559.812 888.758 448.019 746.905 341.687 601.175C332.989 589.336 325.193 576.541 315.568 564.729C301.116 546.546 295.916 527.167 298.059 504.788C299.987 474.975 306.582 445.958 318.77 417.71C325.711 400.772 338.354 388.32 354.814 379.477C422.483 343.125 491.134 308.604 559.838 275.942C689.904 213.618 820.05 154.082 956.056 104.606C996.479 89.4953 1036.96 76.2428 1078.49 67.6094C1080.35 67.5561 1082.2 67.5027 1084.03 66.5202C1102.51 63.1993 1118.42 67.3916 1132.73 80.9288C1162.32 108.906 1188.28 139.776 1203.32 178.401C1216.32 210.574 1213.43 239.484 1192.92 268.901C1119.75 372.366 1046.56 474.901 973.39 578.365C972.515 580.25 970.686 581.233 969.812 583.118C965.36 589.755 966.368 592.516 974.718 592.276C994.202 591.716 1013.69 591.156 1033.17 590.596C1037.81 590.462 1042.45 590.329 1046.16 590.222C1086.98 589.049 1127.81 587.875 1168.63 586.701C1183.47 586.275 1198.29 584.919 1213.16 585.421C1224.3 585.101 1231.64 582.1 1237.87 572.622C1272.56 519.549 1308.17 466.45 1343.79 413.351C1349.12 404.829 1355.4 397.209 1360.72 388.686C1365.18 382.049 1371.56 378.146 1380.81 376.95C1404.88 374.398 1429.94 373.678 1454.11 374.843C1460.61 374.656 1468.08 376.301 1474.63 377.973C1487.73 381.316 1490.72 388.669 1485.48 399.979C1480.23 411.289 1474.06 422.625 1467.86 433.032C1442.18 476.547 1414.64 520.114 1388.01 562.726C1385.36 567.452 1381.76 571.275 1380.12 578.762M1779.01 1114.09C1779.01 1114.09 1779.25 1122.45 1779.35 1126.16C1782.7 1145.6 1797.78 1153.53 1816.13 1145.57C1826.22 1141.56 1834.39 1134.81 1841.6 1127.16C1881.3 1086.97 1909.63 1038.73 1934.19 988.735C1945.61 966.089 1954.22 942.594 1966.57 919.921C1975.39 903.858 1981.41 886.947 1986.49 870.062C1989.03 861.62 1990.62 852.275 1991.31 843.886C1990.91 829.949 1985.18 824.534 1971.32 826.792C1962.97 827.033 1954.75 831.918 1947.44 835.848C1931 845.62 1915.58 858.152 1902.99 872.463C1854.38 925.936 1817.15 987.45 1792.17 1055.12C1785.28 1073.92 1780.25 1092.66 1779.01 1114.09ZM1398.52 992.975C1457.53 978.26 1502.14 947.221 1530.28 892.476C1532.9 886.822 1534.57 880.264 1535.31 873.734C1534.94 860.725 1528.26 854.408 1515.37 858.498C1504.32 861.606 1496.16 868.35 1488.02 876.023C1468.11 894.264 1450.09 913.38 1434.01 935.231C1420.6 953.284 1408.12 971.312 1399.45 992.949M3566.3 1526.73C3566.3 1526.73 3568.98 1522.94 3569.83 1520.12C3578.36 1493.84 3585.96 1467.58 3595.44 1442.2C3599.71 1429.06 3604.93 1416.82 3609.22 1404.61C3612.66 1395.21 3610.75 1393.41 3601.5 1394.6C3589.47 1395.88 3576.45 1395.32 3564.39 1395.67C3553.26 1395.99 3553.28 1396.92 3555.43 1407.09C3566.76 1445.82 3569.77 1485.72 3566.3 1526.73ZM3401.08 1302.72C3377.64 1295.03 3354.31 1291.05 3330.24 1293.6C3324.68 1293.76 3315.4 1294.03 3315.58 1300.53C3315.77 1307.04 3325.02 1305.84 3330.59 1305.68C3353.76 1304.08 3376.98 1304.35 3400.15 1302.75" fill="black" fill-opacity="0.05"/>
</g>
<defs>
<clipPath id="clip0_60_372">
<rect width="1920" height="1077" fill="white" transform="translate(0 0.215332)"/>
</clipPath>
</defs>
</svg>
