<svg width="25" height="31" viewBox="0 0 25 31" fill="none" xmlns="http://www.w3.org/2000/svg">
<path d="M11.8909 30.6936V23.6757C11.1363 24.8529 9.62708 26.3018 6.65392 27.3884C6.65392 27.3884 7.40853 24.8077 9.53652 23.0721C7.57454 23.4946 4.61648 23.4343 0.571777 21.6383C0.571777 21.6383 4.29954 19.5103 8.54044 20.0838C6.14079 18.6199 3.13745 15.7222 0.828344 9.73059C0.828344 9.73059 7.61982 11.5869 11.0005 17.3219C7.93675 9.92679 12.6455 0.509277 12.6455 0.509277C16.3129 8.76469 15.5281 14.2431 14.3358 17.2616C17.7316 11.5718 24.4627 9.73059 24.4627 9.73059C22.1536 15.7222 19.1502 18.6199 16.7506 20.0838C20.9915 19.5103 24.7192 21.6383 24.7192 21.6383C20.6745 23.4343 17.7165 23.4946 15.7545 23.0721C17.8825 24.8077 18.6371 27.3884 18.6371 27.3884C15.6639 26.3018 14.1547 24.8529 13.4001 23.6757V30.6936H11.8909Z" fill="white"/>
</svg>
