<svg width="1950" height="1082" viewBox="0 0 1950 1082" fill="none" xmlns="http://www.w3.org/2000/svg">
<g clip-path="url(#clip0_60_376)">
<path d="M707.614 781.28C707.614 781.28 714.136 782.022 716.919 781.942C750.32 780.982 783.721 780.022 817.095 778.132C818.951 778.079 820.807 778.026 822.662 777.972C863.486 776.799 904.309 775.625 945.133 774.452C946.988 774.398 948.844 774.345 950.7 774.292C955.339 774.158 960.906 773.998 963.849 779.493C965.838 784.085 962.234 787.909 959.557 791.705C936.262 821.202 911.085 849.824 887.817 880.25C884.239 885.002 879.627 886.065 874.988 886.198C842.515 887.132 809.167 889.95 776.721 891.813C734.041 893.04 691.416 896.125 648.737 897.352C637.603 897.672 629.359 901.629 623.159 912.036C561.918 1010.51 500.677 1108.98 444.182 1211.03C424.759 1246 405.362 1281.89 391.586 1319.49C388.088 1327.03 385.545 1335.47 384.858 1343.86C383.349 1355.99 388.095 1359.57 399.122 1355.54C407.392 1352.51 414.681 1347.65 421.042 1342.82C440.152 1329.25 456.399 1312.97 473.546 1295.74C539.406 1228.76 598.585 1155.45 656.809 1081.24C689.035 1039.4 726.006 1001.14 771.675 974.721C801.812 957.116 833.992 945.962 869.222 944.019C891.489 943.379 913.863 946.455 934.569 956.089C975.98 975.357 988.342 1017.78 983.817 1054.17C978.498 1095.24 960.93 1130.16 934.905 1161.59C881.053 1226.37 810.547 1260.95 726.196 1266.16C726.196 1266.16 725.269 1266.19 724.341 1266.22C697.434 1266.99 694.758 1270.79 693.703 1298.71C692.783 1331.29 710.999 1351.22 743.606 1354.93C774.357 1358.7 801.977 1350.47 828.509 1336.68C861.456 1319.93 890.532 1297.7 916.771 1273.7C953.876 1240.09 988.144 1204.7 1018.57 1164.77C1023.95 1158.1 1028.4 1151.46 1032.83 1143.9C1058.5 1100.38 1088.03 1061.41 1125.1 1026.86C1159.48 995.189 1197.73 968.982 1242.84 955.596C1267.7 948.372 1292.65 943.935 1319.69 947.808C1351.39 952.476 1367.59 966.889 1374.97 997.364C1375.05 1000.15 1375.1 1002.01 1376.06 1002.91C1384.22 996.168 1392.41 990.353 1399.62 982.706C1411.36 971.21 1424.22 966.191 1439.99 965.737C1459.47 965.177 1478.96 964.617 1497.7 970.588C1501.44 971.41 1504.25 972.259 1508.01 974.011C1523.02 979.159 1524.05 982.849 1514.19 995.221C1465.83 1057.06 1425.05 1124.25 1391.79 1194.95C1376 1227.02 1363.02 1259.94 1355.66 1294.56C1353.19 1305.79 1353.51 1316.94 1353.86 1329.02C1354.37 1346.67 1371.55 1362.92 1393.47 1350.2C1413.56 1338.46 1429.81 1322.19 1444.17 1305.04C1504.39 1235.42 1556.99 1159.52 1604.85 1080.03C1659.78 988.246 1715.69 898.297 1773.46 808.294C1809 752.407 1846.39 696.467 1881.9 639.652C1889.91 627.333 1898.04 619.659 1913.84 620.135C1930.54 619.655 1947.24 619.175 1964.87 618.668C1978.79 618.268 1992.71 617.868 2006.62 617.468C2011.26 617.334 2015.9 617.201 2019.61 617.094C2028.02 618.713 2030 623.305 2026.53 631.774C2025.69 634.588 2023.88 636.5 2022.11 639.341C1957.29 742.565 1892.47 845.789 1829.56 950.818C1764.88 1058.69 1700.17 1165.63 1643.96 1277.9C1633.45 1299.6 1622.93 1321.29 1617.07 1343.77C1615.4 1350.33 1611.91 1357.87 1617.63 1363.28C1624.31 1369.6 1632.58 1366.57 1639.95 1364.5C1650.08 1361.42 1660.13 1355.55 1669.24 1349.71C1694.77 1333.17 1718.38 1314.82 1741.95 1294.62C1808.05 1235.99 1869.37 1172.85 1928.79 1107.91C1953.1 1081.18 1976.47 1054.47 2000.8 1028.66C2016.09 1011.48 2026.64 990.719 2039.09 971.763C2051.55 952.806 2063.98 932.921 2075.5 913.991C2073.49 908.469 2068.9 910.461 2066.12 910.541C2034.63 913.306 2003.96 912.328 1972.44 914.164C1966.87 914.324 1960.38 914.511 1954.81 914.671C1939.88 912.31 1932.99 898.56 1940.04 885.338C1950.58 864.577 1963.01 844.691 1974.51 824.832C1979.84 816.31 1988.14 814.212 1997.41 813.945C2040.09 812.718 2081.82 810.589 2124.58 812.149C2138.49 811.749 2146.74 807.792 2154.74 795.473C2193.85 734.834 2234.85 675.071 2273.99 615.361C2280.22 605.883 2288.44 600.997 2300.52 601.58C2333.05 602.504 2365.55 602.5 2397.18 604.381C2410.22 605.865 2413.14 610.431 2406.03 621.794C2393.63 642.609 2381.23 663.424 2367.9 684.265C2345.72 720.24 2322.61 756.241 2300.43 792.215C2297.76 796.012 2295.08 799.808 2295.21 804.454C2298.13 809.02 2303.64 807.001 2307.35 806.895C2336.12 806.068 2364.88 805.241 2393.64 804.414C2398.28 804.281 2402.92 804.148 2406.63 804.041C2419.67 805.526 2424.58 814.684 2418.43 826.95C2413.16 837.33 2406.03 847.764 2399.83 858.172C2393.63 868.579 2387.4 878.057 2381.2 888.464C2376.8 896.96 2369.46 899.961 2360.18 900.228C2333.27 901.001 2306.37 901.775 2279.46 902.548C2265.54 902.948 2251.65 904.277 2237.71 903.748C2229.36 903.988 2224.85 908.767 2221.3 914.449C2205.35 940.945 2188.47 967.468 2172.54 994.894C2121.14 1080.06 2069.7 1164.31 2024.89 1253.01C2010.8 1279.45 1997.63 1305.86 1988.25 1334.96C1985.68 1342.47 1983.08 1349.06 1983.3 1356.49C1983.59 1366.71 1987.38 1369.39 1996.58 1366.34C2008.51 1361.35 2019.45 1354.52 2030.37 1346.77C2053.99 1328.42 2076.65 1309.17 2098.33 1288.09C2173.36 1217.12 2244.55 1141.61 2314.78 1065.2C2327.4 1051.82 2334.36 1035.81 2343.19 1019.75C2406.84 908.186 2471.42 796.599 2535.07 685.039C2559.82 641.551 2585.49 598.037 2604.57 550.993C2608.92 540.639 2616.2 535.78 2627.31 534.53C2658.8 531.765 2689.42 530.885 2721.13 535.553C2723.91 535.473 2726.72 536.322 2729.53 537.171C2742.65 541.444 2746.58 548.77 2744.17 561.858C2742.5 568.416 2738.98 575.026 2736.35 580.681C2695.94 660.886 2650.82 738.436 2605.69 815.987C2550.83 910.555 2495.98 1005.12 2441.1 1098.76C2440.23 1100.65 2438.45 1103.49 2435.8 1108.21C2443.12 1104.28 2445.77 1099.56 2449.37 1095.74C2484.41 1054.74 2522.31 1016.46 2567.9 987.248C2589.76 972.671 2613.59 961.756 2640.34 955.408C2653.25 952.247 2667.14 950.918 2680.18 952.403C2706.24 954.444 2726.1 966.891 2737.93 990.729C2747.82 1011.83 2749.39 1034.11 2742.61 1056.62C2734.92 1080.09 2724.43 1102.71 2712.06 1124.45C2690.86 1162.26 2669.66 1200.06 2648.46 1237.87C2637.86 1256.77 2627.26 1275.68 2620.4 1295.4C2617.8 1301.99 2613.4 1310.48 2620.08 1316.8C2626.77 1323.12 2635.01 1319.16 2642.35 1316.16C2666.18 1305.24 2686.14 1288.86 2706.07 1271.55C2760.43 1224.42 2810.92 1171.82 2858.6 1118.38C2871.18 1104.07 2883.77 1089.76 2897.32 1076.35C2921.67 1051.47 2937.52 1021.26 2955.25 991.921C2959.67 984.355 2964.1 976.788 2968.5 968.292C2973.82 959.77 2982.04 954.884 2992.24 954.591C3011.73 954.031 3031.21 953.471 3049.9 957.583C3053.61 957.476 3056.45 959.255 3060.19 960.077C3081.74 966.897 3088.61 979.718 3083.66 1001.25C3078.71 1022.78 3068.16 1043.54 3057.59 1063.37C3027.67 1120.96 2992.08 1174.99 2960.28 1231.69C2948.81 1252.48 2938.26 1273.24 2927.72 1294.01C2922.44 1304.39 2918.1 1314.74 2917.52 1326.85C2916.94 1338.95 2920.78 1343.49 2932.84 1343.14C2943.98 1342.82 2953.15 1338.84 2962.27 1333C2985.11 1320.25 3005.02 1302.01 3023.04 1282.9C3054.6 1250.37 3082.35 1214.24 3109.17 1178.13C3136.86 1140.14 3162.68 1101.27 3186.58 1060.59C3205.15 1028.44 3225.61 997.168 3250.79 968.546C3257.97 959.971 3266.13 953.227 3274.3 946.483C3297.01 929.091 3321.14 928.398 3346.51 938.827C3363.42 945.78 3376.78 958.415 3387.42 972.988C3394.15 981.164 3393.36 985.836 3386.2 995.341C3368.34 1020.03 3351.46 1046.56 3334.55 1072.15C3296.37 1132.76 3260.09 1195.18 3226.6 1257.52C3188.68 1327.42 3152.64 1398.2 3119.39 1468.9C3111.52 1485.86 3111.54 1486.79 3131.03 1486.23C3187.57 1482.75 3243.19 1479.29 3299.76 1476.73C3338.7 1474.68 3377.64 1472.63 3415.65 1470.61C3459.23 1468.43 3502.79 1465.32 3546.37 1463.13C3586.23 1461.06 3627.03 1458.96 3666.9 1456.88C3681.74 1456.45 3696.59 1456.03 3711.41 1454.67C3715.12 1454.56 3719.76 1454.43 3723.47 1454.32C3735.58 1455.83 3740.46 1464.06 3736.15 1475.35C3735.3 1478.16 3733.52 1481 3731.72 1482.91C3716.67 1508.45 3700.66 1533.09 3685.61 1558.63C3679.44 1569.97 3671.19 1573.93 3658.2 1574.3C3596.97 1576.06 3534.81 1577.85 3473.57 1579.61C3415.12 1581.29 3356.67 1582.97 3297.29 1584.67C3237.91 1586.38 3177.6 1588.12 3118.22 1589.82C3104.3 1590.22 3090.41 1591.55 3076.47 1591.02C3066.26 1591.32 3061.73 1595.17 3057.36 1604.59C3037.36 1651.66 3018.28 1698.71 3000.13 1745.72C2976 1810.58 2953.74 1876.32 2936.15 1942.84C2931.18 1963.45 2919.35 1972.16 2897.93 1969.98C2868.14 1967.12 2841.81 1955.79 2819.83 1934.1C2808.35 1922.34 2804.27 1909.44 2807.52 1893.54C2812.34 1867.36 2817.16 1841.18 2821.08 1815.96C2828.12 1770.2 2832.4 1725.44 2832 1678.95C2831.38 1657.58 2829.84 1636.24 2825.51 1614.98C2823.23 1600.16 2821.32 1598.36 2805.55 1598.81C2748.95 1600.44 2693.29 1602.04 2636.69 1603.66C2626.48 1603.96 2615.35 1604.28 2605.14 1604.57C2593.08 1604.92 2585.53 1600.49 2577.86 1592.34C2560.55 1571.45 2550.6 1548.48 2546.14 1522.58C2545.03 1516.1 2543.91 1509.62 2543.73 1503.12C2542.37 1488.28 2548.57 1477.87 2562.33 1471.89C2579.74 1463.95 2598.19 1459.7 2616.7 1457.31C2673.1 1449.18 2728.09 1455.97 2779.84 1479.59C2790.18 1483.94 2800.54 1489.22 2810.03 1496.39C2814.78 1499.97 2820.4 1501.67 2826.89 1501.49C2874.19 1499.2 2922.41 1496.88 2969.72 1495.52C2978.07 1495.28 2983.61 1494.19 2987.08 1485.72C3007.06 1437.72 3027.04 1389.72 3046.09 1341.75C3046.04 1339.89 3047.84 1337.98 3045.93 1336.17C3041.34 1338.16 3039.59 1341.93 3036.89 1344.8C3012.59 1371.54 2986.4 1397.4 2957.3 1418.69C2953.67 1421.59 2950.01 1423.55 2946.38 1426.45C2901.83 1459.35 2855.28 1455.1 2809.07 1430.39C2776.06 1412.75 2762.11 1379.67 2770.34 1343.17C2774.42 1323.52 2783.22 1306.53 2790.13 1288.66C2791.88 1284.89 2794.59 1282.02 2793.5 1276.48C2782.68 1287.95 2772.77 1298.46 2762.89 1309.9C2733.2 1343.3 2699.68 1372.16 2663.29 1398.32C2637.81 1416.72 2611.28 1430.5 2580.9 1439.74C2562.48 1444.92 2543.05 1447.34 2523.49 1445.11C2486.19 1439.68 2463.33 1419.88 2465.6 1369.59C2467.5 1338.85 2476.88 1309.76 2487.21 1281.56C2506.21 1231.73 2530.83 1183.6 2555.44 1135.46C2567.76 1111.86 2580.06 1087.33 2589.57 1062.88C2591.29 1058.18 2595.77 1052.47 2590.97 1047.03C2585.25 1041.61 2579.84 1047.35 2574.33 1049.37C2561.47 1054.39 2551.53 1063.97 2541.59 1073.56C2513.55 1099.47 2491.21 1129.87 2468.9 1161.2C2414.46 1238.09 2367.56 1318.48 2322.57 1400.67C2316.39 1412.01 2310.19 1422.42 2304.95 1433.73C2301.45 1441.27 2295.96 1444.22 2287.56 1442.6C2270.78 1440.29 2254.9 1437.03 2239.84 1430.02C2194.66 1409 2181.16 1359.17 2191.25 1322.62C2197.98 1298.25 2208.45 1274.7 2218.94 1252.08C2220.66 1247.38 2223.34 1243.58 2223.15 1237.08C2216.87 1244.7 2209.66 1252.34 2203.38 1259.96C2155.73 1314.34 2106.19 1367.84 2048.04 1412.29C2028.06 1427.74 2006.17 1441.39 1982.28 1450.44C1937.27 1467.55 1893.21 1453 1868.82 1411.86C1848.29 1376.18 1839.8 1339.23 1856.28 1298.77C1859.78 1291.23 1862.32 1282.79 1865.76 1273.39C1858.37 1274.53 1855.72 1279.26 1852.11 1283.08C1822.32 1312.76 1792.56 1343.38 1760.86 1371.26C1734.57 1393.4 1707.32 1414.64 1678.12 1432.22C1664.41 1440.05 1649.75 1446.98 1635.07 1452.99C1572.67 1478.96 1493.53 1439.39 1478.44 1366.36C1478.3 1361.71 1478.14 1356.14 1473.37 1351.62C1462.53 1362.16 1450.76 1372.73 1439.92 1383.27C1420.95 1401.49 1400.06 1417.89 1376.26 1429.74C1353.38 1441.55 1329.45 1448.75 1303.31 1443.92C1270.62 1437.42 1248.75 1419.45 1239.46 1387.17C1236.41 1377.96 1235.19 1367.77 1233.04 1357.6C1228.37 1356.81 1227.55 1360.55 1225.78 1363.39C1204.18 1387.26 1180.64 1408.39 1152.31 1424.09C1118.51 1443.66 1082.57 1453.06 1043.33 1444.89C1008.77 1437.51 986.838 1417.68 977.5 1383.55C971.292 1361.41 970.624 1338.18 972.767 1315.8C972.633 1311.15 975.31 1307.36 972.339 1300.93C966.058 1308.55 959.751 1315.24 953.443 1321.93C916.578 1363.91 874.887 1399.52 825.507 1426.04C786.199 1447.63 744.741 1459.05 699.199 1457.57C676.905 1457.28 655.432 1453.25 634.753 1444.55C601.879 1431.54 580.773 1407.97 571.434 1373.83C564.192 1348 563.444 1321.99 566.38 1294.93C566.3 1292.15 569.003 1289.28 566.113 1285.64C549.947 1304.71 534.682 1322.81 518.489 1340.95C487.905 1375.3 456.366 1408.76 420.029 1436.77C408.208 1445.48 396.36 1453.26 383.557 1460.14C347.006 1480.71 295.469 1464.53 274.203 1435.38C250.019 1401.67 237.817 1364.82 251.46 1322.59C259.99 1296.3 271.357 1271.8 282.724 1247.29C328.353 1154.85 381.564 1067.77 435.676 979.73C448.077 958.915 461.407 938.074 474.736 917.233C476.512 914.392 479.215 911.525 479.108 907.808C463.336 908.261 448.41 905.901 432.691 908.212C406.766 910.818 380.761 910.635 354.782 911.382C314.887 912.529 274.116 915.561 234.167 914.849C217.467 915.329 203.389 910.155 192.836 898.369C166.03 870.312 149.269 836.387 140.778 799.435C137.647 787.436 140.137 777.135 147.265 766.701C166.796 735.452 188.262 706.938 209.701 677.494C265.115 602.438 322.411 528.257 374.961 450.493C382.991 439.103 391.021 427.714 396.187 413.616C389.639 411.945 385.053 413.936 379.54 415.955C328.911 431.359 280.272 451.355 231.659 472.281C114.208 521.224 -1.25286 574.758 -114.725 632.885C-144.014 647.676 -172.322 664.298 -201.584 680.018C-206.143 682.939 -210.702 685.86 -215.261 688.781C-219.82 691.702 -220.641 695.445 -217.724 700.011C-213.826 706.408 -209 712.779 -205.128 718.247C-156.788 784.741 -106.646 849.324 -56.4767 914.835C15.8868 1009.47 90.0524 1102.19 156.983 1201.62C168.624 1218.96 179.337 1236.32 189.123 1253.7C199.863 1271.99 203.18 1290.5 198.201 1311.1C186.521 1357 162.512 1393.96 126.227 1423.83C117.163 1431.53 105.182 1434.66 93.1202 1435.01C31.8582 1435.84 -29.4304 1435.74 -90.6657 1437.5C-163.035 1439.58 -234.476 1441.64 -306.898 1441.86C-374.628 1443.8 -443.312 1444.85 -511.042 1446.8C-555.577 1448.08 -600.165 1447.5 -645.601 1449.73C-657.663 1450.08 -660.526 1447.37 -657.109 1437.05C-644.313 1397.62 -632.473 1357.3 -615.939 1318.69C-610.747 1305.53 -603.458 1300.67 -588.586 1301.17C-543.998 1301.75 -500.444 1298.64 -455.91 1297.35C-412.303 1296.1 -369.57 1296.73 -325.963 1295.48C-279.573 1294.15 -233.129 1294.67 -186.739 1293.34C-120.865 1291.44 -54.0624 1289.52 11.8385 1288.56C18.3332 1288.37 24.8278 1288.18 31.2957 1287.07C38.6915 1285.93 39.5658 1284.04 34.7399 1277.67C24.1066 1263.1 12.5722 1249.48 1.93901 1234.91C-108.952 1092.1 -220.745 950.245 -327.077 804.515C-335.775 792.676 -343.571 779.881 -353.196 768.069C-367.648 749.886 -372.848 730.508 -370.705 708.128C-368.777 678.315 -362.182 649.298 -349.994 621.05C-343.053 604.112 -330.411 591.66 -313.95 582.818C-246.281 546.465 -177.63 511.945 -108.926 479.282C21.1395 416.959 151.285 357.422 287.292 307.946C327.715 292.836 368.191 279.583 409.729 270.95C411.584 270.896 413.44 270.843 415.269 269.861C433.745 266.54 449.651 270.732 463.969 284.269C493.559 312.246 519.518 343.117 534.557 381.741C547.553 413.914 544.67 442.825 524.158 472.242C450.99 575.706 377.794 678.241 304.626 781.706C303.751 783.591 301.922 784.573 301.048 786.458C296.596 793.095 297.604 795.856 305.954 795.616C325.438 795.056 344.922 794.496 364.406 793.936C369.045 793.802 373.684 793.669 377.395 793.562C418.219 792.389 459.042 791.215 499.866 790.042C514.711 789.615 529.529 788.259 544.4 788.761C555.534 788.441 562.876 785.441 569.104 775.962C603.793 722.89 639.409 669.791 675.026 616.691C680.352 608.169 686.633 600.549 691.959 592.027C696.412 585.389 702.799 581.486 712.051 580.29C736.12 577.738 761.171 577.018 785.347 578.183C791.842 577.996 799.318 579.641 805.866 581.313C818.962 584.656 821.959 592.009 816.713 603.319C811.467 614.629 805.293 625.965 799.092 636.373C773.414 679.887 745.881 723.455 719.248 766.067C716.599 770.792 712.994 774.616 711.352 782.102M1110.24 1317.43C1110.24 1317.43 1110.48 1325.79 1110.59 1329.5C1113.93 1348.94 1129.02 1356.87 1147.36 1348.91C1157.46 1344.9 1165.62 1338.15 1172.83 1330.51C1212.53 1290.31 1240.86 1242.07 1265.42 1192.08C1276.85 1169.43 1285.46 1145.93 1297.8 1123.26C1306.63 1107.2 1312.64 1090.29 1317.73 1073.4C1320.27 1064.96 1321.86 1055.62 1322.55 1047.23C1322.15 1033.29 1316.42 1027.87 1302.56 1030.13C1294.2 1030.37 1285.99 1035.26 1278.67 1039.19C1262.24 1048.96 1246.81 1061.49 1234.23 1075.8C1185.62 1129.28 1148.39 1190.79 1123.4 1258.46C1116.52 1277.26 1111.48 1296 1110.24 1317.43ZM729.76 1196.32C788.766 1181.6 833.373 1150.56 861.514 1095.82C864.137 1090.16 865.806 1083.6 866.546 1077.07C866.173 1064.07 859.491 1057.75 846.608 1061.84C835.555 1064.95 827.392 1071.69 819.255 1079.36C799.351 1097.6 781.329 1116.72 765.243 1138.57C751.833 1156.62 739.351 1174.65 730.688 1196.29M2897.54 1730.07C2897.54 1730.07 2900.21 1726.28 2901.06 1723.46C2909.59 1697.18 2917.19 1670.92 2926.68 1645.54C2930.94 1632.4 2936.16 1620.16 2940.46 1607.95C2943.9 1598.55 2941.99 1596.75 2932.74 1597.94C2920.7 1599.22 2907.69 1598.66 2895.63 1599.01C2884.49 1599.33 2884.52 1600.26 2886.67 1610.43C2898 1649.16 2901 1689.06 2897.54 1730.07ZM2732.31 1506.06C2708.88 1498.37 2685.55 1494.39 2661.48 1496.94C2655.91 1497.1 2646.63 1497.37 2646.82 1503.87C2647.01 1510.38 2656.26 1509.18 2661.82 1509.02C2684.99 1507.42 2708.22 1507.69 2731.38 1506.09" fill="black" fill-opacity="0.05"/>
</g>
<defs>
<clipPath id="clip0_60_376">
<rect width="1949" height="1082" fill="white" transform="translate(0.255371)"/>
</clipPath>
</defs>
</svg>
