<svg width="575" height="621" viewBox="0 0 575 621" fill="none" xmlns="http://www.w3.org/2000/svg">
<path d="M0.739624 53.8001C0.739624 26.1859 23.1254 3.80017 50.7396 3.80017H523.74C551.354 3.80017 573.74 26.1859 573.74 53.8002V570.085C573.74 597.699 551.354 620.085 523.74 620.085H50.7396C23.1254 620.085 0.739624 597.699 0.739624 570.085V53.8001Z" fill="#FFAF7C"/>
<mask id="mask0_200_8" style="mask-type:alpha" maskUnits="userSpaceOnUse" x="1" y="0" width="574" height="617">
<path d="M1.4364 50.6953C1.4364 23.081 23.8222 0.695312 51.4364 0.695312H524.436C552.051 0.695312 574.436 23.0811 574.436 50.6953V566.98C574.436 594.594 552.051 616.98 524.436 616.98H51.4364C23.8221 616.98 1.4364 594.594 1.4364 566.98V50.6953Z" fill="#FFAF7C"/>
</mask>
<g mask="url(#mask0_200_8)">
<path d="M514.948 146.118C505.897 164.895 496.846 184.008 489.471 203.456C486.79 209.827 486.454 216.197 489.471 222.568C498.522 242.687 511.596 259.787 529.698 272.864C537.408 278.229 545.453 279.57 554.839 277.894C575.623 273.87 596.072 268.84 616.185 263.811L603.782 197.42C596.407 199.097 588.697 200.773 580.987 202.114C576.629 203.12 575.623 201.779 577.299 197.42C577.634 196.414 578.305 195.408 578.64 194.402C608.475 128.012 638.645 61.9562 668.479 -4.43455C676.86 -23.2117 675.184 -39.6418 664.792 -56.4071C652.054 -76.5255 633.952 -90.6084 614.174 -103.35C604.452 -109.721 595.066 -110.056 585.009 -106.032C584.004 -105.697 582.998 -105.027 581.992 -104.691C558.862 -95.638 537.743 -83.2316 516.624 -70.49C445.893 -27.5707 378.513 20.3782 312.139 69.6683C276.606 95.8222 242.078 122.982 207.885 150.812C199.505 157.519 194.141 165.566 191.795 176.296C188.107 193.396 187.437 210.162 189.783 227.598C191.46 240.339 196.488 251.069 206.545 259.452C213.249 264.817 218.948 271.188 225.317 277.223C301.412 347.973 380.189 415.705 458.631 483.772C466.341 490.478 474.051 497.184 481.761 504.226C485.113 507.244 484.778 508.585 480.756 510.261C477.403 511.603 473.716 512.608 470.028 513.279C432.819 521.326 395.609 529.709 358.735 537.757C332.588 543.457 306.44 547.816 280.628 554.187C256.492 559.887 232.021 564.246 207.55 569.611C182.744 575.311 157.937 581.011 132.796 586.041C124.751 587.717 121.063 591.406 119.387 599.118C114.694 622.589 112.012 646.731 109.33 670.538C108.66 676.573 110.671 677.915 117.04 676.238C141.847 669.867 167.324 665.508 192.465 659.808C230.68 651.425 268.896 643.043 307.111 634.66C347.673 625.942 388.234 617.224 428.796 608.171C462.989 600.459 497.517 593.417 532.044 586.376C539.084 585.035 545.118 581.682 549.476 576.317C566.572 555.528 576.294 532.056 577.634 504.896C578.305 492.825 574.282 482.431 566.572 473.378C558.862 464.324 550.817 455.942 542.771 447.559C494.164 399.275 442.205 354.679 390.916 309.413C355.383 278.229 319.514 247.381 285.322 215.191C282.305 212.174 279.288 209.156 276.271 206.138C273.924 203.791 273.924 201.779 276.271 199.432C278.617 197.42 280.628 195.073 283.31 193.061C297.725 180.99 312.139 168.584 326.889 156.848C384.547 111.582 443.881 68.9977 504.891 28.0902C530.033 11.3249 555.51 -5.44046 582.328 -19.8587C585.009 -21.1999 587.356 -23.2117 591.379 -22.8764C590.038 -14.4938 586.685 -7.117 583.333 0.25975C562.214 49.8852 538.078 97.834 514.948 146.454V146.118Z" fill="white" fill-opacity="0.2"/>
</g>
</svg>
