<svg width="1754" height="582" viewBox="0 0 1754 582" fill="none" xmlns="http://www.w3.org/2000/svg">
<g clip-path="url(#clip0_60_344)">
<path d="M1852.32 281.829C1852.32 281.829 1859.25 282.618 1862.21 282.533C1897.68 281.513 1933.16 280.493 1968.61 278.486C1970.58 278.429 1972.55 278.373 1974.52 278.316C2017.88 277.07 2061.24 275.823 2104.6 274.577C2106.57 274.52 2108.55 274.463 2110.52 274.407C2115.44 274.265 2121.36 274.095 2124.48 279.931C2126.6 284.809 2122.77 288.87 2119.92 292.903C2095.18 324.233 2068.44 354.633 2043.73 386.95C2039.93 391.998 2035.03 393.126 2030.1 393.268C1995.61 394.26 1960.19 397.253 1925.72 399.232C1880.39 400.535 1835.12 403.812 1789.79 405.115C1777.96 405.455 1769.21 409.658 1762.62 420.712C1697.57 525.303 1632.53 629.895 1572.52 738.293C1551.89 775.431 1531.29 813.556 1516.65 853.485C1512.94 861.494 1510.24 870.461 1509.51 879.371C1507.91 892.258 1512.95 896.064 1524.66 891.776C1533.44 888.561 1541.18 883.399 1547.94 878.267C1568.24 863.855 1585.5 846.568 1603.71 828.266C1673.66 757.115 1736.52 679.254 1798.36 600.435C1832.59 555.992 1871.86 515.355 1920.37 487.292C1952.38 468.593 1986.56 456.746 2023.97 454.682C2047.63 454.002 2071.39 457.27 2093.38 467.503C2137.37 487.968 2150.5 533.025 2145.69 571.684C2140.04 615.305 2121.38 652.387 2093.74 685.776C2036.54 754.585 1961.65 791.307 1872.06 796.846C1872.06 796.846 1871.07 796.874 1870.09 796.903C1841.51 797.724 1838.67 801.757 1837.55 831.42C1836.57 866.018 1855.92 887.192 1890.55 891.135C1923.21 895.134 1952.55 886.389 1980.73 871.751C2015.73 853.954 2046.61 830.349 2074.48 804.855C2113.89 769.152 2150.29 731.561 2182.6 689.148C2188.32 682.07 2193.05 675.02 2197.75 666.983C2225.02 620.764 2256.38 579.367 2295.76 542.677C2332.27 509.033 2372.89 481.197 2420.81 466.979C2447.22 459.306 2473.72 454.593 2502.44 458.706C2536.11 463.665 2553.32 478.973 2561.16 511.342C2561.24 514.303 2561.3 516.277 2562.31 517.235C2570.98 510.072 2579.68 503.896 2587.34 495.774C2599.81 483.563 2613.46 478.232 2630.22 477.75C2650.91 477.155 2671.61 476.561 2691.51 482.902C2695.48 483.776 2698.47 484.678 2702.47 486.538C2718.4 492.006 2719.5 495.925 2709.03 509.067C2657.66 574.745 2614.34 646.117 2579.02 721.211C2562.25 755.275 2548.46 790.242 2540.64 827.012C2538.03 838.939 2538.37 850.782 2538.73 863.612C2539.27 882.363 2557.52 899.617 2580.81 886.107C2602.15 873.641 2619.4 856.354 2634.66 838.137C2698.61 764.195 2754.49 683.572 2805.32 599.144C2863.67 501.658 2923.06 406.119 2984.42 310.522C3022.16 251.162 3061.88 191.746 3099.59 131.399C3108.09 118.314 3116.74 110.164 3133.52 110.669C3151.25 110.159 3168.99 109.649 3187.72 109.111C3202.5 108.686 3217.28 108.261 3232.06 107.836C3236.99 107.695 3241.92 107.553 3245.86 107.44C3254.79 109.159 3256.9 114.036 3253.21 123.032C3252.31 126.021 3250.4 128.051 3248.51 131.069C3179.66 240.708 3110.82 350.348 3044 461.904C2975.29 576.478 2906.56 690.065 2846.87 809.319C2835.69 832.357 2824.52 855.396 2818.3 879.28C2816.53 886.245 2812.82 894.253 2818.9 900.005C2826 906.715 2834.78 903.499 2842.61 901.299C2853.36 898.026 2864.03 891.793 2873.72 885.589C2900.83 868.018 2925.91 848.531 2950.94 827.069C3021.15 764.8 3086.28 697.739 3149.4 628.761C3175.21 600.363 3200.04 571.993 3225.88 544.582C3242.12 526.336 3253.32 504.285 3266.55 484.15C3279.78 464.016 3292.98 442.894 3305.23 422.788C3303.08 416.923 3298.21 419.039 3295.26 419.124C3261.81 422.061 3229.23 421.022 3195.75 422.972C3189.84 423.142 3182.94 423.34 3177.03 423.51C3161.18 421.003 3153.85 406.398 3161.34 392.354C3172.54 370.303 3185.74 349.181 3197.96 328.088C3203.61 319.036 3212.43 316.808 3222.28 316.524C3267.61 315.221 3311.93 312.959 3357.35 314.617C3372.13 314.192 3380.89 309.989 3389.39 296.905C3430.93 232.497 3474.48 169.02 3516.05 105.599C3522.66 95.5315 3531.39 90.342 3544.23 90.9606C3578.78 91.9429 3613.3 91.9382 3646.89 93.9357C3660.74 95.5128 3663.84 100.362 3656.3 112.432C3643.13 134.54 3629.95 156.648 3615.79 178.785C3592.24 216.995 3567.69 255.234 3544.13 293.444C3541.29 297.477 3538.45 301.509 3538.59 306.444C3541.69 311.293 3547.54 309.149 3551.49 309.036C3582.04 308.158 3612.58 307.279 3643.13 306.401C3648.06 306.26 3652.99 306.118 3656.93 306.005C3670.78 307.582 3676 317.309 3669.47 330.337C3663.87 341.363 3656.29 352.445 3649.71 363.5C3643.12 374.554 3636.51 384.621 3629.92 395.675C3625.25 404.699 3617.45 407.886 3607.59 408.169C3579.02 408.991 3550.44 409.813 3521.86 410.634C3507.08 411.059 3492.32 412.471 3477.51 411.909C3468.64 412.164 3463.86 417.24 3460.09 423.275C3443.14 451.418 3425.21 479.589 3408.3 508.719C3353.69 599.182 3299.06 688.659 3251.47 782.872C3236.5 810.958 3222.51 839.016 3212.55 869.922C3209.82 877.902 3207.06 884.895 3207.29 892.79C3207.6 903.646 3211.63 906.493 3221.4 903.249C3234.07 897.947 3245.69 890.699 3257.29 882.463C3282.37 862.976 3306.44 842.53 3329.47 820.138C3409.16 744.757 3484.78 664.554 3559.37 583.393C3572.77 569.179 3580.17 552.176 3589.55 535.115C3657.15 416.622 3725.74 298.1 3793.35 179.607C3819.64 133.417 3846.91 87.1979 3867.17 37.2299C3871.79 26.2324 3879.53 21.0713 3891.33 19.7444C3924.78 16.8075 3957.3 15.8726 3990.97 20.8307C3993.93 20.7457 3996.91 21.6477 3999.9 22.5496C4013.84 27.0874 4018.01 34.8692 4015.45 48.7707C4013.67 55.7356 4009.93 62.7573 4007.15 68.7636C3964.23 153.953 3916.29 236.323 3868.36 318.693C3810.1 419.139 3751.84 519.585 3693.55 619.044C3692.62 621.046 3690.73 624.063 3687.92 629.083C3695.69 624.909 3698.5 619.889 3702.33 615.828C3739.54 572.287 3779.8 531.621 3828.22 500.598C3851.45 485.115 3876.76 473.522 3905.16 466.779C3918.88 463.422 3933.63 462.01 3947.48 463.587C3975.16 465.755 3996.25 478.976 4008.82 504.296C4019.32 526.711 4020.99 550.368 4013.79 574.28C4005.63 599.207 3994.48 623.233 3981.34 646.328C3958.82 686.484 3936.31 726.639 3913.79 766.795C3902.53 786.873 3891.27 806.951 3883.98 827.902C3881.23 834.896 3876.56 843.919 3883.65 850.629C3890.75 857.339 3899.5 853.137 3907.3 849.949C3932.61 838.357 3953.81 820.956 3974.98 802.569C4032.72 752.511 4086.34 696.646 4136.99 639.878C4150.36 624.678 4163.73 609.478 4178.11 595.237C4203.98 568.812 4220.81 536.722 4239.64 505.562C4244.34 497.525 4249.04 489.488 4253.72 480.464C4259.37 471.412 4268.1 466.223 4278.94 465.911C4299.64 465.316 4320.33 464.721 4340.18 469.089C4344.12 468.976 4347.14 470.865 4351.11 471.738C4374 478.982 4381.3 492.6 4376.04 515.469C4370.78 538.337 4359.57 560.389 4348.34 581.454C4316.57 642.617 4278.77 700.003 4244.99 760.237C4232.8 782.317 4221.6 804.369 4210.4 826.42C4204.8 837.446 4200.19 848.444 4199.57 861.302C4198.95 874.159 4203.04 878.981 4215.85 878.612C4227.67 878.272 4237.41 874.041 4247.1 867.837C4271.37 854.299 4292.51 834.925 4311.65 814.62C4345.18 780.074 4374.65 741.694 4403.13 703.342C4432.55 662.988 4459.96 621.704 4485.35 578.503C4505.08 544.353 4526.81 511.134 4553.55 480.734C4561.18 471.625 4569.85 464.462 4578.52 457.299C4602.65 438.827 4628.27 438.09 4655.22 449.168C4673.19 456.553 4687.38 469.973 4698.67 485.452C4705.83 494.135 4704.98 499.098 4697.38 509.194C4678.41 535.42 4660.48 563.591 4642.52 590.775C4601.96 655.155 4563.43 721.451 4527.86 787.663C4487.58 861.911 4449.31 937.09 4413.99 1012.18C4405.63 1030.2 4405.66 1031.19 4426.35 1030.59C4486.41 1026.89 4545.48 1023.22 4605.56 1020.5C4646.92 1018.33 4688.29 1016.15 4728.66 1014C4774.95 1011.68 4821.21 1008.38 4867.5 1006.06C4909.85 1003.85 4953.18 1001.62 4995.53 999.416C5011.29 998.963 5027.06 998.51 5042.8 997.07C5046.74 996.957 5051.67 996.815 5055.61 996.702C5068.48 998.307 5073.66 1007.05 5069.07 1019.03C5068.17 1022.02 5066.29 1025.04 5064.37 1027.07C5048.39 1054.2 5031.39 1080.37 5015.4 1107.49C5008.84 1119.53 5000.09 1123.74 4986.29 1124.13C4921.25 1126 4855.22 1127.9 4790.18 1129.77C4728.1 1131.56 4666.01 1133.34 4602.94 1135.15C4539.87 1136.97 4475.82 1138.81 4412.75 1140.62C4397.96 1141.05 4383.21 1142.46 4368.4 1141.9C4357.56 1142.21 4352.75 1146.3 4348.1 1156.31C4326.86 1206.3 4306.59 1256.27 4287.32 1306.21C4261.68 1375.1 4238.05 1444.92 4219.36 1515.58C4214.08 1537.47 4201.52 1546.72 4178.77 1544.41C4147.12 1541.37 4119.16 1529.33 4095.81 1506.3C4083.62 1493.81 4079.28 1480.1 4082.74 1463.21C4087.86 1435.41 4092.98 1407.61 4097.14 1380.82C4104.62 1332.21 4109.17 1284.66 4108.73 1235.29C4108.08 1212.59 4106.44 1189.92 4101.85 1167.34C4099.42 1151.6 4097.4 1149.69 4080.64 1150.17C4020.53 1151.9 3961.4 1153.6 3901.29 1155.32C3890.45 1155.64 3878.62 1155.98 3867.78 1156.29C3854.97 1156.66 3846.95 1151.95 3838.81 1143.29C3820.42 1121.1 3809.85 1096.72 3805.11 1069.2C3803.93 1062.32 3802.75 1055.44 3802.55 1048.53C3801.11 1032.77 3807.69 1021.71 3822.31 1015.36C3840.8 1006.93 3860.4 1002.42 3880.05 999.877C3939.97 991.24 3998.37 998.451 4053.33 1023.54C4064.31 1028.16 4075.32 1033.77 4085.41 1041.38C4090.45 1045.19 4096.42 1046.99 4103.31 1046.79C4153.55 1044.36 4204.76 1041.9 4255.02 1040.46C4263.89 1040.2 4269.77 1039.05 4273.46 1030.05C4294.68 979.068 4315.9 928.085 4336.13 877.13C4336.07 875.156 4337.99 873.126 4335.96 871.208C4331.09 873.324 4329.23 877.328 4326.36 880.374C4300.55 908.772 4272.74 936.24 4241.83 958.858C4237.97 961.932 4234.08 964.019 4230.23 967.093C4182.9 1002.04 4133.46 997.53 4084.38 971.286C4049.32 952.539 4034.5 917.408 4043.25 878.636C4047.58 857.769 4056.92 839.722 4064.27 820.744C4066.13 816.74 4069 813.694 4067.84 807.801C4056.36 819.984 4045.83 831.151 4035.33 843.306C4003.8 878.782 3968.19 909.437 3929.54 937.216C3902.48 956.76 3874.3 971.398 3842.04 981.215C3822.47 986.717 3801.83 989.285 3781.05 986.919C3741.43 981.144 3717.16 960.113 3719.57 906.707C3721.59 874.054 3731.55 843.149 3742.52 813.202C3762.7 760.274 3788.85 709.149 3814.99 658.024C3828.08 632.955 3841.14 606.899 3851.24 580.928C3853.07 575.937 3857.83 569.874 3852.73 564.094C3846.65 558.343 3840.9 564.434 3835.05 566.578C3821.39 571.909 3810.84 582.09 3800.28 592.27C3770.5 619.795 3746.77 652.084 3723.07 685.359C3665.25 767.026 3615.43 852.414 3567.64 939.718C3561.09 951.759 3554.5 962.813 3548.93 974.826C3545.21 982.834 3539.38 985.965 3530.46 984.246C3512.63 981.796 3495.77 978.33 3479.77 970.888C3431.79 948.562 3417.45 895.638 3428.17 856.809C3435.31 830.923 3446.43 805.911 3457.57 781.886C3459.4 776.894 3462.25 772.862 3462.05 765.954C3455.38 774.047 3447.72 782.169 3441.05 790.262C3390.44 848.017 3337.82 904.841 3276.06 952.051C3254.83 968.465 3231.58 982.961 3206.21 992.58C3158.41 1010.75 3111.61 995.3 3085.69 951.598C3063.89 913.704 3054.87 874.454 3072.38 831.48C3076.09 823.471 3078.79 814.504 3082.45 804.522C3074.6 805.735 3071.78 810.755 3067.95 814.816C3036.31 846.345 3004.7 878.86 2971.03 908.472C2943.1 931.992 2914.16 954.553 2883.14 973.224C2868.58 981.544 2853.02 988.905 2837.42 995.28C2771.14 1022.87 2687.09 980.835 2671.05 903.267C2670.91 898.333 2670.74 892.411 2665.67 887.619C2654.16 898.814 2641.66 910.039 2630.14 921.234C2609.99 940.58 2587.8 958.009 2562.52 970.588C2538.23 983.139 2512.8 990.784 2485.04 985.656C2450.32 978.752 2427.09 959.666 2417.22 925.38C2413.98 915.596 2412.69 904.768 2410.4 893.969C2405.45 893.124 2404.58 897.1 2402.69 900.117C2379.75 925.469 2354.75 947.917 2324.66 964.586C2288.76 985.372 2250.58 995.359 2208.91 986.68C2172.19 978.846 2148.9 957.786 2138.98 921.526C2132.39 898.01 2131.68 873.338 2133.95 849.568C2133.81 844.633 2136.66 840.601 2133.5 833.777C2126.83 841.871 2120.13 848.977 2113.43 856.084C2074.27 900.669 2029.99 938.487 1977.54 966.663C1935.79 989.593 1891.76 1001.72 1843.38 1000.15C1819.71 999.844 1796.9 995.561 1774.93 986.315C1740.02 972.504 1717.6 947.468 1707.68 911.207C1699.99 883.773 1699.19 856.14 1702.31 827.406C1702.23 824.446 1705.1 821.4 1702.03 817.537C1684.86 837.785 1668.64 857.018 1651.44 876.279C1618.96 912.77 1585.46 948.303 1546.86 978.056C1534.31 987.307 1521.72 995.57 1508.13 1002.87C1469.3 1024.73 1414.56 1007.54 1391.98 976.583C1366.29 940.776 1353.33 901.64 1367.82 856.776C1376.88 828.86 1388.95 802.832 1401.03 776.805C1449.49 678.616 1506.01 586.122 1563.48 492.613C1576.66 470.505 1590.81 448.368 1604.97 426.231C1606.86 423.214 1609.73 420.168 1609.62 416.221C1592.86 416.702 1577.01 414.195 1560.31 416.65C1532.78 419.417 1505.16 419.224 1477.56 420.017C1435.19 421.235 1391.88 424.455 1349.45 423.7C1331.71 424.21 1316.76 418.713 1305.55 406.195C1277.08 376.395 1259.28 340.361 1250.26 301.112C1246.93 288.368 1249.58 277.427 1257.15 266.344C1277.89 233.154 1300.69 202.867 1323.47 171.593C1382.32 91.872 1443.18 13.0812 1499 -69.5156C1507.53 -81.6133 1516.05 -93.711 1521.54 -108.684C1514.59 -110.46 1509.72 -108.344 1503.86 -106.201C1450.08 -89.8391 1398.42 -68.5998 1346.79 -46.3735C1222.04 5.61054 1099.4 62.4724 978.877 124.212C947.767 139.922 917.7 157.577 886.619 174.274C881.777 177.377 876.935 180.479 872.092 183.581C867.25 186.684 866.378 190.66 869.476 195.509C873.617 202.304 878.743 209.071 882.855 214.879C934.199 285.505 987.458 354.102 1040.75 423.685C1117.61 524.197 1196.38 622.679 1267.47 728.296C1279.84 746.707 1291.21 765.146 1301.61 783.614C1313.02 803.04 1316.54 822.693 1311.25 844.575C1298.84 893.329 1273.34 932.583 1234.8 964.31C1225.18 972.488 1212.45 975.817 1199.64 976.186C1134.57 977.068 1069.47 976.964 1004.43 978.834C927.565 981.044 851.684 983.225 774.76 983.461C702.821 985.529 629.868 986.639 557.929 988.707C510.626 990.067 463.267 989.453 415.007 991.828C402.196 992.196 399.155 989.32 402.785 978.351C416.375 936.477 428.952 893.644 446.512 852.643C452.028 838.656 459.77 833.495 475.566 834.029C522.925 834.643 569.185 831.337 616.488 829.978C662.805 828.646 708.193 829.317 754.51 827.985C803.784 826.569 853.114 827.126 902.387 825.709C972.356 823.698 1043.31 821.658 1113.31 820.634C1120.2 820.436 1127.1 820.237 1133.97 819.052C1141.83 817.838 1142.76 815.836 1137.63 809.07C1126.34 793.591 1114.09 779.128 1102.79 763.649C985.008 611.964 866.268 461.295 753.327 306.508C744.089 293.934 735.808 280.344 725.585 267.798C710.235 248.485 704.712 227.901 706.987 204.131C709.036 172.465 716.04 141.645 728.986 111.642C736.359 93.6508 749.786 80.4246 767.27 71.0326C839.145 32.4211 912.062 -4.24492 985.036 -38.9372C1123.19 -105.134 1261.42 -168.371 1405.88 -220.921C1448.81 -236.971 1491.81 -251.047 1535.92 -260.217C1537.9 -260.274 1539.87 -260.331 1541.81 -261.374C1561.43 -264.902 1578.33 -260.449 1593.54 -246.07C1624.96 -216.355 1652.54 -183.565 1668.51 -142.541C1682.31 -108.368 1679.25 -77.6606 1657.47 -46.4153C1579.75 63.4792 1502.01 172.387 1424.29 282.281C1423.36 284.283 1421.42 285.327 1420.49 287.329C1415.76 294.379 1416.83 297.311 1425.7 297.056C1446.4 296.462 1467.09 295.867 1487.78 295.272C1492.71 295.13 1497.64 294.988 1501.58 294.875C1544.94 293.629 1588.3 292.382 1631.66 291.136C1647.43 290.682 1663.17 289.242 1678.97 289.776C1690.79 289.436 1698.59 286.248 1705.2 276.181C1742.05 219.81 1779.88 163.411 1817.71 107.012C1823.37 97.9596 1830.04 89.8662 1835.7 80.8141C1840.42 73.7642 1847.21 69.6183 1857.04 68.3481C1882.6 65.6378 1909.21 64.8729 1934.89 66.1101C1941.79 65.9118 1949.73 67.659 1956.68 69.4344C1970.59 72.9854 1973.77 80.7956 1968.2 92.8083C1962.63 104.821 1956.07 116.862 1949.49 127.916C1922.21 174.135 1892.97 220.41 1864.68 265.67C1861.87 270.69 1858.04 274.751 1856.29 282.703M2279.97 851.296C2279.97 851.296 2280.23 860.178 2280.34 864.126C2283.9 884.766 2299.92 893.194 2319.4 884.733C2330.13 880.473 2338.8 873.31 2346.45 865.188C2388.62 822.492 2418.71 771.254 2444.8 718.156C2456.93 694.102 2466.08 669.146 2479.19 645.064C2488.57 628.004 2494.95 610.041 2500.35 592.107C2503.06 583.14 2504.74 573.214 2505.47 564.304C2505.05 549.501 2498.96 543.749 2484.24 546.148C2475.37 546.403 2466.64 551.592 2458.87 555.767C2441.42 566.146 2425.03 579.457 2411.66 594.657C2360.04 651.453 2320.49 716.791 2293.95 788.669C2286.64 808.633 2281.29 828.541 2279.97 851.296ZM1875.85 722.659C1938.52 707.029 1985.9 674.061 2015.79 615.914C2018.57 609.908 2020.35 602.943 2021.13 596.006C2020.74 582.19 2013.64 575.48 1999.96 579.824C1988.22 583.125 1979.54 590.288 1970.9 598.438C1949.76 617.812 1930.62 638.117 1913.53 661.325C1899.29 680.501 1886.03 699.649 1876.83 722.631M4178.35 1289.59C4178.35 1289.59 4181.19 1285.56 4182.09 1282.57C4191.15 1254.65 4199.23 1226.76 4209.3 1199.81C4213.83 1185.85 4219.37 1172.85 4223.93 1159.88C4227.59 1149.89 4225.56 1147.98 4215.74 1149.25C4202.95 1150.6 4189.13 1150.01 4176.32 1150.38C4164.49 1150.72 4164.52 1151.71 4166.8 1162.51C4178.84 1203.65 4182.03 1246.02 4178.35 1289.59ZM4002.85 1051.66C3977.96 1043.48 3953.18 1039.26 3927.62 1041.97C3921.7 1042.14 3911.85 1042.42 3912.05 1049.33C3912.25 1056.24 3922.07 1054.97 3927.99 1054.8C3952.59 1053.1 3977.26 1053.38 4001.87 1051.69" fill="white" fill-opacity="0.2"/>
</g>
<defs>
<clipPath id="clip0_60_344">
<rect x="0.0400391" width="1753" height="582" rx="20" fill="white"/>
</clipPath>
</defs>
</svg>
