<svg width="22" height="25" viewBox="0 0 22 25" fill="none" xmlns="http://www.w3.org/2000/svg">
<g clip-path="url(#clip0_67_36)">
<path d="M10.8691 1.49133C10.5551 1.49133 10.3629 1.36008 10.1426 1.2054C9.8332 0.994458 9.46289 0.741333 8.61914 0.741333C7.18945 0.741333 6.18164 2.78977 5.52539 4.93196C3.3082 5.33977 1.86914 6.00071 1.86914 6.74133C1.86914 7.41165 3.04102 8.01165 4.89727 8.42415C4.87852 8.61165 4.86914 8.79915 4.86914 8.99133C4.86914 9.78821 5.02383 10.5476 5.30508 11.2413H2.49727C2.15039 11.2413 1.86914 11.5226 1.86914 11.8695C1.86914 11.9491 1.8832 12.0288 1.91602 12.1038L3.73477 16.646C1.69102 18.1695 0.369141 20.607 0.369141 23.3491C0.369141 24.1179 0.992578 24.7413 1.76133 24.7413H19.977C20.7457 24.7413 21.3691 24.1179 21.3691 23.3491C21.3691 20.607 20.0473 18.1741 18.0082 16.646L19.8223 12.1038C19.8504 12.0288 19.8691 11.9491 19.8691 11.8695C19.8691 11.5226 19.5879 11.2413 19.241 11.2413H16.4332C16.7145 10.5476 16.8691 9.78821 16.8691 8.99133C16.8691 8.79915 16.8598 8.61165 16.841 8.42415C18.6973 8.01165 19.8691 7.41165 19.8691 6.74133C19.8691 6.00071 18.4301 5.33977 16.2129 4.93196C15.5566 2.78977 14.5488 0.741333 13.1191 0.741333C12.2754 0.741333 11.9051 0.994458 11.5957 1.2054C11.3707 1.36008 11.1832 1.49133 10.8691 1.49133ZM13.4941 11.2413H12.9129C12.1395 11.2413 11.4551 10.7445 11.2113 10.0132C11.1035 9.68508 10.6395 9.68508 10.5316 10.0132C10.2879 10.7445 9.59883 11.2413 8.83008 11.2413H8.24414C7.2082 11.2413 6.36914 10.4023 6.36914 9.36633V8.69133C7.69102 8.88352 9.22852 8.99133 10.8691 8.99133C12.5098 8.99133 14.0473 8.88352 15.3691 8.69133V9.36633C15.3691 10.4023 14.5301 11.2413 13.4941 11.2413ZM9.36914 15.7413L10.1191 17.2413L8.61914 23.2413L6.36914 14.2413L9.36914 15.7413ZM15.3691 14.2413L13.1191 23.2413L11.6191 17.2413L12.3691 15.7413L15.3691 14.2413Z" fill="white"/>
</g>
<defs>
<clipPath id="clip0_67_36">
<rect width="21" height="24" fill="white" transform="translate(0.369141 0.741333)"/>
</clipPath>
</defs>
</svg>
