<svg width="961" height="1075" viewBox="0 0 961 1075" fill="none" xmlns="http://www.w3.org/2000/svg">
<g clip-path="url(#clip0_60_370)">
<path d="M1038.17 388.355C1038.17 388.355 1045.26 389.162 1048.29 389.075C1084.6 388.032 1120.91 386.988 1157.19 384.934C1159.21 384.876 1161.23 384.818 1163.24 384.76C1207.62 383.484 1252 382.208 1296.38 380.933C1298.4 380.875 1300.41 380.817 1302.43 380.759C1307.47 380.614 1313.53 380.44 1316.73 386.413C1318.89 391.405 1314.97 395.562 1312.06 399.689C1286.74 431.755 1259.37 462.869 1234.07 495.946C1230.18 501.112 1225.17 502.267 1220.13 502.412C1184.82 503.427 1148.57 506.491 1113.3 508.516C1066.9 509.849 1020.57 513.203 974.169 514.537C962.065 514.885 953.104 519.186 946.363 530.5C879.789 637.549 813.214 744.597 751.798 855.541C730.683 893.552 709.597 932.572 694.621 973.439C690.818 981.636 688.054 990.813 687.307 999.933C685.667 1013.12 690.826 1017.02 702.814 1012.63C711.804 1009.34 719.728 1004.06 726.643 998.802C747.417 984.052 765.079 966.359 783.72 947.627C855.316 874.805 919.649 795.116 982.944 714.445C1017.98 668.958 1058.17 627.366 1107.82 598.644C1140.58 579.506 1175.56 567.381 1213.86 565.269C1238.06 564.573 1262.39 567.917 1284.9 578.39C1329.91 599.336 1343.35 645.451 1338.43 685.018C1332.65 729.665 1313.55 767.617 1285.26 801.791C1226.72 872.215 1150.07 909.801 1058.37 915.469C1058.37 915.469 1057.37 915.498 1056.36 915.527C1027.11 916.368 1024.2 920.496 1023.05 950.856C1022.05 986.266 1041.85 1007.94 1077.3 1011.97C1110.73 1016.07 1140.76 1007.12 1169.6 992.134C1205.42 973.919 1237.02 949.759 1265.55 923.667C1305.88 887.125 1343.14 848.651 1376.21 805.242C1382.06 797.997 1386.9 790.782 1391.71 782.556C1419.62 735.252 1451.72 692.882 1492.03 655.33C1529.4 620.896 1570.97 592.406 1620.02 577.854C1647.05 570.001 1674.16 565.178 1703.56 569.387C1738.03 574.462 1755.64 590.13 1763.66 623.26C1763.74 626.29 1763.8 628.31 1764.84 629.291C1773.71 621.96 1782.62 615.638 1790.45 607.326C1803.22 594.828 1817.19 589.372 1834.34 588.879C1855.52 588.27 1876.7 587.661 1897.08 594.152C1901.14 595.046 1904.19 595.969 1908.29 597.873C1924.6 603.469 1925.72 607.481 1915.01 620.931C1862.43 688.151 1818.09 761.2 1781.94 838.058C1764.78 872.922 1750.66 908.71 1742.66 946.344C1739.98 958.551 1740.33 970.672 1740.71 983.803C1741.26 1002.99 1759.94 1020.65 1783.77 1006.83C1805.61 994.069 1823.27 976.375 1838.88 957.73C1904.34 882.052 1961.53 799.535 2013.55 713.123C2073.27 613.348 2134.06 515.564 2196.86 417.722C2235.49 356.968 2276.14 296.156 2314.74 234.392C2323.44 221 2332.29 212.658 2349.46 213.175C2367.62 212.654 2385.77 212.132 2404.93 211.581C2420.06 211.146 2435.19 210.711 2450.32 210.276C2455.37 210.131 2460.41 209.986 2464.44 209.87C2473.58 211.629 2475.74 216.622 2471.97 225.828C2471.05 228.887 2469.09 230.966 2467.16 234.054C2396.69 346.269 2326.23 458.483 2257.84 572.66C2187.52 689.926 2117.17 806.181 2056.08 928.235C2044.64 951.815 2033.21 975.395 2026.84 999.839C2025.03 1006.97 2021.23 1015.16 2027.45 1021.05C2034.72 1027.92 2043.71 1024.63 2051.72 1022.38C2062.73 1019.03 2073.65 1012.65 2083.56 1006.3C2111.31 988.313 2136.98 968.368 2162.59 946.402C2234.45 882.671 2301.12 814.035 2365.71 743.436C2392.13 714.371 2417.54 685.335 2443.99 657.28C2460.62 638.606 2472.08 616.036 2485.62 595.429C2499.16 574.821 2512.67 553.204 2525.2 532.625C2523.01 526.623 2518.03 528.788 2515 528.875C2480.77 531.881 2447.42 530.818 2413.16 532.814C2407.11 532.988 2400.05 533.191 2394 533.365C2377.77 530.798 2370.28 515.85 2377.94 501.477C2389.4 478.907 2402.91 457.29 2415.42 435.701C2421.21 426.437 2430.23 424.156 2440.31 423.866C2486.71 422.532 2532.07 420.217 2578.55 421.913C2593.68 421.479 2602.64 417.177 2611.34 403.785C2653.86 337.865 2698.43 272.896 2740.98 207.986C2747.75 197.682 2756.68 192.371 2769.82 193.004C2805.18 194.009 2840.51 194.004 2874.89 196.049C2889.07 197.663 2892.24 202.626 2884.52 214.979C2871.04 237.607 2857.56 260.234 2843.07 282.891C2818.95 321.999 2793.83 361.136 2769.72 400.243C2766.81 404.371 2763.9 408.498 2764.05 413.548C2767.22 418.512 2773.21 416.317 2777.25 416.201C2808.51 415.303 2839.78 414.404 2871.05 413.505C2876.09 413.36 2881.13 413.215 2885.17 413.099C2899.35 414.713 2904.68 424.669 2898 438.003C2892.27 449.288 2884.52 460.63 2877.78 471.944C2871.03 483.258 2864.26 493.562 2857.52 504.876C2852.74 514.111 2844.76 517.373 2834.67 517.663C2805.42 518.504 2776.17 519.345 2746.92 520.186C2731.8 520.621 2716.7 522.066 2701.54 521.491C2692.46 521.752 2687.56 526.947 2683.7 533.123C2666.36 561.927 2648.01 590.761 2630.7 620.575C2574.81 713.163 2518.89 804.741 2470.18 901.167C2454.86 929.913 2440.54 958.63 2430.35 990.262C2427.55 998.429 2424.73 1005.59 2424.96 1013.67C2425.28 1024.78 2429.41 1027.69 2439.4 1024.37C2452.37 1018.94 2464.27 1011.53 2476.14 1003.1C2501.81 983.153 2526.45 962.226 2550.02 939.309C2631.58 862.156 2708.97 780.07 2785.32 697.002C2799.03 682.455 2806.61 665.052 2816.2 647.591C2885.4 526.314 2955.6 405.009 3024.79 283.732C3051.7 236.457 3079.61 189.153 3100.35 138.011C3105.07 126.755 3113 121.473 3125.07 120.115C3159.31 117.109 3192.59 116.152 3227.06 121.227C3230.08 121.14 3233.14 122.063 3236.19 122.986C3250.46 127.63 3254.73 135.595 3252.11 149.823C3250.29 156.951 3246.46 164.138 3243.61 170.285C3199.68 257.476 3150.62 341.78 3101.56 426.085C3041.93 528.891 2982.3 631.696 2922.64 733.491C2921.69 735.54 2919.76 738.628 2916.88 743.766C2924.84 739.493 2927.72 734.356 2931.63 730.2C2969.72 685.636 3010.92 644.015 3060.48 612.263C3084.25 596.416 3110.16 584.551 3139.23 577.65C3153.27 574.214 3168.37 572.769 3182.55 574.383C3210.87 576.601 3232.46 590.133 3245.32 616.047C3256.07 638.989 3257.78 663.202 3250.41 687.676C3242.06 713.189 3230.65 737.778 3217.2 761.416C3194.15 802.515 3171.11 843.614 3148.06 884.713C3136.54 905.262 3125.02 925.812 3117.56 947.255C3114.73 954.413 3109.95 963.648 3117.22 970.516C3124.48 977.383 3133.44 973.082 3141.42 969.82C3167.33 957.955 3189.02 940.146 3210.69 921.327C3269.78 870.093 3324.67 812.916 3376.5 754.815C3390.19 739.258 3403.87 723.7 3418.59 709.124C3445.07 682.08 3462.3 649.235 3481.57 617.343C3486.38 609.118 3491.19 600.892 3495.97 591.656C3501.76 582.392 3510.69 577.08 3521.79 576.761C3542.97 576.153 3564.15 575.544 3584.47 580.014C3588.5 579.898 3591.59 581.831 3595.65 582.725C3619.08 590.139 3626.55 604.077 3621.16 627.483C3615.78 650.889 3604.32 673.458 3592.82 695.018C3560.3 757.618 3521.61 816.352 3487.04 878.001C3474.57 900.599 3463.11 923.169 3451.64 945.738C3445.91 957.023 3441.18 968.279 3440.55 981.439C3439.92 994.599 3444.1 999.533 3457.21 999.156C3469.32 998.808 3479.29 994.478 3489.2 988.128C3514.04 974.272 3535.68 954.442 3555.27 933.661C3589.58 898.304 3619.74 859.022 3648.9 819.769C3679.01 778.467 3707.06 736.214 3733.05 691.997C3753.24 657.046 3775.48 623.047 3802.85 591.932C3810.66 582.61 3819.53 575.278 3828.41 567.947C3853.1 549.041 3879.33 548.287 3906.91 559.625C3925.29 567.183 3939.82 580.919 3951.38 596.761C3958.7 605.649 3957.84 610.728 3950.06 621.061C3930.64 647.902 3912.29 676.736 3893.91 704.558C3852.4 770.45 3812.96 838.304 3776.55 906.071C3735.33 982.063 3696.15 1059.01 3660.01 1135.86C3651.45 1154.31 3651.48 1155.32 3672.66 1154.71C3734.13 1150.92 3794.59 1147.16 3856.08 1144.38C3898.42 1142.15 3940.75 1139.93 3982.07 1137.73C4029.45 1135.35 4076.8 1131.97 4124.17 1129.6C4167.51 1127.34 4211.86 1125.05 4255.21 1122.8C4271.34 1122.33 4287.48 1121.87 4303.59 1120.4C4307.62 1120.28 4312.67 1120.14 4316.7 1120.02C4329.87 1121.66 4335.18 1130.61 4330.48 1142.87C4329.56 1145.93 4327.63 1149.02 4325.67 1151.1C4309.31 1178.86 4291.91 1205.65 4275.55 1233.41C4268.83 1245.74 4259.87 1250.04 4245.75 1250.44C4179.18 1252.36 4111.61 1254.3 4045.04 1256.21C3981.49 1258.04 3917.95 1259.87 3853.4 1261.72C3788.85 1263.58 3723.29 1265.46 3658.74 1267.32C3643.61 1267.75 3628.51 1269.2 3613.35 1268.62C3602.25 1268.94 3597.33 1273.13 3592.58 1283.37C3570.83 1334.54 3550.09 1385.69 3530.36 1436.8C3504.12 1507.31 3479.93 1578.77 3460.81 1651.09C3455.4 1673.49 3442.55 1682.95 3419.26 1680.59C3386.87 1677.48 3358.25 1665.16 3334.36 1641.58C3321.88 1628.8 3317.44 1614.77 3320.98 1597.49C3326.22 1569.03 3331.46 1540.58 3335.71 1513.16C3343.37 1463.4 3348.03 1414.75 3347.58 1364.21C3346.92 1340.98 3345.24 1317.78 3340.54 1294.66C3338.06 1278.56 3335.98 1276.6 3318.83 1277.09C3257.31 1278.86 3196.79 1280.6 3135.27 1282.37C3124.17 1282.69 3112.07 1283.03 3100.97 1283.35C3087.86 1283.73 3079.65 1278.91 3071.32 1270.05C3052.49 1247.34 3041.68 1222.38 3036.83 1194.22C3035.62 1187.17 3034.41 1180.13 3034.21 1173.06C3032.73 1156.93 3039.47 1145.62 3054.43 1139.12C3073.36 1130.49 3093.42 1125.87 3113.53 1123.27C3174.85 1114.43 3234.62 1121.81 3290.88 1147.49C3302.12 1152.22 3313.39 1157.96 3323.71 1165.75C3328.87 1169.65 3334.98 1171.49 3342.04 1171.29C3393.45 1168.8 3445.87 1166.28 3497.31 1164.8C3506.38 1164.54 3512.41 1163.36 3516.18 1154.15C3537.9 1101.97 3559.61 1049.79 3580.32 997.639C3580.27 995.619 3582.22 993.541 3580.15 991.579C3575.16 993.744 3573.26 997.842 3570.32 1000.96C3543.9 1030.02 3515.44 1058.14 3483.8 1081.29C3479.85 1084.43 3475.88 1086.57 3471.93 1089.71C3423.5 1125.48 3372.89 1120.87 3322.66 1094.01C3286.77 1074.82 3271.61 1038.86 3280.56 999.18C3284.99 977.823 3294.56 959.352 3302.08 939.929C3303.98 935.83 3306.91 932.713 3305.73 926.682C3293.98 939.151 3283.2 950.58 3272.46 963.02C3240.19 999.33 3203.74 1030.7 3164.18 1059.14C3136.49 1079.14 3107.65 1094.12 3074.62 1104.17C3054.6 1109.8 3033.47 1112.43 3012.2 1110.01C2971.66 1104.1 2946.81 1082.57 2949.28 1027.91C2951.35 994.491 2961.54 962.86 2972.77 932.21C2993.42 878.038 3020.18 825.712 3046.94 773.387C3060.34 747.729 3073.7 721.061 3084.04 694.48C3085.92 689.372 3090.78 683.166 3085.57 677.251C3079.34 671.364 3073.46 677.599 3067.47 679.793C3053.5 685.249 3042.69 695.669 3031.89 706.089C3001.4 734.26 2977.12 767.307 2952.86 801.364C2893.69 884.949 2842.7 972.342 2793.78 1061.7C2787.07 1074.02 2780.33 1085.33 2774.63 1097.63C2770.83 1105.83 2764.86 1109.03 2755.73 1107.27C2737.48 1104.76 2720.22 1101.22 2703.85 1093.6C2654.74 1070.75 2640.06 1016.58 2651.03 976.841C2658.35 950.347 2669.72 924.747 2681.13 900.157C2683 895.049 2685.91 890.922 2685.71 883.851C2678.88 892.135 2671.04 900.448 2664.22 908.731C2612.41 967.842 2558.57 1026 2495.35 1074.32C2473.63 1091.12 2449.83 1105.96 2423.86 1115.8C2374.93 1134.39 2327.04 1118.58 2300.51 1073.86C2278.2 1035.07 2268.97 994.901 2286.88 950.917C2290.69 942.72 2293.45 933.542 2297.2 923.326C2289.16 924.568 2286.27 929.705 2282.36 933.861C2249.97 966.131 2217.62 999.41 2183.16 1029.72C2154.58 1053.79 2124.96 1076.88 2093.2 1095.99C2078.31 1104.51 2062.37 1112.04 2046.41 1118.56C1978.58 1146.8 1892.55 1103.78 1876.13 1024.39C1875.99 1019.34 1875.81 1013.28 1870.62 1008.37C1858.84 1019.83 1846.05 1031.32 1834.26 1042.78C1813.63 1062.58 1790.93 1080.42 1765.05 1093.29C1740.19 1106.14 1714.17 1113.96 1685.75 1108.71C1650.22 1101.65 1626.44 1082.11 1616.34 1047.02C1613.03 1037.01 1611.7 1025.93 1609.36 1014.87C1604.29 1014.01 1603.4 1018.08 1601.47 1021.17C1577.99 1047.11 1552.4 1070.09 1521.6 1087.15C1484.86 1108.42 1445.79 1118.65 1403.14 1109.76C1365.56 1101.74 1341.72 1080.19 1331.57 1043.08C1324.82 1019.01 1324.09 993.758 1326.42 969.429C1326.28 964.379 1329.19 960.252 1325.96 953.268C1319.13 961.552 1312.27 968.825 1305.41 976.099C1265.34 1021.73 1220.02 1060.44 1166.34 1089.27C1123.6 1112.74 1078.54 1125.16 1029.03 1123.55C1004.79 1123.24 981.447 1118.85 958.967 1109.39C923.23 1095.25 900.285 1069.63 890.133 1032.52C882.26 1004.44 881.447 976.156 884.639 946.748C884.552 943.717 887.491 940.6 884.349 936.647C866.775 957.37 850.18 977.055 832.577 996.768C799.329 1034.12 765.044 1070.48 725.541 1100.94C712.69 1110.4 699.811 1118.86 685.893 1126.34C646.158 1148.71 590.133 1131.11 567.014 1099.43C540.724 1062.78 527.46 1022.72 542.291 976.807C551.564 948.235 563.921 921.596 576.278 894.958C625.88 794.462 683.726 699.796 742.551 604.09C756.033 581.463 770.523 558.806 785.014 536.149C786.944 533.061 789.883 529.944 789.766 525.904C772.62 526.397 756.395 523.83 739.306 526.344C711.123 529.176 682.853 528.977 654.612 529.789C611.241 531.036 566.92 534.332 523.492 533.559C505.337 534.08 490.033 528.455 478.561 515.643C449.42 485.142 431.199 448.263 421.968 408.092C418.565 395.048 421.271 383.85 429.021 372.507C450.252 338.537 473.588 307.538 496.894 275.53C557.135 193.937 619.421 113.295 676.549 28.7583C685.278 16.3764 694.007 3.99454 699.623 -11.3305C692.504 -13.1477 687.52 -10.9826 681.526 -8.78848C626.488 7.95738 573.612 29.6956 520.765 52.444C393.085 105.649 267.567 163.846 144.212 227.036C112.372 243.115 81.5983 261.185 49.7872 278.274C44.8313 281.45 39.8753 284.625 34.9193 287.8C29.9634 290.975 29.0709 295.044 32.2419 300.008C36.4796 306.962 41.726 313.888 45.9346 319.832C98.4852 392.118 152.995 462.326 207.534 533.543C286.2 636.417 366.825 737.212 439.584 845.309C452.239 864.152 463.886 883.025 474.524 901.927C486.199 921.809 489.806 941.924 484.393 964.319C471.695 1014.22 445.595 1054.39 406.151 1086.87C396.297 1095.24 383.272 1098.64 370.16 1099.02C303.562 1099.92 236.935 1099.82 170.367 1101.73C91.6947 1103.99 14.0312 1106.23 -64.6989 1106.47C-138.328 1108.58 -212.994 1109.72 -286.623 1111.84C-335.037 1113.23 -383.509 1112.6 -432.902 1115.03C-446.014 1115.41 -449.127 1112.46 -445.412 1101.24C-431.502 1058.38 -418.63 1014.54 -400.657 972.577C-395.012 958.262 -387.088 952.979 -370.921 953.525C-322.449 954.154 -275.103 950.771 -226.689 949.379C-179.284 948.016 -132.83 948.703 -85.4246 947.34C-34.9938 945.89 15.4951 946.461 65.9259 945.011C137.538 942.952 210.158 940.865 281.799 939.816C288.859 939.613 295.919 939.41 302.951 938.197C310.99 936.955 311.941 934.906 306.695 927.98C295.135 912.138 282.596 897.335 271.037 881.493C150.487 726.245 28.9581 572.037 -86.6356 413.615C-96.0906 400.744 -104.566 386.835 -115.03 373.994C-130.74 354.228 -136.393 333.161 -134.064 308.832C-131.967 276.423 -124.798 244.879 -111.549 214.171C-104.002 195.757 -90.2593 182.22 -72.3655 172.608C1.1977 133.089 75.8277 95.562 150.516 60.0549C291.91 -7.69711 433.391 -72.4189 581.243 -126.204C625.187 -142.631 669.189 -157.038 714.344 -166.423C716.361 -166.481 718.378 -166.539 720.367 -167.607C740.452 -171.217 757.743 -166.66 773.308 -151.943C805.475 -121.53 833.695 -87.9703 850.044 -45.9821C864.172 -11.0064 861.038 20.4219 838.74 52.4011C759.199 164.877 679.628 276.343 600.087 388.818C599.136 390.867 597.148 391.936 596.197 393.985C591.358 401.2 592.453 404.201 601.531 403.94C622.712 403.332 643.893 402.723 665.074 402.114C670.117 401.969 675.16 401.824 679.194 401.708C723.574 400.432 767.953 399.156 812.332 397.88C828.47 397.417 844.578 395.943 860.745 396.489C872.849 396.141 880.83 392.879 887.6 382.575C925.31 324.88 964.029 267.156 1002.75 209.432C1008.54 200.167 1015.37 191.884 1021.16 182.619C1026 175.404 1032.94 171.16 1043 169.86C1069.16 167.086 1096.4 166.303 1122.68 167.57C1129.74 167.367 1137.87 169.155 1144.98 170.972C1159.22 174.606 1162.48 182.6 1156.78 194.895C1151.07 207.19 1144.36 219.514 1137.62 230.827C1109.71 278.132 1079.77 325.494 1050.82 371.817C1047.94 376.955 1044.02 381.111 1042.24 389.249M1475.87 971.198C1475.87 971.198 1476.13 980.289 1476.25 984.329C1479.88 1005.45 1496.28 1014.08 1516.22 1005.42C1527.2 1001.06 1536.08 993.73 1543.91 985.417C1587.07 941.718 1617.87 889.276 1644.57 834.931C1656.98 810.312 1666.34 784.77 1679.77 760.122C1689.36 742.661 1695.9 724.277 1701.43 705.921C1704.19 696.744 1705.92 686.585 1706.67 677.465C1706.23 662.314 1700 656.428 1684.93 658.883C1675.86 659.144 1666.92 664.455 1658.97 668.727C1641.11 679.35 1624.34 692.974 1610.65 708.531C1557.81 766.661 1517.34 833.534 1490.18 907.1C1482.69 927.533 1477.22 947.909 1475.87 971.198ZM1062.25 839.54C1126.39 823.543 1174.89 789.8 1205.48 730.288C1208.33 724.14 1210.14 717.012 1210.95 709.912C1210.54 695.771 1203.28 688.904 1189.27 693.35C1177.26 696.728 1168.38 704.06 1159.54 712.401C1137.9 732.231 1118.31 753.012 1100.82 776.766C1086.24 796.392 1072.68 815.989 1063.26 839.511M3418.83 1419.79C3418.83 1419.79 3421.74 1415.66 3422.66 1412.6C3431.94 1384.03 3440.2 1355.49 3450.51 1327.89C3455.15 1313.61 3460.82 1300.3 3465.49 1287.03C3469.23 1276.81 3467.16 1274.85 3457.1 1276.15C3444.02 1277.54 3429.87 1276.93 3416.76 1277.31C3404.65 1277.66 3404.68 1278.67 3407.02 1289.72C3419.33 1331.82 3422.6 1375.2 3418.83 1419.79ZM3239.22 1176.27C3213.74 1167.9 3188.38 1163.58 3162.21 1166.35C3156.16 1166.52 3146.08 1166.81 3146.28 1173.88C3146.48 1180.95 3156.54 1179.65 3162.59 1179.48C3187.78 1177.75 3213.02 1178.03 3238.21 1176.3" fill="black" fill-opacity="0.05"/>
</g>
<defs>
<clipPath id="clip0_60_370">
<rect width="961" height="1075" fill="white"/>
</clipPath>
</defs>
</svg>
