<svg width="68" height="67" viewBox="0 0 68 67" fill="none" xmlns="http://www.w3.org/2000/svg">
<path fill-rule="evenodd" clip-rule="evenodd" d="M0.84082 33.248C0.84082 14.9216 15.6973 0.0650635 34.0238 0.0650635C52.3502 0.0650635 67.2067 14.9216 67.2067 33.248C67.2067 51.5744 52.3502 66.431 34.0238 66.431C15.6973 66.431 0.84082 51.5744 0.84082 33.248ZM34.0238 16.6565C43.1491 16.6565 50.6152 24.1227 50.6152 33.248C50.6152 41.5437 44.6008 48.5951 36.3051 49.8395V38.0181H40.2456L41.0751 33.248H36.5125V30.1371C36.5125 28.8927 37.1347 27.6484 39.2086 27.6484H41.2825V23.5005C41.2825 23.5005 39.416 23.0857 37.5495 23.0857C33.8164 23.0857 31.3277 25.3671 31.3277 29.5149V33.248H27.1798V38.0181H31.3277V49.6321C23.4467 48.3877 17.4323 41.5437 17.4323 33.248C17.4323 24.1227 24.8985 16.6565 34.0238 16.6565Z" fill="black"/>
</svg>
