<svg width="51" height="51" viewBox="0 0 51 51" fill="none" xmlns="http://www.w3.org/2000/svg">
<path d="M26.2314 37.9517V39.1128L27.3798 38.9406C34.1208 37.9294 39.0127 32.1951 39.0127 25.4517C39.0127 18.0244 32.94 11.9517 25.5127 11.9517C18.0854 11.9517 12.0127 18.0244 12.0127 25.4517C12.0127 32.1964 16.9046 37.7693 23.3255 38.7832L24.4814 38.9657V37.7954V29.0454V28.0454H23.4814H21.3564V26.4517H23.4814H24.4814V25.4517V22.6392C24.4814 21.2783 24.8855 20.3446 25.4776 19.7525C26.0711 19.159 26.9666 18.7954 28.1689 18.7954C28.8049 18.7954 29.4551 18.8667 29.956 18.9409C29.9645 18.9421 29.973 18.9434 29.9814 18.9447V20.2329H29.4189C28.4311 20.2329 27.6191 20.5367 27.07 21.1545C26.5411 21.7495 26.3877 22.4893 26.3877 23.1079V25.4517V26.4517H27.3877H29.6363L29.3591 28.0454H27.2314H26.2314V29.0454V37.9517ZM1.5127 25.4517C1.5127 12.1968 12.2579 1.45166 25.5127 1.45166C38.7675 1.45166 49.5127 12.1968 49.5127 25.4517C49.5127 38.7065 38.7675 49.4517 25.5127 49.4517C12.2579 49.4517 1.5127 38.7065 1.5127 25.4517Z" stroke="#080807" stroke-width="2"/>
</svg>
