<svg width="1920" height="495" viewBox="0 0 1920 495" fill="none" xmlns="http://www.w3.org/2000/svg">
<g clip-path="url(#clip0_60_366)">
<path d="M1414.94 354.943C1414.94 354.943 1422.03 355.75 1425.05 355.663C1461.36 354.62 1497.67 353.576 1533.95 351.522C1535.97 351.464 1537.99 351.406 1540 351.348C1584.38 350.072 1628.76 348.796 1673.14 347.521C1675.16 347.463 1677.18 347.405 1679.19 347.347C1684.24 347.202 1690.29 347.028 1693.49 353.001C1695.65 357.993 1691.73 362.15 1688.82 366.277C1663.5 398.343 1636.13 429.457 1610.83 462.534C1606.94 467.7 1601.93 468.855 1596.89 469C1561.59 470.015 1525.33 473.079 1490.06 475.104C1443.66 476.437 1397.33 479.791 1350.93 481.125C1338.83 481.473 1329.87 485.774 1323.12 497.088C1256.55 604.137 1189.98 711.185 1128.56 822.129C1107.44 860.14 1086.36 899.16 1071.38 940.027C1067.58 948.224 1064.82 957.401 1064.07 966.521C1062.43 979.71 1067.59 983.605 1079.57 979.217C1088.57 975.926 1096.49 970.644 1103.4 965.39C1124.18 950.64 1141.84 932.947 1160.48 914.215C1232.08 841.393 1296.41 761.704 1359.71 681.033C1394.74 635.546 1434.93 593.954 1484.58 565.232C1517.34 546.094 1552.32 533.968 1590.62 531.857C1614.83 531.161 1639.15 534.505 1661.66 544.978C1706.68 565.924 1720.11 612.039 1715.19 651.606C1709.41 696.253 1690.31 734.205 1662.02 768.379C1603.48 838.803 1526.83 876.389 1435.14 882.057C1435.14 882.057 1434.13 882.086 1433.12 882.115C1403.87 882.956 1400.96 887.083 1399.81 917.444C1398.81 952.854 1418.61 974.525 1454.06 978.561C1487.49 982.654 1517.52 973.704 1546.36 958.722C1582.18 940.507 1613.79 916.347 1642.31 890.254C1682.65 853.713 1719.9 815.238 1752.97 771.829C1758.82 764.585 1763.66 757.369 1768.47 749.144C1796.39 701.84 1828.48 659.47 1868.79 621.918C1906.16 587.484 1947.73 558.994 1996.78 544.442C2023.81 536.589 2050.92 531.766 2080.32 535.975C2114.79 541.05 2132.4 556.718 2140.42 589.848C2140.5 592.878 2140.56 594.898 2141.6 595.879C2150.47 588.548 2159.38 582.226 2167.21 573.914C2179.98 561.416 2193.95 555.96 2211.1 555.467C2232.28 554.858 2253.46 554.249 2273.84 560.739C2277.9 561.634 2280.96 562.557 2285.05 564.461C2301.36 570.057 2302.48 574.069 2291.77 587.519C2239.19 654.739 2194.85 727.788 2158.71 804.646C2141.54 839.51 2127.42 875.298 2119.42 912.931C2116.74 925.139 2117.09 937.26 2117.47 950.391C2118.02 969.583 2136.7 987.242 2160.53 973.415C2182.37 960.656 2200.03 942.963 2215.65 924.318C2281.1 848.64 2338.29 766.123 2390.32 679.711C2450.03 579.936 2510.82 482.152 2573.62 384.31C2612.25 323.556 2652.9 262.744 2691.5 200.98C2700.2 187.588 2709.05 179.246 2726.22 179.763C2744.38 179.241 2762.53 178.719 2781.7 178.169C2796.83 177.734 2811.95 177.299 2827.08 176.864C2832.13 176.719 2837.17 176.574 2841.2 176.458C2850.34 178.217 2852.5 183.209 2848.73 192.416C2847.81 195.475 2845.85 197.553 2843.92 200.642C2773.45 312.857 2702.99 425.071 2634.6 539.248C2564.28 656.514 2493.94 772.768 2432.84 894.823C2421.4 918.403 2409.97 941.983 2403.6 966.427C2401.79 973.556 2397.99 981.752 2404.21 987.639C2411.48 994.506 2420.47 991.215 2428.48 988.963C2439.49 985.614 2450.41 979.235 2460.32 972.884C2488.07 954.901 2513.74 934.956 2539.35 912.99C2611.21 849.259 2677.88 780.622 2742.47 710.024C2768.89 680.959 2794.31 651.923 2820.75 623.868C2837.38 605.194 2848.84 582.624 2862.38 562.017C2875.92 541.409 2889.43 519.792 2901.96 499.213C2899.77 493.211 2894.79 495.376 2891.76 495.463C2857.53 498.469 2824.18 497.406 2789.92 499.401C2783.87 499.575 2776.81 499.778 2770.76 499.952C2754.53 497.386 2747.04 482.438 2754.7 468.065C2766.16 445.495 2779.67 423.878 2792.18 402.289C2797.97 393.025 2806.99 390.743 2817.07 390.454C2863.47 389.12 2908.83 386.805 2955.31 388.501C2970.44 388.066 2979.4 383.765 2988.1 370.373C3030.62 304.453 3075.19 239.484 3117.74 174.574C3124.51 164.27 3133.44 158.959 3146.58 159.592C3181.94 160.597 3217.27 160.592 3251.65 162.637C3265.83 164.251 3269 169.214 3261.28 181.567C3247.8 204.195 3234.32 226.822 3219.83 249.479C3195.72 288.587 3170.6 327.723 3146.48 366.831C3143.57 370.958 3140.66 375.086 3140.81 380.136C3143.98 385.099 3149.97 382.905 3154.01 382.789C3185.28 381.89 3216.54 380.992 3247.81 380.093C3252.85 379.948 3257.9 379.803 3261.93 379.687C3276.11 381.301 3281.44 391.257 3274.76 404.591C3269.03 415.876 3261.28 427.218 3254.54 438.532C3247.8 449.846 3241.03 460.15 3234.28 471.463C3229.5 480.699 3221.52 483.961 3211.44 484.251C3182.19 485.092 3152.94 485.933 3123.69 486.774C3108.56 487.209 3093.46 488.654 3078.3 488.079C3069.22 488.34 3064.32 493.535 3060.46 499.711C3043.12 528.515 3024.77 557.348 3007.46 587.162C2951.57 679.751 2895.65 771.329 2846.95 867.755C2831.62 896.501 2817.3 925.218 2807.11 956.849C2804.32 965.017 2801.49 972.174 2801.73 980.255C2802.04 991.366 2806.17 994.28 2816.17 990.96C2829.13 985.533 2841.03 978.114 2852.9 969.686C2878.58 949.74 2903.21 928.814 2926.78 905.896C3008.34 828.744 3085.73 746.658 3162.08 663.59C3175.79 649.043 3183.37 631.64 3192.96 614.179C3262.16 492.902 3332.36 371.597 3401.55 250.32C3428.46 203.045 3456.37 155.741 3477.11 104.599C3481.83 93.3432 3489.76 88.0608 3501.83 86.7028C3536.07 83.6968 3569.35 82.74 3603.82 87.8146C3606.84 87.7276 3609.9 88.6507 3612.95 89.5738C3627.22 94.2183 3631.49 102.183 3628.87 116.411C3627.05 123.539 3623.22 130.726 3620.37 136.873C3576.44 224.064 3527.38 308.368 3478.33 392.673C3418.7 495.478 3359.06 598.284 3299.41 700.079C3298.45 702.128 3296.52 705.216 3293.64 710.353C3301.6 706.081 3304.48 700.944 3308.4 696.788C3346.48 652.224 3387.68 610.603 3437.24 578.851C3461.01 563.004 3486.92 551.139 3515.99 544.238C3530.03 540.802 3545.13 539.357 3559.31 540.971C3587.64 543.189 3609.22 556.721 3622.08 582.635C3632.84 605.577 3634.54 629.79 3627.17 654.264C3618.82 679.776 3607.41 704.366 3593.96 728.004C3570.91 769.103 3547.87 810.202 3524.82 851.301C3513.3 871.85 3501.78 892.4 3494.32 913.843C3491.49 921.001 3486.71 930.236 3493.98 937.104C3501.24 943.971 3510.2 939.67 3518.18 936.408C3544.09 924.543 3565.78 906.734 3587.45 887.915C3646.55 836.681 3701.43 779.503 3753.26 721.403C3766.95 705.845 3780.63 690.288 3795.35 675.712C3821.83 648.668 3839.06 615.823 3858.33 583.931C3863.14 575.706 3867.95 567.48 3872.73 558.244C3878.52 548.98 3887.46 543.668 3898.55 543.349C3919.73 542.74 3940.91 542.132 3961.23 546.602C3965.26 546.486 3968.35 548.419 3972.41 549.313C3995.84 556.727 4003.31 570.665 3997.93 594.071C3992.54 617.476 3981.08 640.046 3969.58 661.606C3937.06 724.206 3898.37 782.94 3863.8 844.588C3851.33 867.187 3839.87 889.756 3828.4 912.326C3822.67 923.611 3817.95 934.867 3817.31 948.027C3816.68 961.187 3820.86 966.121 3833.98 965.744C3846.08 965.396 3856.05 961.066 3865.96 954.715C3890.8 940.86 3912.44 921.03 3932.03 900.249C3966.34 864.892 3996.51 825.61 4025.66 786.357C4055.77 745.055 4083.83 702.801 4109.81 658.585C4130 623.634 4152.24 589.634 4179.61 558.52C4187.42 549.198 4196.3 541.866 4205.17 534.535C4229.86 515.629 4256.09 514.875 4283.67 526.213C4302.05 533.771 4316.58 547.506 4328.14 563.349C4335.46 572.236 4334.6 577.316 4326.82 587.648C4307.4 614.49 4289.05 643.323 4270.67 671.146C4229.16 737.038 4189.72 804.892 4153.31 872.658C4112.09 948.651 4072.92 1025.6 4036.77 1102.45C4028.21 1120.89 4028.24 1121.9 4049.42 1121.3C4110.89 1117.51 4171.35 1113.75 4232.84 1110.97C4275.18 1108.74 4317.51 1106.51 4358.83 1104.31C4406.21 1101.94 4453.56 1098.56 4500.93 1096.19C4544.28 1093.93 4588.63 1091.64 4631.97 1089.39C4648.1 1088.92 4664.24 1088.46 4680.35 1086.98C4684.39 1086.87 4689.43 1086.72 4693.46 1086.61C4706.63 1088.25 4711.94 1097.2 4707.24 1109.46C4706.32 1112.52 4704.39 1115.61 4702.43 1117.69C4686.07 1145.45 4668.67 1172.24 4652.31 1200C4645.59 1212.32 4636.63 1216.63 4622.51 1217.03C4555.94 1218.95 4488.37 1220.89 4421.8 1222.8C4358.26 1224.63 4294.71 1226.46 4230.16 1228.31C4165.61 1230.17 4100.05 1232.05 4035.5 1233.91C4020.37 1234.34 4005.27 1235.79 3990.11 1235.21C3979.02 1235.53 3974.09 1239.72 3969.34 1249.96C3947.59 1301.13 3926.85 1352.27 3907.12 1403.39C3880.89 1473.89 3856.69 1545.35 3837.58 1617.68C3832.16 1640.07 3819.31 1649.54 3796.03 1647.18C3763.63 1644.06 3735.02 1631.75 3711.12 1608.17C3698.64 1595.39 3694.2 1581.36 3697.74 1564.08C3702.98 1535.62 3708.22 1507.16 3712.48 1479.75C3720.13 1429.99 3724.79 1381.33 3724.35 1330.8C3723.68 1307.57 3722 1284.37 3717.3 1261.25C3714.82 1245.15 3712.74 1243.19 3695.6 1243.68C3634.07 1245.45 3573.55 1247.19 3512.03 1248.96C3500.93 1249.27 3488.83 1249.62 3477.73 1249.94C3464.62 1250.32 3456.41 1245.5 3448.08 1236.64C3429.25 1213.93 3418.44 1188.97 3413.59 1160.8C3412.38 1153.76 3411.17 1146.72 3410.97 1139.65C3409.49 1123.52 3416.24 1112.2 3431.19 1105.71C3450.12 1097.08 3470.18 1092.46 3490.29 1089.86C3551.61 1081.02 3611.38 1088.4 3667.64 1114.07C3678.88 1118.81 3690.15 1124.55 3700.47 1132.34C3705.63 1136.23 3711.74 1138.08 3718.8 1137.88C3770.21 1135.39 3822.63 1132.87 3874.07 1131.39C3883.15 1131.13 3889.17 1129.95 3892.94 1120.74C3914.66 1068.56 3936.38 1016.38 3957.08 964.227C3957.03 962.207 3958.99 960.129 3956.91 958.166C3951.93 960.332 3950.02 964.43 3947.09 967.547C3920.67 996.612 3892.2 1024.72 3860.56 1047.87C3856.62 1051.02 3852.64 1053.16 3848.69 1056.3C3800.26 1092.07 3749.65 1087.46 3699.42 1060.59C3663.53 1041.41 3648.37 1005.45 3657.32 965.768C3661.76 944.411 3671.32 925.94 3678.84 906.517C3680.74 902.418 3683.68 899.301 3682.49 893.27C3670.74 905.739 3659.96 917.168 3649.22 929.608C3616.95 965.918 3580.5 997.293 3540.94 1025.72C3513.25 1045.73 3484.41 1060.71 3451.38 1070.76C3431.36 1076.39 3410.23 1079.02 3388.97 1076.6C3348.42 1070.68 3323.57 1049.16 3326.04 994.499C3328.11 961.079 3338.3 929.448 3349.53 898.798C3370.18 844.626 3396.94 792.3 3423.71 739.975C3437.1 714.317 3450.47 687.649 3460.81 661.068C3462.68 655.96 3467.55 649.754 3462.33 643.839C3456.1 637.952 3450.23 644.187 3444.23 646.381C3430.26 651.837 3419.45 662.257 3408.65 672.677C3378.16 700.847 3353.88 733.895 3329.62 767.952C3270.45 851.537 3219.46 938.93 3170.55 1028.29C3163.83 1040.61 3157.09 1051.92 3151.39 1064.22C3147.59 1072.41 3141.62 1075.62 3132.49 1073.86C3114.25 1071.35 3096.98 1067.8 3080.61 1060.19C3031.5 1037.34 3016.82 983.17 3027.79 943.429C3035.11 916.935 3046.48 891.335 3057.89 866.745C3059.76 861.637 3062.67 857.51 3062.47 850.439C3055.64 858.723 3047.8 867.035 3040.98 875.319C2989.18 934.43 2935.33 992.589 2872.11 1040.91C2850.39 1057.71 2826.59 1072.54 2800.62 1082.39C2751.7 1100.98 2703.8 1085.17 2677.27 1040.44C2654.96 1001.66 2645.73 961.489 2663.65 917.505C2667.45 909.308 2670.21 900.13 2673.96 889.913C2665.92 891.156 2663.04 896.293 2659.12 900.449C2626.73 932.718 2594.38 965.998 2559.92 996.305C2531.34 1020.38 2501.72 1043.47 2469.96 1062.58C2455.07 1071.09 2439.13 1078.63 2423.17 1085.15C2355.34 1113.39 2269.31 1070.37 2252.89 990.978C2252.75 985.928 2252.57 979.867 2247.39 974.962C2235.6 986.421 2222.81 997.908 2211.02 1009.37C2190.4 1029.17 2167.69 1047.01 2141.82 1059.88C2116.95 1072.73 2090.93 1080.55 2062.51 1075.3C2026.98 1068.24 2003.2 1048.7 1993.11 1013.61C1989.79 1003.6 1988.46 992.514 1986.12 981.462C1981.05 980.596 1980.16 984.666 1978.23 987.754C1954.75 1013.7 1929.16 1036.68 1898.36 1053.74C1861.62 1075.01 1822.55 1085.23 1779.9 1076.35C1742.32 1068.33 1718.48 1046.78 1708.33 1009.67C1701.58 985.598 1700.85 960.346 1703.18 936.017C1703.04 930.967 1705.95 926.84 1702.72 919.856C1695.89 928.14 1689.03 935.413 1682.18 942.686C1642.1 988.319 1596.78 1027.03 1543.1 1055.86C1500.37 1079.33 1455.3 1091.75 1405.79 1090.14C1381.55 1089.82 1358.21 1085.44 1335.73 1075.98C1299.99 1061.84 1277.05 1036.22 1266.89 999.105C1259.02 971.026 1258.21 942.744 1261.4 913.335C1261.31 910.305 1264.25 907.188 1261.11 903.235C1243.54 923.958 1226.94 943.643 1209.34 963.356C1176.09 1000.7 1141.8 1037.07 1102.3 1067.52C1089.45 1076.99 1076.57 1085.45 1062.65 1092.93C1022.92 1115.3 966.894 1097.7 943.775 1066.02C917.486 1029.37 904.221 989.313 919.052 943.395C928.325 914.823 940.682 888.184 953.039 861.545C1002.64 761.05 1060.49 666.384 1119.31 570.678C1132.79 548.051 1147.28 525.394 1161.77 502.737C1163.7 499.649 1166.64 496.532 1166.53 492.492C1149.38 492.985 1133.16 490.418 1116.07 492.931C1087.88 495.763 1059.61 495.565 1031.37 496.377C988.003 497.624 943.681 500.92 900.253 500.146C882.098 500.668 866.794 495.043 855.322 482.231C826.181 451.73 807.96 414.85 798.729 374.679C795.326 361.635 798.033 350.438 805.782 339.095C827.013 305.125 850.349 274.126 873.656 242.118C933.896 160.525 996.183 79.883 1053.31 -4.65384C1062.04 -17.0357 1070.77 -29.4176 1076.38 -44.7427C1069.27 -46.5598 1064.28 -44.3947 1058.29 -42.2006C1003.25 -25.4547 950.373 -3.71648 897.526 19.0318C769.846 72.2369 644.328 130.434 520.973 193.624C489.133 209.703 458.36 227.773 426.548 244.862C421.593 248.037 416.637 251.213 411.681 254.388C406.725 257.563 405.832 261.632 409.003 266.596C413.241 273.55 418.487 280.476 422.696 286.42C475.246 358.706 529.756 428.914 584.295 500.131C662.961 603.004 743.586 703.799 816.346 811.897C829.001 830.74 840.647 849.613 851.285 868.514C862.961 888.397 866.567 908.511 861.154 930.907C848.456 980.807 822.356 1020.98 782.912 1053.45C773.058 1061.83 760.033 1065.23 746.921 1065.61C680.323 1066.51 613.697 1066.41 547.128 1068.32C468.456 1070.58 390.792 1072.81 312.062 1073.06C238.433 1075.17 163.767 1076.31 90.1378 1078.42C41.7242 1079.82 -6.74744 1079.19 -56.1406 1081.62C-69.2526 1082 -72.3656 1079.05 -68.6505 1067.83C-54.7408 1024.97 -41.8688 981.129 -23.8956 939.165C-18.2504 924.85 -10.3267 919.567 5.8402 920.113C54.3118 920.742 101.659 917.359 150.072 915.967C197.477 914.604 243.932 915.291 291.337 913.928C341.767 912.478 392.256 913.048 442.687 911.599C514.299 909.54 586.919 907.453 658.56 906.404C665.62 906.201 672.681 905.998 679.712 904.785C687.752 903.543 688.702 901.494 683.456 894.568C671.897 878.726 659.358 863.923 647.798 848.08C527.249 692.833 405.719 538.625 290.126 380.202C280.671 367.332 272.195 353.423 261.732 340.582C246.022 320.816 240.369 299.749 242.698 275.42C244.794 243.011 251.963 211.467 265.213 180.758C272.759 162.345 286.502 148.808 304.396 139.196C377.959 99.6772 452.589 62.1499 527.277 26.6428C668.671 -41.1092 810.152 -105.831 958.005 -159.616C1001.95 -176.043 1045.95 -190.45 1091.11 -199.835C1093.12 -199.893 1095.14 -199.951 1097.13 -201.019C1117.21 -204.629 1134.5 -200.072 1150.07 -185.356C1182.24 -154.942 1210.46 -121.382 1226.81 -79.3942C1240.93 -44.4185 1237.8 -12.9902 1215.5 18.989C1135.96 131.465 1056.39 242.93 976.848 355.406C975.897 357.455 973.909 358.524 972.959 360.573C968.119 367.788 969.215 370.789 978.292 370.528C999.473 369.919 1020.65 369.311 1041.83 368.702C1046.88 368.557 1051.92 368.412 1055.96 368.296C1100.33 367.02 1144.71 365.744 1189.09 364.468C1205.23 364.004 1221.34 362.53 1237.51 363.077C1249.61 362.729 1257.59 359.466 1264.36 349.163C1302.07 291.468 1340.79 233.744 1379.51 176.02C1385.3 166.755 1392.13 158.472 1397.92 149.207C1402.76 141.991 1409.7 137.748 1419.76 136.448C1445.92 133.674 1473.16 132.891 1499.44 134.157C1506.5 133.955 1514.63 135.743 1521.74 137.56C1535.98 141.194 1539.24 149.188 1533.54 161.483C1527.83 173.778 1521.12 186.102 1514.38 197.415C1486.47 244.72 1456.54 292.082 1427.58 338.405C1424.7 343.542 1420.78 347.699 1419 355.837M1852.63 937.786C1852.63 937.786 1852.89 946.877 1853.01 950.917C1856.64 972.042 1873.04 980.669 1892.98 972.008C1903.96 967.649 1912.84 960.317 1920.67 952.005C1963.83 908.306 1994.63 855.864 2021.33 801.518C2033.75 776.9 2043.11 751.358 2056.53 726.71C2066.12 709.249 2072.66 690.865 2078.19 672.509C2080.95 663.332 2082.68 653.173 2083.43 644.053C2082.99 628.902 2076.77 623.016 2061.69 625.471C2052.62 625.732 2043.68 631.043 2035.73 635.315C2017.87 645.938 2001.1 659.562 1987.41 675.119C1934.57 733.249 1894.1 800.121 1866.94 873.688C1859.45 894.121 1853.98 914.497 1852.63 937.786ZM1439.01 806.128C1503.16 790.131 1551.65 756.388 1582.24 696.876C1585.09 690.728 1586.91 683.6 1587.71 676.5C1587.3 662.359 1580.04 655.492 1566.04 659.938C1554.02 663.316 1545.15 670.647 1536.3 678.989C1514.66 698.818 1495.07 719.6 1477.58 743.353C1463.01 762.98 1449.44 782.577 1440.02 806.099M3795.59 1386.37C3795.59 1386.37 3798.5 1382.25 3799.43 1379.19C3808.7 1350.62 3816.96 1322.07 3827.27 1294.48C3831.91 1280.2 3837.59 1266.89 3842.25 1253.62C3846 1243.4 3843.92 1241.44 3833.86 1242.74C3820.78 1244.12 3806.63 1243.52 3793.52 1243.9C3781.41 1244.24 3781.44 1245.25 3783.78 1256.31C3796.09 1298.41 3799.36 1341.79 3795.59 1386.37ZM3615.98 1142.85C3590.5 1134.49 3565.14 1130.16 3538.98 1132.94C3532.92 1133.11 3522.84 1133.4 3523.04 1140.47C3523.24 1147.54 3533.3 1146.24 3539.35 1146.07C3564.54 1144.33 3589.78 1144.62 3614.97 1142.88" fill="black" fill-opacity="0.05"/>
</g>
<defs>
<clipPath id="clip0_60_366">
<rect width="1920" height="495" fill="white"/>
</clipPath>
</defs>
</svg>
