<svg width="961" height="775" viewBox="0 0 961 775" fill="none" xmlns="http://www.w3.org/2000/svg">
<g clip-path="url(#clip0_60_362)">
<path d="M-165.003 88.3554C-165.003 88.3554 -157.913 89.1624 -154.888 89.0755C-118.577 88.0316 -82.2673 86.9879 -45.9861 84.934C-43.9689 84.876 -41.9516 84.818 -39.9344 84.76C4.44473 83.4842 48.8239 82.2084 93.2029 80.9326C95.2201 80.8746 97.2373 80.8166 99.2546 80.7587C104.298 80.6137 110.349 80.4396 113.55 86.4131C115.712 91.4055 111.794 95.5618 108.884 99.689C83.5599 131.755 56.1898 162.869 30.8949 195.946C27.0057 201.112 21.9919 202.267 16.9488 202.412C-18.3528 203.427 -54.6049 206.491 -89.8775 208.516C-136.274 209.849 -182.612 213.203 -229.008 214.537C-241.112 214.885 -250.073 219.186 -256.814 230.5C-323.389 337.549 -389.963 444.597 -451.379 555.541C-472.494 593.552 -493.58 632.572 -508.557 673.439C-512.359 681.636 -515.123 690.813 -515.871 699.933C-517.51 713.122 -512.351 717.017 -500.364 712.629C-491.373 709.338 -483.45 704.056 -476.534 698.802C-455.76 684.052 -438.098 666.359 -419.457 647.627C-347.861 574.805 -283.528 495.116 -220.233 414.445C-185.201 368.958 -145.009 327.366 -95.362 298.644C-62.6003 279.506 -27.6182 267.381 10.6801 265.269C34.8869 264.573 59.2096 267.917 81.7186 278.39C126.737 299.336 140.176 345.451 135.256 385.018C129.474 429.665 110.376 467.617 82.0841 501.791C23.5418 572.215 -53.1054 609.801 -144.802 615.469C-144.802 615.469 -145.811 615.498 -146.82 615.527C-176.069 616.368 -178.979 620.496 -180.125 650.856C-181.126 686.266 -161.323 707.937 -125.877 711.973C-92.4472 716.066 -62.4212 707.116 -33.5779 692.134C2.23869 673.919 33.8467 649.759 62.3705 623.667C102.707 587.125 139.96 548.651 173.034 505.242C178.882 497.997 183.722 490.782 188.533 482.556C216.447 435.252 248.541 392.882 288.849 355.33C326.218 320.896 367.796 292.406 416.841 277.854C443.87 270.001 470.986 265.178 500.381 269.387C534.848 274.462 552.46 290.13 560.478 323.26C560.565 326.29 560.623 328.31 561.661 329.291C570.535 321.96 579.438 315.638 587.275 307.326C600.039 294.828 614.014 289.372 631.161 288.879C652.342 288.27 673.523 287.661 693.898 294.152C697.962 295.046 701.017 295.969 705.109 297.873C721.421 303.469 722.546 307.481 711.829 320.931C659.251 388.151 614.916 461.2 578.767 538.058C561.599 572.922 547.486 608.71 539.483 646.344C536.805 658.551 537.154 670.672 537.531 683.803C538.083 702.995 556.761 720.654 580.59 706.827C602.431 694.069 620.093 676.375 635.708 657.73C701.165 582.052 758.35 499.535 810.377 413.123C870.094 313.348 930.879 215.564 993.68 117.722C1032.31 56.9683 1072.96 -3.84391 1111.56 -65.6082C1120.26 -79.0001 1129.11 -87.3417 1146.28 -86.8246C1164.44 -87.3465 1182.59 -87.8684 1201.76 -88.4193C1216.89 -88.8542 1232.02 -89.2892 1247.15 -89.7241C1252.19 -89.8691 1257.23 -90.0141 1261.27 -90.13C1270.4 -88.3708 1272.56 -83.3784 1268.79 -74.1717C1267.87 -71.1125 1265.91 -69.0344 1263.98 -65.9462C1193.52 46.2686 1123.05 158.483 1054.66 272.66C984.344 389.926 913.997 506.181 852.901 628.235C841.465 651.815 830.03 675.395 823.666 699.839C821.852 706.968 818.05 715.164 824.276 721.051C831.54 727.918 840.53 724.627 848.541 722.375C859.549 719.026 870.469 712.647 880.381 706.296C908.129 688.313 933.801 668.368 959.415 646.402C1031.27 582.671 1097.94 514.035 1162.54 443.436C1188.96 414.371 1214.37 385.335 1240.82 357.28C1257.44 338.606 1268.9 316.036 1282.44 295.429C1295.98 274.821 1309.49 253.204 1322.03 232.625C1319.83 226.623 1314.85 228.788 1311.82 228.875C1277.59 231.881 1244.25 230.818 1209.98 232.814C1203.93 232.988 1196.87 233.191 1190.82 233.365C1174.59 230.798 1167.1 215.85 1174.76 201.477C1186.23 178.907 1199.74 157.29 1212.24 135.701C1218.03 126.437 1227.05 124.156 1237.13 123.866C1283.53 122.532 1328.89 120.217 1375.37 121.913C1390.5 121.479 1399.46 117.177 1408.16 103.785C1450.68 37.8648 1495.25 -27.1037 1537.8 -92.0142C1544.57 -102.318 1553.5 -107.629 1566.64 -106.996C1602 -105.991 1637.33 -105.996 1671.71 -103.951C1685.89 -102.337 1689.06 -97.3736 1681.34 -85.0208C1667.86 -62.3932 1654.38 -39.7655 1639.89 -17.109C1615.78 21.9987 1590.66 61.1355 1566.55 100.243C1563.64 104.371 1560.73 108.498 1560.87 113.548C1564.04 118.512 1570.04 116.317 1574.07 116.201C1605.34 115.303 1636.6 114.404 1667.87 113.505C1672.91 113.36 1677.96 113.215 1681.99 113.099C1696.17 114.713 1701.5 124.669 1694.82 138.003C1689.09 149.288 1681.34 160.63 1674.6 171.944C1667.86 183.258 1661.09 193.562 1654.35 204.876C1649.56 214.111 1641.58 217.373 1631.5 217.663C1602.25 218.504 1573 219.345 1543.75 220.186C1528.62 220.621 1513.52 222.066 1498.36 221.491C1489.28 221.752 1484.38 226.947 1480.52 233.123C1463.18 261.927 1444.83 290.761 1427.52 320.575C1371.63 413.163 1315.72 504.741 1267.01 601.167C1251.68 629.913 1237.37 658.63 1227.17 690.262C1224.38 698.429 1221.55 705.587 1221.79 713.667C1222.11 724.778 1226.23 727.692 1236.23 724.372C1249.19 718.945 1261.09 711.526 1272.96 703.098C1298.64 683.153 1323.27 662.226 1346.84 639.309C1428.41 562.156 1505.79 480.07 1582.14 397.002C1595.86 382.455 1603.43 365.052 1613.02 347.591C1682.22 226.314 1752.42 105.009 1821.61 -16.2677C1848.52 -63.543 1876.43 -110.847 1897.17 -161.989C1901.9 -173.245 1909.82 -178.527 1921.89 -179.885C1956.13 -182.891 1989.41 -183.848 2023.88 -178.773C2026.91 -178.86 2029.96 -177.937 2033.02 -177.014C2047.28 -172.37 2051.55 -164.405 2048.93 -150.177C2047.12 -143.049 2043.28 -135.862 2040.43 -129.715C1996.5 -42.5244 1947.45 41.7805 1898.39 126.085C1838.76 228.891 1779.13 331.696 1719.47 433.491C1718.52 435.54 1716.59 438.628 1713.71 443.766C1721.66 439.493 1724.54 434.356 1728.46 430.2C1766.54 385.636 1807.75 344.015 1857.3 312.263C1881.08 296.416 1906.98 284.551 1936.06 277.65C1950.09 274.214 1965.19 272.769 1979.37 274.383C2007.7 276.601 2029.28 290.133 2042.14 316.047C2052.9 338.989 2054.6 363.202 2047.23 387.676C2038.88 413.189 2027.47 437.778 2014.02 461.416C1990.97 502.515 1967.93 543.614 1944.88 584.713C1933.36 605.262 1921.84 625.812 1914.38 647.255C1911.56 654.413 1906.77 663.648 1914.04 670.516C1921.3 677.383 1930.26 673.082 1938.25 669.82C1964.15 657.955 1985.85 640.146 2007.51 621.327C2066.61 570.093 2121.49 512.916 2173.32 454.815C2187.01 439.258 2200.69 423.7 2215.42 409.124C2241.89 382.08 2259.12 349.235 2278.39 317.343C2283.2 309.118 2288.01 300.892 2292.79 291.656C2298.59 282.392 2307.52 277.08 2318.61 276.761C2339.79 276.153 2360.97 275.544 2381.29 280.014C2385.33 279.898 2388.41 281.831 2392.47 282.725C2415.9 290.139 2423.37 304.077 2417.99 327.483C2412.6 350.889 2401.14 373.458 2389.64 395.018C2357.12 457.618 2318.43 516.352 2283.87 578.001C2271.39 600.599 2259.93 623.169 2248.46 645.738C2242.73 657.023 2238.01 668.279 2237.38 681.439C2236.74 694.599 2240.92 699.533 2254.04 699.156C2266.14 698.808 2276.11 694.478 2286.02 688.128C2310.86 674.272 2332.5 654.442 2352.09 633.661C2386.4 598.304 2416.57 559.022 2445.72 519.769C2475.83 478.467 2503.89 436.214 2529.87 391.997C2550.06 357.046 2572.31 323.047 2599.68 291.932C2607.48 282.61 2616.36 275.278 2625.23 267.947C2649.92 249.041 2676.15 248.287 2703.73 259.625C2722.12 267.183 2736.64 280.919 2748.2 296.761C2755.52 305.649 2754.66 310.728 2746.88 321.061C2727.47 347.902 2709.11 376.736 2690.73 404.558C2649.22 470.45 2609.79 538.304 2573.37 606.071C2532.15 682.063 2492.98 759.007 2456.83 835.865C2448.27 854.307 2448.3 855.317 2469.48 854.708C2530.95 850.919 2591.41 847.159 2652.91 844.381C2695.24 842.153 2737.57 839.925 2778.9 837.726C2826.27 835.353 2873.62 831.97 2920.99 829.598C2964.34 827.341 3008.69 825.055 3052.03 822.798C3068.17 822.334 3084.3 821.87 3100.41 820.396C3104.45 820.28 3109.49 820.135 3113.52 820.019C3126.69 821.662 3132 830.608 3127.3 842.874C3126.38 845.933 3124.45 849.021 3122.49 851.1C3106.13 878.864 3088.73 905.648 3072.37 933.413C3065.66 945.737 3056.7 950.038 3042.57 950.444C2976.01 952.358 2908.43 954.301 2841.86 956.214C2778.32 958.041 2714.77 959.868 2650.22 961.723C2585.67 963.579 2520.11 965.464 2455.56 967.319C2440.43 967.754 2425.33 969.199 2410.17 968.624C2399.08 968.943 2394.15 973.128 2389.4 983.374C2367.65 1034.54 2346.91 1085.69 2327.18 1136.8C2300.95 1207.31 2276.76 1278.77 2257.64 1351.09C2252.22 1373.49 2239.37 1382.95 2216.09 1380.59C2183.7 1377.48 2155.08 1365.16 2131.18 1341.58C2118.7 1328.8 2114.26 1314.77 2117.8 1297.49C2123.04 1269.03 2128.28 1240.58 2132.54 1213.16C2140.19 1163.4 2144.85 1114.75 2144.41 1064.21C2143.74 1040.98 2142.06 1017.78 2137.36 994.663C2134.88 978.56 2132.8 976.598 2115.66 977.091C2054.13 978.86 1993.61 980.599 1932.09 982.368C1920.99 982.687 1908.89 983.035 1897.8 983.354C1884.68 983.731 1876.47 978.912 1868.14 970.054C1849.32 947.344 1838.5 922.382 1833.66 894.216C1832.44 887.174 1831.23 880.133 1831.03 873.062C1829.56 856.93 1836.3 845.616 1851.25 839.121C1870.18 830.489 1890.24 825.869 1910.35 823.269C1971.68 814.43 2031.45 821.81 2087.7 847.487C2098.94 852.219 2110.21 857.96 2120.53 865.751C2125.69 869.646 2131.8 871.492 2138.86 871.289C2190.27 868.8 2242.69 866.282 2294.13 864.804C2303.21 864.543 2309.23 863.359 2313 854.152C2334.72 801.971 2356.44 749.791 2377.15 697.639C2377.09 695.619 2379.05 693.541 2376.97 691.579C2371.99 693.744 2370.09 697.842 2367.15 700.959C2340.73 730.024 2312.26 758.137 2280.62 781.286C2276.68 784.433 2272.7 786.569 2268.75 789.715C2220.32 825.478 2169.71 820.868 2119.48 794.006C2083.6 774.82 2068.43 738.863 2077.38 699.18C2081.82 677.823 2091.38 659.352 2098.9 639.929C2100.8 635.83 2103.74 632.713 2102.55 626.682C2090.8 639.151 2080.02 650.58 2069.28 663.02C2037.01 699.33 2000.56 730.705 1961 759.137C1933.31 779.14 1904.47 794.122 1871.45 804.169C1851.42 809.8 1830.3 812.429 1809.03 810.007C1768.48 804.097 1743.63 782.571 1746.1 727.911C1748.17 694.491 1758.36 662.86 1769.6 632.21C1790.25 578.038 1817.01 525.712 1843.77 473.387C1857.16 447.729 1870.53 421.061 1880.87 394.48C1882.74 389.372 1887.61 383.166 1882.39 377.251C1876.16 371.364 1870.29 377.599 1864.29 379.793C1850.32 385.249 1839.51 395.669 1828.71 406.089C1798.23 434.26 1773.94 467.307 1749.68 501.364C1690.51 584.949 1639.52 672.342 1590.61 761.697C1583.9 774.021 1577.15 785.335 1571.45 797.63C1567.65 805.826 1561.68 809.03 1552.55 807.271C1534.31 804.763 1517.04 801.216 1500.67 793.599C1451.56 770.749 1436.88 716.582 1447.85 676.841C1455.17 650.347 1466.55 624.747 1477.95 600.157C1479.82 595.049 1482.73 590.922 1482.53 583.851C1475.7 592.135 1467.87 600.448 1461.04 608.731C1409.24 667.842 1355.39 726.001 1292.17 774.32C1270.45 791.119 1246.65 805.956 1220.69 815.801C1171.76 834.393 1123.86 818.584 1097.34 773.856C1075.02 735.072 1065.79 694.901 1083.71 650.917C1087.51 642.72 1090.27 633.542 1094.02 623.326C1085.98 624.568 1083.1 629.705 1079.18 633.861C1046.8 666.131 1014.44 699.41 979.98 729.717C951.398 753.789 921.779 776.881 890.026 795.99C875.129 804.505 859.194 812.04 843.23 818.564C775.4 846.798 689.369 803.78 672.955 724.39C672.81 719.34 672.635 713.279 667.447 708.374C655.663 719.833 642.87 731.321 631.086 742.779C610.457 762.58 587.753 780.418 561.877 793.293C537.01 806.138 510.989 813.963 482.574 808.714C447.04 801.648 423.261 782.114 413.167 747.022C409.851 737.008 408.523 725.926 406.186 714.874C401.114 714.009 400.222 718.078 398.292 721.166C374.811 747.114 349.226 770.089 318.423 787.149C281.685 808.424 242.61 818.645 199.958 809.762C162.378 801.744 138.541 780.19 128.389 743.078C121.64 719.01 120.915 693.758 123.244 669.429C123.098 664.379 126.008 660.252 122.779 653.268C115.951 661.552 109.094 668.825 102.237 676.099C62.1611 721.731 16.8394 760.437 -36.8419 789.275C-79.5735 812.743 -124.642 825.159 -174.151 823.55C-198.387 823.235 -221.73 818.852 -244.21 809.389C-279.948 795.253 -302.892 769.629 -313.044 732.517C-320.917 704.438 -321.73 676.156 -318.538 646.748C-318.625 643.717 -315.686 640.6 -318.828 636.647C-336.403 657.37 -352.997 677.055 -370.601 696.768C-403.848 734.116 -438.134 770.484 -477.636 800.936C-490.487 810.404 -503.367 818.861 -517.284 826.338C-557.019 848.709 -613.044 831.112 -636.163 799.428C-662.453 762.78 -675.718 722.725 -660.886 676.807C-651.613 648.235 -639.256 621.596 -626.899 594.958C-577.297 494.462 -519.451 399.796 -460.626 304.09C-447.144 281.463 -432.654 258.806 -418.164 236.149C-416.234 233.061 -413.295 229.944 -413.411 225.904C-430.557 226.397 -446.782 223.83 -463.871 226.344C-492.054 229.176 -520.324 228.977 -548.565 229.789C-591.936 231.036 -636.257 234.332 -679.686 233.559C-697.841 234.08 -713.144 228.455 -724.616 215.643C-753.758 185.142 -771.979 148.263 -781.209 108.092C-784.612 95.0475 -781.906 83.8498 -774.156 72.507C-752.925 38.5366 -729.589 7.53847 -706.283 -24.4697C-646.043 -106.063 -583.756 -186.705 -526.629 -271.242C-517.9 -283.624 -509.171 -296.005 -503.554 -311.331C-510.673 -313.148 -515.658 -310.983 -521.651 -308.788C-576.69 -292.043 -629.566 -270.304 -682.412 -247.556C-810.093 -194.351 -935.61 -136.154 -1058.97 -72.9637C-1090.81 -56.8848 -1121.58 -38.8147 -1153.39 -21.7256C-1158.35 -18.5504 -1163.3 -15.3752 -1168.26 -12.2C-1173.21 -9.02477 -1174.11 -4.95551 -1170.94 0.00787393C-1166.7 6.96243 -1161.45 13.888 -1157.24 19.8324C-1104.69 92.1181 -1050.18 162.326 -995.644 233.543C-916.978 336.417 -836.352 437.212 -763.593 545.309C-750.938 564.152 -739.291 583.025 -728.653 601.927C-716.978 621.809 -713.371 641.924 -718.784 664.319C-731.482 714.219 -757.582 754.394 -797.027 786.867C-806.881 795.237 -819.905 798.644 -833.017 799.021C-899.615 799.925 -966.242 799.819 -1032.81 801.732C-1111.48 803.994 -1189.15 806.226 -1267.88 806.468C-1341.51 808.585 -1416.17 809.72 -1489.8 811.837C-1538.21 813.229 -1586.69 812.6 -1636.08 815.031C-1649.19 815.408 -1652.3 812.465 -1648.59 801.238C-1634.68 758.38 -1621.81 714.541 -1603.83 672.577C-1598.19 658.262 -1590.27 652.979 -1574.1 653.525C-1525.63 654.154 -1478.28 650.771 -1429.87 649.379C-1382.46 648.016 -1336.01 648.703 -1288.6 647.34C-1238.17 645.89 -1187.68 646.461 -1137.25 645.011C-1065.64 642.952 -993.019 640.865 -921.378 639.816C-914.318 639.613 -907.258 639.41 -900.227 638.197C-892.187 636.955 -891.236 634.906 -896.482 627.98C-908.042 612.138 -920.581 597.335 -932.14 581.493C-1052.69 426.245 -1174.22 272.037 -1289.81 113.615C-1299.27 100.744 -1307.74 86.8354 -1318.21 73.9943C-1333.92 54.2278 -1339.57 33.1612 -1337.24 8.8324C-1335.14 -23.577 -1327.98 -55.1213 -1314.73 -85.8295C-1307.18 -104.243 -1293.44 -117.78 -1275.54 -127.392C-1201.98 -166.911 -1127.35 -204.438 -1052.66 -239.945C-911.267 -307.697 -769.786 -372.419 -621.934 -426.204C-577.99 -442.631 -533.989 -457.038 -488.833 -466.423C-486.816 -466.481 -484.799 -466.539 -482.811 -467.607C-462.725 -471.217 -445.434 -466.66 -429.869 -451.943C-397.702 -421.53 -369.482 -387.97 -353.133 -345.982C-339.005 -311.006 -342.139 -279.578 -364.437 -247.599C-443.979 -135.123 -523.549 -23.6574 -603.091 88.8184C-604.041 90.8675 -606.029 91.9356 -606.98 93.9848C-611.82 101.2 -610.724 104.201 -601.646 103.94C-580.465 103.332 -559.285 102.723 -538.104 102.114C-533.061 101.969 -528.017 101.824 -523.983 101.708C-479.604 100.432 -435.225 99.1563 -390.846 97.8805C-374.708 97.4166 -358.599 95.9426 -342.432 96.4887C-330.329 96.1408 -322.347 92.8786 -315.577 82.5749C-277.867 24.8799 -239.148 -32.8441 -200.43 -90.5681C-194.639 -99.8328 -187.811 -108.116 -182.021 -117.381C-177.181 -124.596 -170.237 -128.84 -160.18 -130.14C-134.014 -132.914 -106.781 -133.697 -80.4993 -132.43C-73.4389 -132.633 -65.3121 -130.845 -58.1937 -129.028C-43.957 -125.394 -40.6989 -117.4 -46.4021 -105.105C-52.1054 -92.8103 -58.817 -80.4864 -65.5579 -69.1726C-93.4721 -21.8683 -123.403 25.494 -152.355 71.8172C-155.236 76.9546 -159.154 81.1109 -160.939 89.2494M272.693 671.198C272.693 671.198 272.954 680.289 273.07 684.329C276.706 705.454 293.105 714.081 313.045 705.42C324.024 701.061 332.898 693.73 340.735 685.417C383.894 641.718 414.689 589.276 441.391 534.931C453.807 510.312 463.167 484.77 476.591 460.122C486.183 442.661 492.721 424.277 498.25 405.921C501.014 396.744 502.741 386.585 503.488 377.465C503.053 362.314 496.827 356.428 481.756 358.883C472.678 359.144 463.746 364.455 455.793 368.727C437.928 379.35 421.159 392.974 407.474 408.531C354.635 466.661 314.161 533.534 287.002 607.1C279.513 627.533 274.042 647.909 272.693 671.198ZM-140.928 539.54C-76.7834 523.543 -28.2905 489.8 2.30106 430.288C5.15269 424.14 6.96666 417.012 7.77202 409.912C7.3655 395.771 0.101923 388.904 -13.9026 393.35C-25.9188 396.728 -34.7931 404.06 -43.6384 412.401C-65.2762 432.231 -84.8677 453.012 -102.355 476.766C-116.932 496.392 -130.501 515.989 -139.92 539.511M2215.66 1119.79C2215.66 1119.79 2218.57 1115.66 2219.49 1112.6C2228.76 1084.03 2237.03 1055.49 2247.34 1027.89C2251.97 1013.61 2257.65 1000.3 2262.31 987.028C2266.06 976.811 2263.98 974.849 2253.92 976.149C2240.84 977.536 2226.69 976.932 2213.58 977.309C2201.48 977.656 2201.5 978.667 2203.84 989.719C2216.16 1031.82 2219.42 1075.2 2215.66 1119.79ZM2036.04 876.267C2010.56 867.901 1985.2 863.575 1959.04 866.35C1952.98 866.523 1942.9 866.814 1943.1 873.884C1943.31 880.955 1953.36 879.655 1959.41 879.481C1984.6 877.746 2009.84 878.031 2035.03 876.296" fill="black" fill-opacity="0.05"/>
</g>
<defs>
<clipPath id="clip0_60_362">
<rect width="960" height="775" fill="white" transform="translate(0.823242)"/>
</clipPath>
</defs>
</svg>
