<svg width="1921" height="1080" viewBox="0 0 1921 1080" fill="none" xmlns="http://www.w3.org/2000/svg">
<g clip-path="url(#clip0_60_379)">
<path d="M2115.25 285.73C2115.25 285.73 2121.77 286.472 2124.56 286.392C2157.96 285.432 2191.36 284.472 2224.73 282.582C2226.59 282.529 2228.44 282.476 2230.3 282.422C2271.12 281.249 2311.95 280.075 2352.77 278.902C2354.63 278.848 2356.48 278.795 2358.34 278.742C2362.98 278.608 2368.54 278.448 2371.49 283.943C2373.48 288.536 2369.87 292.359 2367.19 296.155C2343.9 325.653 2318.72 354.274 2295.45 384.7C2291.88 389.452 2287.26 390.515 2282.62 390.648C2250.15 391.582 2216.8 394.4 2184.36 396.263C2141.68 397.49 2099.05 400.575 2056.37 401.802C2045.24 402.122 2037 406.079 2030.8 416.486C1969.55 514.958 1908.31 613.43 1851.82 715.485C1832.4 750.45 1813 786.345 1799.22 823.937C1795.72 831.477 1793.18 839.92 1792.49 848.309C1790.99 860.441 1795.73 864.024 1806.76 859.987C1815.03 856.96 1822.32 852.101 1828.68 847.268C1847.79 833.7 1864.04 817.425 1881.18 800.193C1947.04 733.206 2006.22 659.901 2064.45 585.694C2096.67 543.851 2133.64 505.591 2179.31 479.171C2209.45 461.566 2241.63 450.412 2276.86 448.469C2299.13 447.829 2321.5 450.905 2342.21 460.539C2383.62 479.807 2395.98 522.228 2391.45 558.624C2386.13 599.694 2368.57 634.606 2342.54 666.041C2288.69 730.823 2218.18 765.397 2133.83 770.612C2133.83 770.612 2132.91 770.639 2131.98 770.665C2105.07 771.439 2102.39 775.235 2101.34 803.163C2100.42 835.737 2118.64 855.671 2151.24 859.384C2181.99 863.149 2209.61 854.916 2236.15 841.134C2269.09 824.378 2298.17 802.155 2324.41 778.152C2361.51 744.539 2395.78 709.147 2426.2 669.215C2431.58 662.551 2436.04 655.914 2440.46 648.347C2466.14 604.833 2495.66 565.858 2532.74 531.315C2567.12 499.639 2605.36 473.432 2650.48 460.046C2675.34 452.822 2700.29 448.385 2727.33 452.258C2759.03 456.926 2775.23 471.339 2782.61 501.814C2782.69 504.601 2782.74 506.46 2783.7 507.362C2791.86 500.618 2800.05 494.803 2807.26 487.156C2819 475.66 2831.85 470.641 2847.63 470.187C2867.11 469.627 2886.59 469.067 2905.34 475.038C2909.08 475.86 2911.89 476.709 2915.65 478.461C2930.66 483.609 2931.69 487.299 2921.83 499.671C2873.47 561.506 2832.68 628.703 2799.43 699.402C2783.64 731.474 2770.66 764.394 2763.29 799.012C2760.83 810.242 2761.15 821.392 2761.5 833.471C2762.01 851.125 2779.19 867.369 2801.11 854.65C2821.2 842.914 2837.45 826.638 2851.81 809.487C2912.02 739.872 2964.63 663.966 3012.48 584.477C3067.42 492.696 3123.33 402.747 3181.1 312.744C3216.64 256.857 3254.03 200.917 3289.54 144.102C3297.54 131.783 3305.68 124.109 3321.48 124.585C3338.18 124.105 3354.88 123.625 3372.51 123.118C3386.42 122.718 3400.34 122.318 3414.26 121.918C3418.9 121.785 3423.54 121.651 3427.25 121.544C3435.65 123.163 3437.64 127.755 3434.17 136.224C3433.32 139.038 3431.52 140.95 3429.74 143.791C3364.93 247.015 3300.11 350.239 3237.2 455.269C3172.51 563.138 3107.8 670.079 3051.6 782.355C3041.08 804.046 3030.56 825.736 3024.71 848.222C3023.04 854.78 3019.54 862.32 3025.27 867.734C3031.95 874.052 3040.22 871.024 3047.59 868.953C3057.72 865.872 3067.76 860.003 3076.88 854.162C3102.4 837.62 3126.02 819.272 3149.58 799.067C3215.68 740.441 3277.01 677.304 3336.43 612.362C3360.73 585.625 3384.11 558.916 3408.44 533.108C3423.73 515.93 3434.27 495.169 3446.73 476.213C3459.18 457.256 3471.61 437.371 3483.14 418.441C3481.12 412.919 3476.54 414.911 3473.76 414.991C3442.26 417.756 3411.59 416.778 3380.07 418.614C3374.51 418.774 3368.01 418.961 3362.45 419.121C3347.52 416.76 3340.63 403.01 3347.67 389.788C3358.22 369.027 3370.65 349.141 3382.15 329.282C3387.48 320.76 3395.77 318.662 3405.05 318.395C3447.73 317.168 3489.45 315.039 3532.21 316.599C3546.13 316.199 3554.37 312.243 3562.38 299.924C3601.49 239.284 3642.49 179.521 3681.63 119.811C3687.86 110.333 3696.07 105.447 3708.16 106.03C3740.69 106.954 3773.19 106.95 3804.81 108.831C3817.86 110.316 3820.77 114.881 3813.67 126.244C3801.27 147.059 3788.87 167.874 3775.54 188.715C3753.36 224.69 3730.25 260.691 3708.07 296.665C3705.39 300.462 3702.72 304.258 3702.85 308.904C3705.77 313.47 3711.28 311.452 3714.99 311.345C3743.75 310.518 3772.52 309.691 3801.28 308.864C3805.92 308.731 3810.56 308.598 3814.27 308.491C3827.31 309.976 3832.22 319.134 3826.07 331.4C3820.79 341.78 3813.67 352.214 3807.47 362.622C3801.26 373.029 3795.04 382.507 3788.84 392.915C3784.44 401.41 3777.09 404.411 3767.82 404.678C3740.91 405.451 3714 406.225 3687.1 406.998C3673.18 407.398 3659.29 408.727 3645.35 408.198C3637 408.438 3632.49 413.218 3628.94 418.899C3612.99 445.395 3596.11 471.918 3580.18 499.344C3528.77 584.514 3477.34 668.755 3432.53 757.456C3418.43 783.899 3405.26 810.315 3395.88 839.412C3393.32 846.925 3390.72 853.509 3390.93 860.942C3391.23 871.163 3395.02 873.844 3404.22 870.789C3416.14 865.797 3427.09 858.973 3438.01 851.22C3461.63 832.872 3484.29 813.623 3505.97 792.541C3581 721.57 3652.18 646.06 3722.42 569.648C3735.03 556.267 3742 540.258 3750.82 524.196C3814.47 412.636 3879.05 301.049 3942.7 189.489C3967.45 146.001 3993.13 102.487 4012.21 55.4428C4016.55 45.0888 4023.84 40.2297 4034.95 38.9805C4066.44 36.2153 4097.06 35.3352 4128.76 40.0032C4131.55 39.9232 4134.36 40.7723 4137.17 41.6215C4150.29 45.8938 4154.21 53.2203 4151.81 66.3084C4150.14 72.8658 4146.61 79.4765 4143.99 85.1314C4103.58 165.336 4058.45 242.886 4013.32 320.437C3958.47 415.005 3903.62 509.574 3848.74 603.213C3847.86 605.098 3846.09 607.939 3843.44 612.665C3850.75 608.735 3853.4 604.009 3857.01 600.186C3892.04 559.192 3929.94 520.906 3975.53 491.698C3997.4 477.121 4021.23 466.207 4047.98 459.858C4060.88 456.697 4074.77 455.368 4087.82 456.853C4113.88 458.894 4133.73 471.342 4145.56 495.179C4155.45 516.283 4157.02 538.556 4150.24 561.069C4142.56 584.538 4132.07 607.157 4119.69 628.901C4098.49 666.707 4077.29 704.513 4056.1 742.319C4045.5 761.222 4034.9 780.125 4028.03 799.851C4025.44 806.435 4021.04 814.931 4027.72 821.248C4034.4 827.565 4042.65 823.609 4049.99 820.608C4073.82 809.694 4093.78 793.312 4113.71 776C4168.07 728.871 4218.55 676.275 4266.23 622.829C4278.82 608.518 4291.41 594.207 4304.95 580.799C4329.31 555.921 4345.15 525.708 4362.88 496.371C4367.31 488.805 4371.73 481.238 4376.13 472.743C4381.46 464.22 4389.68 459.334 4399.88 459.041C4419.37 458.481 4438.85 457.921 4457.54 462.033C4461.25 461.926 4464.09 463.705 4467.82 464.527C4489.38 471.347 4496.25 484.168 4491.29 505.699C4486.34 527.229 4475.8 547.99 4465.22 567.823C4435.31 625.408 4399.72 679.436 4367.92 736.145C4356.44 756.933 4345.9 777.694 4335.35 798.456C4330.08 808.836 4325.73 819.19 4325.15 831.296C4324.57 843.402 4328.42 847.941 4340.48 847.594C4351.61 847.274 4360.78 843.29 4369.9 837.449C4392.75 824.703 4412.65 806.463 4430.68 787.346C4462.24 754.822 4489.99 718.687 4516.81 682.579C4544.5 644.586 4570.31 605.718 4594.21 565.044C4612.79 532.893 4633.25 501.618 4658.43 472.996C4665.61 464.421 4673.77 457.677 4681.93 450.933C4704.65 433.541 4728.77 432.848 4754.14 443.277C4771.06 450.23 4784.42 462.865 4795.05 477.438C4801.79 485.614 4800.99 490.286 4793.84 499.791C4775.98 524.482 4759.1 551.005 4742.19 576.599C4704 637.211 4667.73 699.629 4634.23 761.966C4596.31 831.87 4560.28 902.65 4527.02 973.349C4519.15 990.314 4519.18 991.243 4538.66 990.683C4595.21 987.198 4650.82 983.739 4707.39 981.183C4746.33 979.134 4785.27 977.084 4823.29 975.062C4866.87 972.879 4910.42 969.767 4954 967.584C4993.87 965.508 5034.67 963.406 5074.54 961.329C5089.38 960.903 5104.23 960.476 5119.04 959.12C5122.76 959.013 5127.39 958.88 5131.11 958.773C5143.22 960.285 5148.1 968.514 5143.78 979.797C5142.93 982.611 5141.16 985.452 5139.36 987.364C5124.3 1012.9 5108.3 1037.54 5093.25 1063.08C5087.07 1074.42 5078.83 1078.38 5065.84 1078.75C5004.61 1080.51 4942.44 1082.3 4881.21 1084.06C4822.76 1085.74 4764.3 1087.42 4704.92 1089.12C4645.54 1090.83 4585.24 1092.57 4525.86 1094.27C4511.94 1094.67 4498.05 1096 4484.11 1095.47C4473.9 1095.77 4469.37 1099.62 4465 1109.04C4444.99 1156.11 4425.92 1203.16 4407.77 1250.17C4383.63 1315.03 4361.38 1380.77 4343.79 1447.29C4338.81 1467.9 4326.99 1476.61 4305.57 1474.43C4275.77 1471.57 4249.45 1460.24 4227.47 1438.55C4215.99 1426.79 4211.9 1413.89 4215.16 1397.99C4219.98 1371.81 4224.8 1345.64 4228.71 1320.41C4235.76 1274.65 4240.04 1229.89 4239.63 1183.4C4239.02 1162.03 4237.48 1140.69 4233.15 1119.43C4230.87 1104.61 4228.96 1102.81 4213.19 1103.26C4156.59 1104.89 4100.92 1106.49 4044.33 1108.11C4034.12 1108.41 4022.99 1108.73 4012.78 1109.02C4000.72 1109.37 3993.16 1104.94 3985.5 1096.79C3968.18 1075.9 3958.24 1052.93 3953.78 1027.03C3952.66 1020.55 3951.55 1014.07 3951.36 1007.57C3950.01 992.727 3956.21 982.32 3969.97 976.345C3987.38 968.405 4005.83 964.155 4024.33 961.763C4080.74 953.632 4135.72 960.421 4187.47 984.041C4197.81 988.393 4208.18 993.674 4217.67 1000.84C4222.42 1004.42 4228.04 1006.12 4234.53 1005.94C4281.82 1003.65 4330.04 1001.33 4377.36 999.97C4385.71 999.73 4391.25 998.641 4394.72 990.172C4414.7 942.172 4434.68 894.172 4453.73 846.198C4453.67 844.34 4455.47 842.428 4453.57 840.623C4448.98 842.615 4447.23 846.385 4444.53 849.252C4420.22 875.989 4394.04 901.849 4364.94 923.144C4361.31 926.038 4357.65 928.003 4354.02 930.897C4309.46 963.795 4262.91 959.554 4216.7 934.845C4183.69 917.195 4169.74 884.119 4177.98 847.616C4182.06 827.97 4190.86 810.979 4197.77 793.112C4199.52 789.342 4202.22 786.474 4201.13 780.926C4190.32 792.396 4180.41 802.91 4170.52 814.353C4140.84 847.754 4107.31 876.615 4070.92 902.769C4045.45 921.169 4018.92 934.951 3988.54 944.193C3970.12 949.373 3950.69 951.791 3931.12 949.564C3893.82 944.127 3870.97 924.325 3873.24 874.045C3875.14 843.303 3884.52 814.206 3894.85 786.011C3913.85 736.18 3938.46 688.046 3963.08 639.913C3975.4 616.311 3987.7 591.779 3997.21 567.328C3998.93 562.629 4003.41 556.921 3998.61 551.479C3992.88 546.064 3987.48 551.799 3981.96 553.818C3969.11 558.837 3959.17 568.422 3949.23 578.007C3921.19 603.92 3898.85 634.32 3876.53 665.649C3822.1 742.537 3775.2 822.928 3730.2 905.124C3724.03 916.461 3717.83 926.868 3712.58 938.178C3709.08 945.718 3703.6 948.665 3695.19 947.047C3678.41 944.74 3662.53 941.477 3647.48 934.47C3602.3 913.451 3588.8 863.623 3598.89 827.067C3605.62 802.695 3616.08 779.147 3626.57 756.527C3628.3 751.828 3630.97 748.031 3630.79 741.527C3624.5 749.147 3617.3 756.794 3611.02 764.413C3563.36 818.789 3513.83 872.288 3455.68 916.736C3435.7 932.189 3413.8 945.837 3389.92 954.893C3344.91 971.995 3300.85 957.453 3276.45 916.309C3255.93 880.632 3247.44 843.679 3263.92 803.219C3267.41 795.679 3269.96 787.237 3273.4 777.839C3266 778.981 3263.35 783.707 3259.75 787.53C3229.96 817.214 3200.2 847.827 3168.5 875.706C3142.21 897.85 3114.96 919.091 3085.75 936.669C3072.05 944.503 3057.39 951.433 3042.71 957.435C2980.31 983.407 2901.17 943.835 2886.07 870.806C2885.94 866.16 2885.78 860.586 2881.01 856.073C2870.17 866.614 2858.4 877.181 2847.56 887.722C2828.58 905.936 2807.7 922.345 2783.89 934.188C2761.02 946.005 2737.08 953.202 2710.94 948.374C2678.26 941.874 2656.38 923.905 2647.1 891.625C2644.05 882.413 2642.83 872.219 2640.68 862.052C2636.01 861.256 2635.19 865 2633.41 867.84C2611.82 891.709 2588.28 912.844 2559.95 928.537C2526.15 948.107 2490.21 957.51 2450.97 949.338C2416.4 941.963 2394.48 922.135 2385.14 887.997C2378.93 865.857 2378.26 842.628 2380.4 820.249C2380.27 815.603 2382.95 811.806 2379.98 805.382C2373.7 813.002 2367.39 819.693 2361.08 826.384C2324.21 868.36 2282.52 903.965 2233.14 930.492C2193.84 952.081 2152.38 963.502 2106.84 962.021C2084.54 961.732 2063.07 957.7 2042.39 948.995C2009.52 935.991 1988.41 912.42 1979.07 878.282C1971.83 852.452 1971.08 826.436 1974.02 799.384C1973.94 796.597 1976.64 793.729 1973.75 790.093C1957.58 809.156 1942.32 827.263 1926.13 845.397C1895.54 879.753 1864 913.207 1827.67 941.219C1815.84 949.928 1804 957.708 1791.19 964.586C1754.64 985.165 1703.11 968.978 1681.84 939.832C1657.66 906.12 1645.45 869.274 1659.1 827.036C1667.63 800.753 1678.99 776.248 1690.36 751.744C1735.99 659.3 1789.2 572.218 1843.31 484.18C1855.71 463.366 1869.04 442.524 1882.37 421.683C1884.15 418.842 1886.85 415.975 1886.75 412.258C1870.97 412.711 1856.05 410.351 1840.33 412.662C1814.4 415.268 1788.4 415.085 1762.42 415.832C1722.52 416.979 1681.75 420.011 1641.8 419.299C1625.1 419.78 1611.03 414.605 1600.47 402.819C1573.67 374.762 1556.91 340.837 1548.41 303.885C1545.28 291.886 1547.77 281.585 1554.9 271.151C1574.43 239.902 1595.9 211.388 1617.34 181.944C1672.75 106.888 1730.05 32.7071 1782.6 -45.0567C1790.63 -56.4466 1798.66 -67.8364 1803.82 -81.9337C1797.28 -83.6053 1792.69 -81.6136 1787.18 -79.5953C1736.55 -64.1911 1687.91 -44.1945 1639.3 -23.2687C1521.85 25.6736 1406.38 79.2083 1292.91 137.335C1263.62 152.126 1235.31 168.749 1206.05 184.468C1201.49 187.389 1196.93 190.31 1192.38 193.231C1187.82 196.152 1187 199.895 1189.91 204.461C1193.81 210.858 1198.64 217.229 1202.51 222.697C1250.85 289.191 1300.99 353.774 1351.16 419.285C1423.52 513.917 1497.69 606.636 1564.62 706.073C1576.26 723.407 1586.97 740.767 1596.76 758.154C1607.5 776.444 1610.82 794.947 1605.84 815.548C1594.16 861.45 1570.15 898.407 1533.86 928.277C1524.8 935.977 1512.82 939.111 1500.76 939.458C1439.49 940.289 1378.21 940.191 1316.97 941.952C1244.6 944.032 1173.16 946.086 1100.74 946.308C1033.01 948.255 964.324 949.3 896.594 951.247C852.06 952.527 807.472 951.949 762.036 954.185C749.974 954.532 747.111 951.824 750.528 941.497C763.323 902.073 775.164 861.746 791.697 823.144C796.89 809.976 804.179 805.117 819.051 805.619C863.639 806.197 907.192 803.085 951.727 801.805C995.334 800.551 1038.07 801.183 1081.67 799.929C1128.06 798.596 1174.51 799.12 1220.9 797.787C1286.77 795.893 1353.57 793.972 1419.48 793.008C1425.97 792.821 1432.46 792.634 1438.93 791.519C1446.33 790.376 1447.2 788.491 1442.38 782.12C1431.74 767.547 1420.21 753.93 1409.58 739.357C1298.68 596.548 1186.89 454.695 1080.56 308.965C1071.86 297.126 1064.07 284.332 1054.44 272.519C1039.99 254.336 1034.79 234.958 1036.93 212.578C1038.86 182.765 1045.45 153.748 1057.64 125.5C1064.58 108.562 1077.23 96.1101 1093.69 87.2677C1161.36 50.9154 1230.01 16.3948 1298.71 -16.2675C1428.78 -78.5913 1558.92 -138.128 1694.93 -187.603C1735.35 -202.714 1775.83 -215.967 1817.37 -224.6C1819.22 -224.654 1821.08 -224.707 1822.91 -225.689C1841.38 -229.01 1857.29 -224.818 1871.61 -211.281C1901.2 -183.304 1927.15 -152.433 1942.19 -113.809C1955.19 -81.6355 1952.31 -52.7252 1931.8 -23.3081C1858.63 80.1562 1785.43 182.691 1712.26 286.156C1711.39 288.041 1709.56 289.023 1708.68 290.908C1704.23 297.546 1705.24 300.306 1713.59 300.066C1733.07 299.506 1752.56 298.946 1772.04 298.386C1776.68 298.253 1781.32 298.119 1785.03 298.013C1825.86 296.839 1866.68 295.665 1907.5 294.492C1922.35 294.065 1937.17 292.709 1952.04 293.212C1963.17 292.891 1970.51 289.891 1976.74 280.412C2011.43 227.34 2047.05 174.241 2082.66 121.141C2087.99 112.619 2094.27 104.999 2099.6 96.4768C2104.05 89.8394 2110.44 85.9361 2119.69 84.7403C2143.76 82.1885 2168.81 81.4683 2192.98 82.6332C2199.48 82.4465 2206.95 84.0914 2213.5 85.763C2226.6 89.1062 2229.6 96.4593 2224.35 107.769C2219.1 119.079 2212.93 130.415 2206.73 140.823C2181.05 184.337 2153.52 227.905 2126.89 270.517C2124.24 275.242 2120.63 279.066 2118.99 286.552M2517.88 821.876C2517.88 821.876 2518.12 830.238 2518.23 833.955C2521.57 853.387 2536.66 861.323 2555 853.356C2565.1 849.346 2573.26 842.602 2580.47 834.955C2620.17 794.758 2648.5 746.517 2673.06 696.526C2684.48 673.88 2693.09 650.384 2705.44 627.711C2714.26 611.649 2720.28 594.738 2725.36 577.853C2727.91 569.41 2729.5 560.066 2730.18 551.677C2729.78 537.739 2724.06 532.325 2710.19 534.583C2701.84 534.823 2693.62 539.709 2686.31 543.639C2669.88 553.41 2654.45 565.943 2641.86 580.253C2593.26 633.726 2556.02 695.241 2531.04 762.913C2524.15 781.709 2519.12 800.452 2517.88 821.876ZM2137.4 700.766C2196.4 686.051 2241.01 655.011 2269.15 600.267C2271.77 594.612 2273.44 588.055 2274.18 581.524C2273.81 568.516 2267.13 562.199 2254.25 566.289C2243.19 569.396 2235.03 576.14 2226.89 583.813C2206.99 602.054 2188.97 621.17 2172.88 643.021C2159.47 661.075 2146.99 679.102 2138.32 700.739M4305.17 1234.52C4305.17 1234.52 4307.85 1230.73 4308.7 1227.91C4317.23 1201.63 4324.83 1175.37 4334.32 1149.99C4338.58 1136.85 4343.8 1124.61 4348.09 1112.4C4351.54 1103 4349.63 1101.2 4340.38 1102.39C4328.34 1103.67 4315.33 1103.11 4303.26 1103.46C4292.13 1103.78 4292.16 1104.71 4294.31 1114.88C4305.63 1153.61 4308.64 1193.51 4305.17 1234.52ZM4139.95 1010.51C4116.51 1002.82 4093.18 998.84 4069.11 1001.39C4063.55 1001.55 4054.27 1001.82 4054.46 1008.32C4054.64 1014.83 4063.89 1013.63 4069.46 1013.47C4092.63 1011.87 4115.85 1012.14 4139.02 1010.54" fill="black" fill-opacity="0.05"/>
</g>
<defs>
<clipPath id="clip0_60_379">
<rect width="1920" height="1080" fill="white" transform="translate(0.255371)"/>
</clipPath>
</defs>
</svg>
