<svg width="51" height="51" viewBox="0 0 51 51" fill="none" xmlns="http://www.w3.org/2000/svg">
<circle cx="25.6594" cy="25.4518" r="24.049" stroke="#080807" stroke-width="2"/>
<path d="M25.6597 12.873C22.2461 12.873 21.8169 12.8888 20.4757 12.9485C19.1345 13.0114 18.221 13.2221 17.4207 13.5334C16.5808 13.8484 15.8203 14.3438 15.1927 14.9847C14.5518 15.6123 14.0564 16.3728 13.7414 17.2127C13.4301 18.0114 13.2178 18.9265 13.1565 20.263C13.0968 21.6073 13.0811 22.035 13.0811 25.4532C13.0811 28.8683 13.0968 29.296 13.1565 30.6372C13.2194 31.9768 13.4301 32.8903 13.7414 33.6907C14.0638 34.5177 14.493 35.219 15.1927 35.9186C15.8908 36.6183 16.5921 37.0491 17.4191 37.3699C18.221 37.6812 19.1329 37.8935 20.4726 37.9548C21.8153 38.0145 22.243 38.0303 25.6597 38.0303C29.0763 38.0303 29.5024 38.0145 30.8452 37.9548C32.1833 37.8919 33.0999 37.6812 33.9002 37.3699C34.7395 37.0547 35.4995 36.5593 36.1266 35.9186C36.8263 35.219 37.2556 34.5177 37.5779 33.6907C37.8877 32.8903 38.0999 31.9768 38.1628 30.6372C38.2226 29.296 38.2383 28.8683 38.2383 25.4517C38.2383 22.035 38.2226 21.6073 38.1628 20.2646C38.0999 18.9265 37.8877 18.0114 37.5779 17.2127C37.2629 16.3728 36.7675 15.6123 36.1266 14.9847C35.4991 14.3438 34.7385 13.8484 33.8987 13.5334C33.0968 13.2221 32.1817 13.0098 30.8436 12.9485C29.5009 12.8888 29.0748 12.873 25.6565 12.873H25.6597ZM24.5323 15.1403H25.6612C29.0197 15.1403 29.4175 15.1513 30.743 15.2127C31.9694 15.2677 32.6361 15.4737 33.0795 15.6451C33.666 15.873 34.0858 16.1466 34.526 16.5869C34.9663 17.0271 35.2383 17.4454 35.4663 18.0334C35.6392 18.4752 35.8436 19.1419 35.8987 20.3683C35.96 21.6938 35.9726 22.0916 35.9726 25.4485C35.9726 28.8054 35.96 29.2048 35.8987 30.5303C35.8436 31.7567 35.6377 32.4218 35.4663 32.8652C35.2632 33.4106 34.9415 33.9042 34.5244 34.3101C34.0842 34.7504 33.666 35.0224 33.0779 35.2504C32.6377 35.4234 31.971 35.6278 30.743 35.6844C29.4175 35.7441 29.0197 35.7583 25.6612 35.7583C22.3028 35.7583 21.9034 35.7441 20.5779 35.6844C19.3515 35.6278 18.6864 35.4234 18.243 35.2504C17.6971 35.048 17.2031 34.7268 16.7965 34.3101C16.3787 33.9039 16.0564 33.4098 15.8531 32.8636C15.6817 32.4218 15.4757 31.7551 15.4207 30.5287C15.3609 29.2032 15.3483 28.8054 15.3483 25.4454C15.3483 22.0853 15.3609 21.6907 15.4207 20.3652C15.4773 19.1388 15.6817 18.4721 15.8546 18.0287C16.0826 17.4422 16.3562 17.0224 16.7965 16.5822C17.2367 16.1419 17.655 15.8699 18.243 15.6419C18.6864 15.469 19.3515 15.2646 20.5779 15.208C21.7383 15.1545 22.188 15.1388 24.5323 15.1372V15.1403ZM32.3751 17.2284C32.1769 17.2284 31.9806 17.2674 31.7974 17.3433C31.6143 17.4191 31.4479 17.5303 31.3077 17.6705C31.1676 17.8107 31.0564 17.9771 30.9805 18.1602C30.9047 18.3433 30.8656 18.5396 30.8656 18.7378C30.8656 18.936 30.9047 19.1323 30.9805 19.3155C31.0564 19.4986 31.1676 19.665 31.3077 19.8052C31.4479 19.9453 31.6143 20.0565 31.7974 20.1324C31.9806 20.2082 32.1769 20.2473 32.3751 20.2473C32.7754 20.2473 33.1593 20.0882 33.4424 19.8052C33.7255 19.5221 33.8845 19.1382 33.8845 18.7378C33.8845 18.3375 33.7255 17.9536 33.4424 17.6705C33.1593 17.3874 32.7754 17.2284 32.3751 17.2284ZM25.6612 18.9925C24.8044 18.9792 23.9535 19.1364 23.1581 19.455C22.3626 19.7737 21.6385 20.2474 21.0278 20.8486C20.4172 21.4497 19.9323 22.1664 19.6012 22.9568C19.2702 23.7472 19.0998 24.5955 19.0998 25.4524C19.0998 26.3094 19.2702 27.1577 19.6012 27.9481C19.9323 28.7385 20.4172 29.4552 21.0278 30.0563C21.6385 30.6575 22.3626 31.1312 23.1581 31.4499C23.9535 31.7685 24.8044 31.9257 25.6612 31.9124C27.3571 31.8859 28.9745 31.1937 30.1643 29.9851C31.3542 28.7765 32.0211 27.1485 32.0211 25.4524C32.0211 23.7564 31.3542 22.1284 30.1643 20.9198C28.9745 19.7112 27.3571 19.019 25.6612 18.9925ZM25.6612 21.2583C26.2119 21.2583 26.7572 21.3667 27.266 21.5775C27.7747 21.7882 28.237 22.0971 28.6264 22.4865C29.0158 22.8759 29.3247 23.3382 29.5354 23.8469C29.7462 24.3557 29.8546 24.901 29.8546 25.4517C29.8546 26.0023 29.7462 26.5476 29.5354 27.0564C29.3247 27.5652 29.0158 28.0274 28.6264 28.4168C28.237 28.8062 27.7747 29.1151 27.266 29.3259C26.7572 29.5366 26.2119 29.6451 25.6612 29.6451C24.5491 29.6451 23.4825 29.2033 22.6961 28.4168C21.9096 27.6304 21.4678 26.5638 21.4678 25.4517C21.4678 24.3395 21.9096 23.2729 22.6961 22.4865C23.4825 21.7001 24.5491 21.2583 25.6612 21.2583Z" fill="#080807"/>
</svg>
