<svg width="67" height="67" viewBox="0 0 67 67" fill="none" xmlns="http://www.w3.org/2000/svg">
<circle cx="33.3164" cy="33.248" r="33.248" fill="black"/>
<path d="M33.3169 16.5522C28.7861 16.5522 28.2163 16.5731 26.4361 16.6524C24.656 16.7359 23.4434 17.0156 22.3812 17.4288C21.2664 17.8469 20.2569 18.5044 19.4239 19.3551C18.5732 20.1881 17.9157 21.1975 17.4976 22.3123C17.0844 23.3725 16.8027 24.5871 16.7213 26.361C16.642 28.1454 16.6211 28.7131 16.6211 33.2502C16.6211 37.7831 16.642 38.3507 16.7213 40.1309C16.8047 41.909 17.0844 43.1216 17.4976 44.1838C17.9255 45.2816 18.4952 46.2124 19.4239 47.1411C20.3505 48.0698 21.2813 48.6416 22.3791 49.0674C23.4434 49.4806 24.6539 49.7623 26.432 49.8437C28.2143 49.923 28.7819 49.9439 33.3169 49.9439C37.8519 49.9439 38.4175 49.923 40.1998 49.8437C41.9758 49.7602 43.1925 49.4806 44.2548 49.0674C45.3688 48.649 46.3775 47.9915 47.2099 47.1411C48.1386 46.2124 48.7084 45.2816 49.1362 44.1838C49.5473 43.1216 49.8291 41.909 49.9126 40.1309C49.9919 38.3507 50.0127 37.7831 50.0127 33.2481C50.0127 28.7131 49.9919 28.1454 49.9126 26.3631C49.8291 24.5871 49.5473 23.3725 49.1362 22.3123C48.7181 21.1975 48.0606 20.1881 47.2099 19.3551C46.3769 18.5044 45.3674 17.8469 44.2527 17.4288C43.1883 17.0156 41.9737 16.7338 40.1977 16.6524C38.4154 16.5731 37.8498 16.5522 33.3127 16.5522H33.3169ZM31.8205 19.5617H33.319C37.7768 19.5617 38.3048 19.5763 40.0641 19.6577C41.692 19.7307 42.5768 20.0041 43.1654 20.2316C43.9438 20.5342 44.501 20.8973 45.0854 21.4817C45.6697 22.066 46.0308 22.6212 46.3334 23.4017C46.563 23.9881 46.8343 24.873 46.9073 26.5009C46.9887 28.2602 47.0054 28.7882 47.0054 33.2439C47.0054 37.6996 46.9887 38.2297 46.9073 39.989C46.8343 41.6168 46.5609 42.4996 46.3334 43.0882C46.0638 43.8121 45.6368 44.4672 45.0833 45.0061C44.4989 45.5904 43.9438 45.9515 43.1633 46.2541C42.5789 46.4837 41.694 46.755 40.0641 46.8301C38.3048 46.9094 37.7768 46.9282 33.319 46.9282C28.8612 46.9282 28.3311 46.9094 26.5718 46.8301C24.944 46.755 24.0612 46.4837 23.4726 46.2541C22.7481 45.9854 22.0923 45.5591 21.5526 45.0061C20.9981 44.4668 20.5703 43.811 20.3004 43.0861C20.073 42.4996 19.7996 41.6148 19.7265 39.9869C19.6472 38.2276 19.6305 37.6996 19.6305 33.2397C19.6305 28.7798 19.6472 28.256 19.7265 26.4967C19.8016 24.8688 20.073 23.984 20.3025 23.3954C20.6051 22.617 20.9683 22.0598 21.5526 21.4754C22.137 20.8911 22.6921 20.53 23.4726 20.2274C24.0612 19.9978 24.944 19.7265 26.5718 19.6514C28.112 19.5805 28.7089 19.5596 31.8205 19.5575V19.5617ZM42.2304 22.3332C41.9673 22.3332 41.7068 22.385 41.4637 22.4857C41.2206 22.5864 40.9997 22.7339 40.8137 22.92C40.6277 23.106 40.4801 23.3269 40.3794 23.57C40.2787 23.813 40.2269 24.0736 40.2269 24.3367C40.2269 24.5998 40.2787 24.8603 40.3794 25.1034C40.4801 25.3465 40.6277 25.5673 40.8137 25.7534C40.9997 25.9394 41.2206 26.087 41.4637 26.1877C41.7068 26.2883 41.9673 26.3402 42.2304 26.3402C42.7618 26.3402 43.2713 26.1291 43.6471 25.7534C44.0228 25.3776 44.2339 24.868 44.2339 24.3367C44.2339 23.8053 44.0228 23.2957 43.6471 22.92C43.2713 22.5443 42.7618 22.3332 42.2304 22.3332ZM33.319 24.6748C32.1817 24.657 31.0523 24.8657 29.9965 25.2886C28.9406 25.7116 27.9795 26.3403 27.169 27.1383C26.3585 27.9362 25.7148 28.8875 25.2755 29.9366C24.8361 30.9857 24.6098 32.1117 24.6098 33.2491C24.6098 34.3865 24.8361 35.5125 25.2755 36.5616C25.7148 37.6108 26.3585 38.562 27.169 39.3599C27.9795 40.1579 28.9406 40.7866 29.9965 41.2096C31.0523 41.6325 32.1817 41.8412 33.319 41.8235C35.5699 41.7883 37.7167 40.8695 39.2961 39.2653C40.8754 37.6612 41.7606 35.5003 41.7606 33.2491C41.7606 30.9979 40.8754 28.8371 39.2961 27.2329C37.7167 25.6287 35.5699 24.7099 33.319 24.6748ZM33.319 27.6821C34.0499 27.6821 34.7737 27.8261 35.449 28.1058C36.1243 28.3855 36.7379 28.7955 37.2547 29.3123C37.7716 29.8292 38.1816 30.4428 38.4613 31.1181C38.741 31.7934 38.885 32.5171 38.885 33.2481C38.885 33.979 38.741 34.7028 38.4613 35.3781C38.1816 36.0534 37.7716 36.667 37.2547 37.1838C36.7379 37.7006 36.1243 38.1106 35.449 38.3903C34.7737 38.6701 34.0499 38.814 33.319 38.814C31.8428 38.814 30.4271 38.2276 29.3833 37.1838C28.3394 36.14 27.753 34.7243 27.753 33.2481C27.753 31.7719 28.3394 30.3562 29.3833 29.3123C30.4271 28.2685 31.8428 27.6821 33.319 27.6821Z" fill="white"/>
</svg>
