<svg width="692" height="659" viewBox="0 0 692 659" fill="none" xmlns="http://www.w3.org/2000/svg">
<g filter="url(#filter0_d_221_14)">
<path fill-rule="evenodd" clip-rule="evenodd" d="M110.113 179.574C82.499 179.574 60.1133 201.96 60.1133 229.574V528.663C60.1133 556.277 82.499 578.663 110.113 578.663H452.402C480.016 578.663 502.402 556.277 502.402 528.663V474.087C502.402 446.472 524.788 424.087 552.402 424.087H581.888C609.502 424.087 631.888 401.701 631.888 374.087V90.4192C631.888 62.805 609.502 40.4192 581.888 40.4192H257.639C230.024 40.4192 207.639 62.8049 207.639 90.4192V129.574C207.639 157.188 185.253 179.574 157.639 179.574H110.113Z" fill="#FFAF7C"/>
</g>
<mask id="mask0_221_14" style="mask-type:alpha" maskUnits="userSpaceOnUse" x="60" y="40" width="572" height="539">
<path d="M110.113 179.574C82.499 179.574 60.1133 201.96 60.1133 229.574V528.663C60.1133 556.277 82.499 578.663 110.113 578.663H452.402C480.016 578.663 502.402 556.277 502.402 528.663V474.087C502.402 446.472 524.788 424.087 552.402 424.087H581.888C609.502 424.087 631.888 401.701 631.888 374.087V90.4192C631.888 62.805 609.502 40.4192 581.888 40.4192H257.639C230.024 40.4192 207.639 62.8049 207.639 90.4192V129.574C207.639 157.188 185.253 179.574 157.639 179.574H110.113Z" fill="#58C9F6"/>
</mask>
<g mask="url(#mask0_221_14)">
<path d="M492.114 135.971C482.949 154.986 473.783 174.341 466.314 194.036C463.599 200.488 463.259 206.939 466.314 213.391C475.48 233.764 488.72 251.082 507.051 264.325C514.859 269.758 523.007 271.116 532.512 269.418C553.559 265.344 574.267 260.25 594.636 255.157L582.075 187.924C574.607 189.622 566.799 191.319 558.991 192.678C554.578 193.696 553.559 192.338 555.257 187.924C555.596 186.905 556.275 185.886 556.615 184.868C586.828 117.635 617.38 50.7412 647.594 -16.4918C656.081 -35.5073 654.383 -52.1457 643.859 -69.1238C630.959 -89.4974 612.628 -103.759 592.599 -116.662C582.754 -123.114 573.249 -123.453 563.065 -119.379C562.046 -119.039 561.028 -118.36 560.009 -118.021C536.586 -108.852 515.199 -96.2886 493.812 -83.3853C422.183 -39.9215 353.948 8.63567 286.733 58.5511C250.748 85.0369 215.783 112.541 181.156 140.725C172.669 147.516 167.238 155.665 164.861 166.531C161.127 183.849 160.448 200.827 162.825 218.484C164.522 231.388 169.614 242.253 179.798 250.743C186.588 256.175 192.359 262.627 198.809 268.739C275.869 340.387 355.646 408.978 435.083 477.909C442.891 484.7 450.699 491.491 458.507 498.622C461.901 501.678 461.562 503.036 457.488 504.734C454.093 506.092 450.359 507.111 446.625 507.79C408.943 515.939 371.262 524.429 333.92 532.578C307.441 538.351 280.962 542.765 254.822 549.216C230.38 554.989 205.598 559.403 180.817 564.836C155.696 570.609 130.574 576.381 105.114 581.475C96.9665 583.173 93.2323 586.908 91.535 594.718C86.7823 618.487 84.0665 642.935 81.3507 667.044C80.6718 673.156 82.7086 674.514 89.1586 672.817C114.28 666.365 140.08 661.951 165.54 656.178C204.24 647.689 242.94 639.2 281.64 630.711C322.717 621.882 363.793 613.054 404.87 603.886C439.496 596.076 474.462 588.945 509.428 581.814C516.557 580.456 522.667 577.06 527.08 571.627C544.394 550.575 554.238 526.805 555.596 499.301C556.275 487.077 552.201 476.55 544.394 467.382C536.586 458.214 528.438 449.725 520.291 441.236C471.067 392.339 418.449 347.178 366.509 301.337C330.525 269.758 294.201 238.518 259.575 205.92C256.519 202.864 253.464 199.808 250.409 196.752C248.033 194.375 248.033 192.338 250.409 189.961C252.785 187.924 254.822 185.547 257.538 183.509C272.135 171.285 286.733 158.722 301.669 146.837C360.059 100.996 420.146 57.872 481.93 16.4456C507.391 -0.532479 533.191 -17.5105 560.349 -32.1116C563.065 -33.4699 565.441 -35.5073 569.515 -35.1677C568.157 -26.6787 564.762 -19.2083 561.367 -11.738C539.98 38.517 515.538 87.0742 492.114 136.311V135.971Z" fill="white" fill-opacity="0.2"/>
</g>
<defs>
<filter id="filter0_d_221_14" x="0.113281" y="0.419189" width="691.774" height="658.244" filterUnits="userSpaceOnUse" color-interpolation-filters="sRGB">
<feFlood flood-opacity="0" result="BackgroundImageFix"/>
<feColorMatrix in="SourceAlpha" type="matrix" values="0 0 0 0 0 0 0 0 0 0 0 0 0 0 0 0 0 0 127 0" result="hardAlpha"/>
<feOffset dy="20"/>
<feGaussianBlur stdDeviation="30"/>
<feComposite in2="hardAlpha" operator="out"/>
<feColorMatrix type="matrix" values="0 0 0 0 1 0 0 0 0 0.533333 0 0 0 0 0.223529 0 0 0 0.5 0"/>
<feBlend mode="normal" in2="BackgroundImageFix" result="effect1_dropShadow_221_14"/>
<feBlend mode="normal" in="SourceGraphic" in2="effect1_dropShadow_221_14" result="shape"/>
</filter>
</defs>
</svg>
