<svg width="1920" height="1038" viewBox="0 0 1920 1038" fill="none" xmlns="http://www.w3.org/2000/svg">
<g clip-path="url(#clip0_243_2)">
<path d="M390.295 567.518C390.295 567.518 396.816 568.26 399.6 568.18C433.001 567.22 466.402 566.26 499.776 564.37C501.632 564.317 503.487 564.264 505.343 564.21C546.166 563.037 586.99 561.863 627.813 560.689C629.669 560.636 631.525 560.583 633.38 560.529C638.019 560.396 643.586 560.236 646.53 565.731C648.519 570.323 644.915 574.147 642.238 577.943C618.943 607.44 593.766 636.062 570.498 666.488C566.92 671.24 562.308 672.303 557.669 672.436C525.195 673.37 491.848 676.188 459.401 678.051C416.722 679.278 374.096 682.363 331.417 683.59C320.284 683.91 312.04 687.867 305.839 698.274C244.599 796.746 183.358 895.218 126.863 997.273C107.44 1032.24 88.0428 1068.13 74.2663 1105.73C70.7687 1113.26 68.2257 1121.71 67.5383 1130.1C66.03 1142.23 70.7759 1145.81 81.8028 1141.78C90.0729 1138.75 97.3617 1133.89 103.723 1129.06C122.833 1115.49 139.079 1099.21 156.227 1081.98C222.087 1014.99 281.265 941.689 339.489 867.481C371.715 825.639 408.687 787.379 454.356 760.958C484.493 743.354 516.672 732.199 551.902 730.257C574.17 729.617 596.544 732.693 617.249 742.327C658.66 761.595 671.023 804.015 666.498 840.412C661.178 881.481 643.61 916.393 617.585 947.829C563.733 1012.61 493.227 1047.19 408.877 1052.4C408.877 1052.4 407.949 1052.43 407.021 1052.45C380.115 1053.23 377.438 1057.02 376.384 1084.95C375.463 1117.52 393.679 1137.46 426.286 1141.17C457.037 1144.94 484.658 1136.7 511.19 1122.92C544.137 1106.17 573.213 1083.94 599.451 1059.94C636.557 1026.33 670.825 990.934 701.248 951.003C706.628 944.339 711.08 937.702 715.506 930.135C741.183 886.621 770.706 847.646 807.784 813.103C842.16 781.427 880.406 755.22 925.522 741.834C950.385 734.61 975.329 730.173 1002.37 734.045C1034.07 738.713 1050.27 753.126 1057.65 783.602C1057.73 786.389 1057.78 788.247 1058.74 789.15C1066.9 782.406 1075.09 776.591 1082.3 768.944C1094.04 757.448 1106.9 752.429 1122.67 751.975C1142.15 751.415 1161.64 750.855 1180.38 756.825C1184.12 757.648 1186.93 758.497 1190.69 760.249C1205.7 765.397 1206.73 769.087 1196.88 781.459C1148.51 843.294 1107.73 910.49 1074.47 981.19C1058.68 1013.26 1045.7 1046.18 1038.34 1080.8C1035.87 1092.03 1036.2 1103.18 1036.54 1115.26C1037.05 1132.91 1054.23 1149.16 1076.15 1136.44C1096.24 1124.7 1112.49 1108.43 1126.85 1091.27C1187.07 1021.66 1239.67 945.754 1287.53 866.265C1342.46 774.484 1398.38 684.535 1456.15 594.532C1491.68 538.645 1529.07 482.705 1564.58 425.889C1572.59 413.57 1580.72 405.897 1596.52 406.373C1613.22 405.893 1629.92 405.413 1647.55 404.906C1661.47 404.506 1675.39 404.106 1689.3 403.706C1693.94 403.572 1698.58 403.439 1702.29 403.332C1710.7 404.95 1712.68 409.543 1709.21 418.012C1708.37 420.826 1706.56 422.738 1704.79 425.578C1639.97 528.803 1575.15 632.027 1512.24 737.056C1447.56 844.926 1382.85 951.867 1326.65 1064.14C1316.13 1085.83 1305.61 1107.52 1299.75 1130.01C1298.08 1136.57 1294.59 1144.11 1300.31 1149.52C1307 1155.84 1315.27 1152.81 1322.63 1150.74C1332.76 1147.66 1342.81 1141.79 1351.92 1135.95C1377.45 1119.41 1401.06 1101.06 1424.63 1080.85C1490.73 1022.23 1552.05 959.092 1611.47 894.149C1635.78 867.413 1659.15 840.703 1683.48 814.896C1698.77 797.718 1709.32 776.957 1721.77 758C1734.23 739.044 1746.66 719.158 1758.18 700.229C1756.17 694.707 1751.58 696.699 1748.8 696.779C1717.31 699.544 1686.64 698.566 1655.12 700.402C1649.55 700.562 1643.06 700.749 1637.49 700.909C1622.56 698.548 1615.67 684.797 1622.72 671.576C1633.26 650.815 1645.69 630.929 1657.19 611.07C1662.52 602.548 1670.82 600.449 1680.09 600.183C1722.77 598.956 1764.5 596.826 1807.26 598.387C1821.17 597.987 1829.42 594.03 1837.42 581.711C1876.53 521.072 1917.53 461.309 1956.67 401.599C1962.9 392.121 1971.12 387.235 1983.2 387.817C2015.73 388.742 2048.23 388.738 2079.86 390.618C2092.9 392.103 2095.82 396.669 2088.71 408.032C2076.31 428.847 2063.91 449.662 2050.58 470.503C2028.4 506.477 2005.29 542.478 1983.11 578.453C1980.44 582.25 1977.76 586.046 1977.89 590.692C1980.81 595.258 1986.32 593.239 1990.04 593.133C2018.8 592.306 2047.56 591.479 2076.32 590.652C2080.96 590.519 2085.6 590.385 2089.31 590.279C2102.35 591.764 2107.26 600.922 2101.11 613.187C2095.84 623.568 2088.71 634.002 2082.51 644.409C2076.31 654.817 2070.08 664.295 2063.88 674.702C2059.48 683.198 2052.14 686.199 2042.86 686.465C2015.95 687.239 1989.05 688.012 1962.14 688.786C1948.22 689.186 1934.33 690.515 1920.39 689.986C1912.04 690.226 1907.53 695.005 1903.98 700.687C1888.03 727.183 1871.15 753.706 1855.22 781.132C1803.82 866.302 1752.38 950.543 1707.57 1039.24C1693.48 1065.69 1680.31 1092.1 1670.93 1121.2C1668.36 1128.71 1665.76 1135.3 1665.98 1142.73C1666.27 1152.95 1670.06 1155.63 1679.26 1152.58C1691.19 1147.58 1702.13 1140.76 1713.05 1133.01C1736.67 1114.66 1759.33 1095.41 1781.01 1074.33C1856.04 1003.36 1927.23 927.848 1997.46 851.436C2010.08 838.054 2017.04 822.045 2025.87 805.983C2089.52 694.423 2154.1 582.837 2217.75 471.277C2242.5 427.789 2268.17 384.275 2287.25 337.231C2291.6 326.877 2298.88 322.017 2309.99 320.768C2341.48 318.003 2372.1 317.123 2403.81 321.791C2406.59 321.711 2409.4 322.56 2412.21 323.409C2425.33 327.682 2429.26 335.008 2426.85 348.096C2425.18 354.653 2421.66 361.264 2419.03 366.919C2378.62 447.124 2333.5 524.674 2288.37 602.225C2233.52 696.793 2178.66 791.362 2123.78 885.001C2122.91 886.886 2121.13 889.727 2118.48 894.453C2125.8 890.523 2128.45 885.797 2132.05 881.974C2167.09 840.98 2204.99 802.694 2250.58 773.486C2272.44 758.908 2296.27 747.994 2323.02 741.646C2335.93 738.485 2349.82 737.156 2362.86 738.641C2388.92 740.681 2408.78 753.129 2420.61 776.967C2430.5 798.071 2432.07 820.344 2425.29 842.857C2417.6 866.325 2407.11 888.945 2394.74 910.689C2373.54 948.495 2352.34 986.301 2331.14 1024.11C2320.54 1043.01 2309.94 1061.91 2303.08 1081.64C2300.48 1088.22 2296.08 1096.72 2302.77 1103.04C2309.45 1109.35 2317.69 1105.4 2325.03 1102.4C2348.86 1091.48 2368.82 1075.1 2388.75 1057.79C2443.11 1010.66 2493.6 958.062 2541.28 904.616C2553.86 890.306 2566.45 875.995 2580 862.587C2604.35 837.709 2620.2 807.496 2637.93 778.159C2642.35 770.593 2646.78 763.026 2651.18 754.53C2656.5 746.008 2664.72 741.122 2674.93 740.829C2694.41 740.269 2713.89 739.708 2732.58 743.821C2736.29 743.714 2739.13 745.492 2742.87 746.315C2764.42 753.135 2771.29 765.956 2766.34 787.486C2761.39 809.017 2750.84 829.778 2740.27 849.61C2710.35 907.195 2674.76 961.224 2642.96 1017.93C2631.49 1038.72 2620.94 1059.48 2610.4 1080.24C2605.12 1090.62 2600.78 1100.98 2600.2 1113.08C2599.62 1125.19 2603.46 1129.73 2615.52 1129.38C2626.66 1129.06 2635.83 1125.08 2644.95 1119.24C2667.79 1106.49 2687.7 1088.25 2705.72 1069.13C2737.29 1036.61 2765.03 1000.47 2791.85 964.367C2819.55 926.374 2845.36 887.506 2869.26 846.832C2887.83 814.681 2908.29 783.405 2933.47 754.784C2940.65 746.208 2948.82 739.464 2956.98 732.72C2979.69 715.329 3003.82 714.635 3029.19 725.065C3046.1 732.018 3059.46 744.653 3070.1 759.226C3076.83 767.401 3076.04 772.074 3068.88 781.579C3051.02 806.27 3034.14 832.793 3017.23 858.387C2979.05 918.999 2942.77 981.416 2909.28 1043.75C2871.36 1113.66 2835.32 1184.44 2802.07 1255.14C2794.2 1272.1 2794.23 1273.03 2813.71 1272.47C2870.25 1268.99 2925.87 1265.53 2982.44 1262.97C3021.38 1260.92 3060.32 1258.87 3098.33 1256.85C3141.91 1254.67 3185.47 1251.55 3229.05 1249.37C3268.91 1247.3 3309.71 1245.19 3349.58 1243.12C3364.43 1242.69 3379.27 1242.26 3394.09 1240.91C3397.8 1240.8 3402.44 1240.67 3406.15 1240.56C3418.26 1242.07 3423.14 1250.3 3418.83 1261.58C3417.98 1264.4 3416.2 1267.24 3414.4 1269.15C3399.35 1294.69 3383.34 1319.33 3368.29 1344.87C3362.12 1356.21 3353.87 1360.16 3340.88 1360.54C3279.65 1362.3 3217.49 1364.08 3156.25 1365.84C3097.8 1367.52 3039.35 1369.21 2979.97 1370.91C2920.59 1372.62 2860.28 1374.35 2800.9 1376.06C2786.98 1376.46 2773.09 1377.79 2759.15 1377.26C2748.94 1377.55 2744.41 1381.4 2740.04 1390.83C2720.04 1437.9 2700.96 1484.94 2682.81 1531.96C2658.68 1596.82 2636.42 1662.55 2618.83 1729.08C2613.86 1749.68 2602.03 1758.39 2580.62 1756.22C2550.82 1753.36 2524.49 1742.02 2502.51 1720.34C2491.03 1708.58 2486.95 1695.68 2490.2 1679.78C2495.02 1653.6 2499.84 1627.42 2503.76 1602.2C2510.8 1556.43 2515.08 1511.67 2514.68 1465.19C2514.06 1443.82 2512.52 1422.48 2508.19 1401.21C2505.91 1386.4 2504 1384.59 2488.23 1385.05C2431.63 1386.68 2375.97 1388.28 2319.37 1389.9C2309.16 1390.2 2298.03 1390.52 2287.82 1390.81C2275.76 1391.16 2268.21 1386.72 2260.54 1378.57C2243.23 1357.68 2233.28 1334.72 2228.82 1308.81C2227.71 1302.34 2226.59 1295.86 2226.41 1289.35C2225.05 1274.51 2231.25 1264.11 2245.01 1258.13C2262.42 1250.19 2280.87 1245.94 2299.38 1243.55C2355.79 1235.42 2410.77 1242.21 2462.52 1265.83C2472.86 1270.18 2483.22 1275.46 2492.71 1282.63C2497.46 1286.21 2503.08 1287.91 2509.58 1287.72C2556.87 1285.43 2605.09 1283.12 2652.4 1281.76C2660.75 1281.52 2666.29 1280.43 2669.77 1271.96C2689.74 1223.96 2709.72 1175.96 2728.77 1127.99C2728.72 1126.13 2730.52 1124.22 2728.61 1122.41C2724.02 1124.4 2722.27 1128.17 2719.57 1131.04C2695.27 1157.78 2669.08 1183.64 2639.98 1204.93C2636.35 1207.83 2632.69 1209.79 2629.06 1212.68C2584.51 1245.58 2537.96 1241.34 2491.75 1216.63C2458.74 1198.98 2444.79 1165.91 2453.02 1129.4C2457.1 1109.76 2465.9 1092.77 2472.81 1074.9C2474.56 1071.13 2477.27 1068.26 2476.18 1062.71C2465.37 1074.18 2455.45 1084.7 2445.57 1096.14C2415.88 1129.54 2382.36 1158.4 2345.97 1184.56C2320.5 1202.96 2293.96 1216.74 2263.59 1225.98C2245.16 1231.16 2225.73 1233.58 2206.17 1231.35C2168.87 1225.91 2146.01 1206.11 2148.28 1155.83C2150.18 1125.09 2159.56 1095.99 2169.89 1067.8C2188.89 1017.97 2213.51 969.834 2238.12 921.7C2250.45 898.098 2262.74 873.567 2272.25 849.116C2273.97 844.417 2278.45 838.709 2273.65 833.267C2267.93 827.852 2262.52 833.587 2257.01 835.605C2244.15 840.625 2234.21 850.209 2224.27 859.794C2196.23 885.708 2173.89 916.108 2151.58 947.436C2097.14 1024.32 2050.24 1104.72 2005.25 1186.91C1999.07 1198.25 1992.87 1208.66 1987.63 1219.97C1984.13 1227.51 1978.64 1230.45 1970.24 1228.83C1953.46 1226.53 1937.58 1223.26 1922.52 1216.26C1877.34 1195.24 1863.84 1145.41 1873.93 1108.85C1880.66 1084.48 1891.13 1060.93 1901.62 1038.31C1903.34 1033.62 1906.02 1029.82 1905.83 1023.31C1899.55 1030.93 1892.34 1038.58 1886.06 1046.2C1838.41 1100.58 1788.87 1154.08 1730.72 1198.52C1710.74 1213.98 1688.85 1227.62 1664.96 1236.68C1619.95 1253.78 1575.89 1239.24 1551.5 1198.1C1530.97 1162.42 1522.48 1125.47 1538.96 1085.01C1542.46 1077.47 1545 1069.02 1548.44 1059.63C1541.05 1060.77 1538.4 1065.49 1534.79 1069.32C1505 1099 1475.24 1129.61 1443.54 1157.49C1417.25 1179.64 1390 1200.88 1360.8 1218.46C1347.09 1226.29 1332.43 1233.22 1317.75 1239.22C1255.35 1265.19 1176.22 1225.62 1161.12 1152.59C1160.98 1147.95 1160.82 1142.37 1156.05 1137.86C1145.21 1148.4 1133.44 1158.97 1122.6 1169.51C1103.63 1187.72 1082.74 1204.13 1058.94 1215.98C1036.06 1227.79 1012.13 1234.99 985.988 1230.16C953.301 1223.66 931.428 1205.69 922.143 1173.41C919.092 1164.2 917.87 1154.01 915.721 1143.84C911.055 1143.04 910.234 1146.79 908.459 1149.63C886.859 1173.5 863.324 1194.63 834.989 1210.32C801.195 1229.89 765.251 1239.3 726.015 1231.13C691.446 1223.75 669.519 1203.92 660.18 1169.78C653.973 1147.64 653.305 1124.42 655.447 1102.04C655.314 1097.39 657.99 1093.59 655.02 1087.17C648.739 1094.79 642.431 1101.48 636.124 1108.17C599.259 1150.15 557.568 1185.75 508.188 1212.28C468.88 1233.87 427.422 1245.29 381.879 1243.81C359.585 1243.52 338.112 1239.49 317.433 1230.78C284.559 1217.78 263.453 1194.21 254.115 1160.07C246.872 1134.24 246.124 1108.22 249.061 1081.17C248.981 1078.38 251.684 1075.52 248.794 1071.88C232.628 1090.94 217.362 1109.05 201.169 1127.18C170.585 1161.54 139.047 1194.99 102.709 1223.01C90.8882 1231.72 79.0403 1239.5 66.2381 1246.37C29.6867 1266.95 -21.85 1250.77 -43.1165 1221.62C-67.3 1187.91 -79.5021 1151.06 -65.8592 1108.82C-57.329 1082.54 -45.962 1058.04 -34.595 1033.53C11.0333 941.088 64.2443 854.006 118.356 765.968C130.758 745.153 144.088 724.312 157.417 703.471C159.192 700.63 161.896 697.762 161.789 694.046C146.016 694.499 131.091 692.138 115.372 694.45C89.4467 697.055 63.4415 696.873 37.4629 697.62C-2.4328 698.767 -43.203 701.799 -83.1521 701.087C-99.8526 701.567 -113.93 696.392 -124.483 684.607C-151.29 656.55 -168.051 622.625 -176.542 585.672C-179.672 573.674 -177.183 563.373 -170.054 552.939C-150.524 521.69 -129.058 493.176 -107.618 463.732C-52.2044 388.675 5.0918 314.495 57.6421 236.731C65.6719 225.341 73.7015 213.951 78.8677 199.854C72.3196 198.182 67.7341 200.174 62.2207 202.192C11.592 217.597 -37.0477 237.593 -85.6605 258.519C-203.111 307.461 -318.572 360.996 -432.044 419.123C-461.333 433.914 -489.641 450.536 -518.904 466.256C-523.463 469.177 -528.022 472.098 -532.581 475.019C-537.139 477.939 -537.96 481.683 -535.043 486.248C-531.145 492.646 -526.319 499.016 -522.448 504.485C-474.108 570.979 -423.965 635.561 -373.796 701.073C-301.433 795.704 -227.267 888.424 -160.337 987.86C-148.696 1005.19 -137.982 1022.55 -128.197 1039.94C-117.457 1058.23 -114.139 1076.73 -119.118 1097.34C-130.799 1143.24 -154.808 1180.19 -191.092 1210.06C-200.156 1217.76 -212.138 1220.9 -224.199 1221.25C-285.461 1222.08 -346.75 1221.98 -407.985 1223.74C-480.354 1225.82 -551.795 1227.87 -624.217 1228.1C-691.947 1230.04 -760.632 1231.09 -828.362 1233.03C-872.896 1234.31 -917.485 1233.74 -962.92 1235.97C-974.982 1236.32 -977.845 1233.61 -974.428 1223.28C-961.633 1183.86 -949.792 1143.53 -933.259 1104.93C-928.066 1091.76 -920.777 1086.9 -905.905 1087.41C-861.317 1087.98 -817.764 1084.87 -773.229 1083.59C-729.622 1082.34 -686.89 1082.97 -643.283 1081.72C-596.892 1080.38 -550.449 1080.91 -504.058 1079.57C-438.184 1077.68 -371.382 1075.76 -305.481 1074.8C-298.986 1074.61 -292.492 1074.42 -286.024 1073.31C-278.628 1072.16 -277.753 1070.28 -282.579 1063.91C-293.213 1049.34 -304.747 1035.72 -315.38 1021.15C-426.272 878.336 -538.064 736.483 -644.397 590.753C-653.094 578.914 -660.891 566.119 -670.516 554.307C-684.967 536.124 -690.167 516.745 -688.025 494.366C-686.096 464.553 -679.502 435.536 -667.314 407.288C-660.372 390.35 -647.73 377.898 -631.27 369.055C-563.6 332.703 -494.95 298.183 -426.246 265.52C-296.18 203.196 -166.034 143.66 -30.0274 94.1843C10.3954 79.0735 50.8718 65.821 92.4094 57.1875C94.2649 57.1342 96.1206 57.0808 97.9495 56.0983C116.426 52.7775 132.332 56.9698 146.649 70.5069C176.24 98.4837 202.198 129.355 217.237 167.979C230.234 200.152 227.351 229.063 206.839 258.48C133.67 361.944 60.475 464.479 -12.6937 567.943C-13.5681 569.828 -15.397 570.811 -16.2714 572.696C-20.7234 579.333 -19.7154 582.094 -11.3652 581.854C8.11875 581.294 27.6025 580.734 47.0865 580.174C51.7256 580.04 56.3646 579.907 60.0759 579.8C100.899 578.627 141.723 577.453 182.546 576.28C197.391 575.853 212.209 574.497 227.081 574.999C238.215 574.679 245.557 571.678 251.785 562.2C286.473 509.128 322.09 456.028 357.706 402.929C363.033 394.407 369.314 386.787 374.64 378.265C379.092 371.627 385.48 367.724 394.731 366.528C418.801 363.976 443.852 363.256 468.028 364.421C474.523 364.234 481.998 365.879 488.547 367.551C501.643 370.894 504.64 378.247 499.393 389.557C494.147 400.867 487.973 412.203 481.772 422.611C456.095 466.125 428.561 509.693 401.929 552.304C399.279 557.03 395.675 560.853 394.033 568.34M792.923 1103.66C792.923 1103.66 793.163 1112.03 793.27 1115.74C796.614 1135.17 811.7 1143.11 830.042 1135.14C840.141 1131.13 848.305 1124.39 855.513 1116.74C895.215 1076.55 923.542 1028.31 948.105 978.314C959.526 955.667 968.136 932.172 980.485 909.499C989.308 893.437 995.322 876.525 1000.41 859.641C1002.95 851.198 1004.54 841.853 1005.23 833.464C1004.83 819.527 999.1 814.112 985.236 816.371C976.886 816.611 968.669 821.496 961.353 825.426C944.92 835.198 929.494 847.73 916.906 862.041C868.3 915.514 831.068 977.028 806.085 1044.7C799.197 1063.5 794.164 1082.24 792.923 1103.66ZM412.441 982.554C471.446 967.838 516.054 936.799 544.195 882.055C546.818 876.4 548.486 869.842 549.227 863.312C548.853 850.304 542.172 843.986 529.289 848.076C518.236 851.184 510.072 857.928 501.936 865.601C482.031 883.842 464.01 902.958 447.923 924.809C434.514 942.863 422.032 960.89 413.368 982.527M2580.22 1516.31C2580.22 1516.31 2582.89 1512.52 2583.74 1509.7C2592.27 1483.42 2599.87 1457.16 2609.36 1431.78C2613.62 1418.64 2618.84 1406.4 2623.14 1394.19C2626.58 1384.79 2624.67 1382.99 2615.42 1384.18C2603.39 1385.46 2590.37 1384.9 2578.31 1385.25C2567.17 1385.57 2567.2 1386.5 2569.35 1396.67C2580.68 1435.4 2583.68 1475.3 2580.22 1516.31ZM2414.99 1292.3C2391.56 1284.61 2368.23 1280.63 2344.16 1283.18C2338.59 1283.34 2329.31 1283.61 2329.5 1290.11C2329.69 1296.61 2338.94 1295.42 2344.51 1295.26C2367.67 1293.66 2390.9 1293.92 2414.06 1292.33" fill="black" fill-opacity="0.05"/>
</g>
<defs>
<clipPath id="clip0_243_2">
<rect width="1920" height="1038" fill="white"/>
</clipPath>
</defs>
</svg>
