<svg width="574" height="539" viewBox="0 0 574 539" fill="none" xmlns="http://www.w3.org/2000/svg">
<path fill-rule="evenodd" clip-rule="evenodd" d="M573.63 50.4326C573.63 22.8184 551.245 0.432617 523.63 0.432617H51.856C24.2417 0.432617 1.85596 22.8184 1.85596 50.4326V488.677C1.85596 516.291 24.2417 538.677 51.8559 538.677H365.42C393.034 538.677 415.42 516.291 415.42 488.677V446.706C415.42 410.808 444.521 381.706 480.42 381.706H523.63C551.245 381.706 573.63 359.321 573.63 331.706V50.4326Z" fill="#98DC54"/>
<mask id="mask0_121_29" style="mask-type:alpha" maskUnits="userSpaceOnUse" x="0" y="0" width="572" height="539">
<path d="M571.542 50.4326C571.542 22.8184 549.197 0.432617 521.633 0.432617H50.7114C23.1471 0.432617 0.801758 22.8184 0.801758 50.4326V488.677C0.801758 516.291 23.147 538.677 50.7113 538.677H380.446C408.01 538.677 430.355 516.291 430.355 488.677V424.476C430.355 396.862 452.701 374.476 480.265 374.476H521.633C549.197 374.476 571.542 352.09 571.542 324.476V50.4326Z" fill="white"/>
</mask>
<g mask="url(#mask0_121_29)">
<path d="M326.464 105.984C317.298 124.999 308.132 144.354 300.664 164.049C297.948 170.5 297.608 176.952 300.664 183.404C309.829 203.777 323.069 221.095 341.4 234.338C349.208 239.771 357.356 241.129 366.861 239.431C387.908 235.356 408.616 230.263 428.985 225.169L416.424 157.936C408.956 159.634 401.148 161.332 393.34 162.69C388.927 163.709 387.908 162.351 389.606 157.936C389.945 156.918 390.624 155.899 390.964 154.88C421.177 87.6474 451.73 20.7539 481.943 -46.4791C490.43 -65.4946 488.732 -82.133 478.209 -99.1111C465.309 -119.485 446.977 -133.746 426.948 -146.65C417.103 -153.101 407.598 -153.441 397.414 -149.366C396.395 -149.027 395.377 -148.347 394.358 -148.008C370.935 -138.84 349.548 -126.276 328.161 -113.373C256.532 -69.9088 188.298 -21.3516 121.082 28.5638C85.0975 55.0495 50.1316 82.554 15.5053 110.738C7.0184 117.529 1.58681 125.678 -0.789497 136.544C-4.52372 153.862 -5.20266 170.84 -2.82635 188.497C-1.12897 201.4 3.96314 212.266 14.1474 220.755C20.9369 226.188 26.7079 232.64 33.1579 238.752C110.219 310.399 189.995 378.991 269.432 447.921C277.24 454.713 285.048 461.504 292.856 468.635C296.25 471.691 295.911 473.049 291.837 474.747C288.443 476.105 284.708 477.124 280.974 477.803C243.292 485.952 205.611 494.441 168.269 502.591C141.79 508.363 115.311 512.778 89.1712 519.229C64.729 525.002 39.9474 529.416 15.1658 534.849C-9.95531 540.621 -35.0764 546.394 -60.537 551.487C-68.6843 553.185 -72.4186 556.92 -74.1159 564.73C-78.8686 588.5 -81.5844 612.948 -84.3001 637.057C-84.9791 643.169 -82.9423 644.527 -76.4922 642.829C-51.3712 636.378 -25.5711 631.963 -0.11055 626.191C38.5895 617.702 77.2896 609.213 115.99 600.724C157.066 591.895 198.142 583.067 239.219 573.898C273.845 566.089 308.811 558.958 343.777 551.827C350.906 550.469 357.016 547.073 361.429 541.64C378.743 520.587 388.587 496.818 389.945 469.314C390.624 457.089 386.551 446.563 378.743 437.395C370.935 428.227 362.787 419.738 354.64 411.249C305.416 362.352 252.798 317.19 200.858 271.35C164.874 239.771 128.55 208.531 93.9238 175.933C90.8685 172.877 87.8132 169.821 84.758 166.765C82.3817 164.388 82.3817 162.351 84.758 159.974C87.1343 157.936 89.1711 155.56 91.8869 153.522C106.484 141.298 121.082 128.734 136.019 116.85C194.408 71.0089 254.495 27.8847 316.279 -13.5417C341.74 -30.5198 367.54 -47.4978 394.698 -62.0989C397.414 -63.4572 399.79 -65.4946 403.864 -65.155C402.506 -56.666 399.111 -49.1956 395.716 -41.7253C374.329 8.52971 349.887 57.0869 326.464 106.323V105.984Z" fill="white" fill-opacity="0.2"/>
</g>
</svg>
