<svg width="584" height="638" viewBox="0 0 584 638" fill="none" xmlns="http://www.w3.org/2000/svg">
<path fill-rule="evenodd" clip-rule="evenodd" d="M402.692 50.8001C402.692 23.1859 380.306 0.800171 352.692 0.800171L50.2394 0.800171C22.6251 0.800171 0.23938 23.1859 0.23938 50.8001V567.085C0.23938 594.699 22.6251 617.085 50.2394 617.085H523.239C550.854 617.085 573.239 594.699 573.239 567.085V216.017C573.239 188.403 550.854 166.017 523.239 166.017H452.692C425.078 166.017 402.692 143.632 402.692 116.017V50.8001Z" fill="#FFAF7C"/>
<mask id="mask0_112_26" style="mask-type:alpha" maskUnits="userSpaceOnUse" x="0" y="0" width="574" height="618">
<path d="M50.2394 1.30017H352.692C380.03 1.30017 402.192 23.462 402.192 50.8001V116.017C402.192 143.908 424.802 166.517 452.692 166.517H523.239C550.577 166.517 572.739 188.679 572.739 216.017V567.085C572.739 594.423 550.577 616.585 523.239 616.585H50.2394C22.9013 616.585 0.73938 594.423 0.73938 567.085V50.8001C0.73938 23.462 22.9013 1.30017 50.2394 1.30017Z" fill="#FF8839" stroke="black"/>
</mask>
<g mask="url(#mask0_112_26)">
<path d="M514.448 143.118C505.397 161.895 496.346 181.008 488.971 200.456C486.289 206.827 485.954 213.197 488.971 219.568C498.022 239.687 511.096 256.787 529.198 269.864C536.908 275.229 544.953 276.57 554.339 274.894C575.123 270.87 595.572 265.841 615.685 260.811L603.282 194.42C595.907 196.097 588.197 197.773 580.487 199.115C576.129 200.12 575.123 198.779 576.799 194.42C577.134 193.414 577.805 192.408 578.14 191.402C607.975 125.012 638.145 58.9563 667.979 -7.43449C676.36 -26.2117 674.684 -42.6417 664.292 -59.407C651.553 -79.5254 633.452 -93.6083 613.673 -106.35C603.952 -112.721 594.566 -113.056 584.509 -109.032C583.504 -108.697 582.498 -108.027 581.492 -107.691C558.362 -98.6379 537.243 -86.2316 516.124 -73.4899C445.392 -30.5706 378.013 17.3782 311.639 66.6683C276.106 92.8223 241.578 119.982 207.385 147.813C199.005 154.519 193.641 162.566 191.295 173.296C187.607 190.397 186.937 207.162 189.283 224.598C190.959 237.339 195.988 248.069 206.044 256.452C212.749 261.817 218.448 268.188 224.817 274.223C300.912 344.973 379.689 412.705 458.131 480.772C465.841 487.478 473.551 494.184 481.261 501.226C484.613 504.244 484.278 505.585 480.255 507.261C476.903 508.603 473.216 509.609 469.528 510.279C432.319 518.326 395.109 526.709 358.235 534.757C332.088 540.457 305.94 544.816 280.128 551.187C255.992 556.887 231.521 561.246 207.05 566.611C182.244 572.311 157.437 578.011 132.296 583.041C124.25 584.717 120.563 588.406 118.887 596.118C114.194 619.589 111.512 643.731 108.83 667.538C108.16 673.574 110.171 674.915 116.54 673.238C141.347 666.867 166.824 662.508 191.965 656.808C230.18 648.426 268.396 640.043 306.611 631.66C347.173 622.942 387.734 614.224 428.296 605.171C462.489 597.459 497.016 590.417 531.544 583.376C538.584 582.035 544.618 578.682 548.976 573.317C566.072 552.528 575.793 529.056 577.134 501.896C577.805 489.825 573.782 479.431 566.072 470.378C558.362 461.324 550.317 452.942 542.271 444.559C493.664 396.275 441.705 351.679 390.416 306.413C354.883 275.229 319.014 244.381 284.821 212.191C281.804 209.174 278.787 206.156 275.77 203.138C273.424 200.791 273.424 198.779 275.77 196.432C278.117 194.42 280.128 192.073 282.81 190.061C297.225 177.99 311.639 165.584 326.389 153.848C384.047 108.582 443.381 65.9977 504.391 25.0903C529.533 8.32494 555.01 -8.4404 581.827 -22.8586C584.509 -24.1998 586.856 -26.2117 590.878 -25.8764C589.538 -17.4937 586.185 -10.1169 582.833 -2.74019C561.714 46.8852 537.578 94.8341 514.448 143.454V143.118Z" fill="white" fill-opacity="0.2"/>
</g>
</svg>
