<svg width="38" height="38" viewBox="0 0 38 38" fill="none" xmlns="http://www.w3.org/2000/svg">
<path d="M26.3041 15.9559L26.1651 16.6494C25.9244 17.8524 24.5067 18.0312 23.6827 18.0312H21.7255C21.3151 18.0312 20.8852 17.6789 20.8043 17.277L20.7978 17.2463L20.7886 17.2163L20.4181 15.9983L20.1708 14.7633C19.9118 14.7659 19.69 14.7678 19.5073 14.7691L19.7853 16.1568L20.1649 17.4048C20.3059 18.1107 21.0046 18.6836 21.7255 18.6836H23.6827C25.1239 18.6836 26.522 18.191 26.8045 16.7779L26.9434 16.0837L27.2729 14.4344C27.0465 14.4527 26.8214 14.4716 26.597 14.4879L26.3041 15.9559Z" fill="black" stroke="black" stroke-width="0.5"/>
<path d="M17.8138 15.9975L17.4432 17.2156L17.4341 17.2462L17.4276 17.2769C17.3467 17.6788 16.9167 18.0311 16.5064 18.0311H14.5492C13.7252 18.0311 12.3075 17.8523 12.0668 16.6499L11.9278 15.9564L11.6349 14.4892C11.4104 14.4722 11.1854 14.4539 10.959 14.4357L11.2884 16.0843L11.4274 16.7778C11.7099 18.1909 13.108 18.6835 14.5492 18.6835H16.5064C17.2273 18.6835 17.926 18.1107 18.0676 17.4048L18.4473 16.1561L18.7246 14.769C18.5419 14.7677 18.3201 14.7658 18.0604 14.7625L17.8138 15.9975Z" fill="black" stroke="black" stroke-width="0.5"/>
<path d="M27.0114 7.90112C27.0446 8.12425 27.0759 8.34672 27.104 8.56723C28.8394 8.71532 30.4404 8.90909 31.83 9.15178C35.687 9.82572 36.6859 10.6314 36.7315 10.8519C36.6865 11.0809 35.687 11.8867 31.83 12.5606C28.4864 13.1438 23.9711 13.4655 19.116 13.4655C14.2608 13.4655 9.74547 13.1438 6.40255 12.5599C2.54554 11.8867 1.54605 11.0809 1.50104 10.8559C1.50104 10.8441 1.78418 9.65218 8.07858 8.86472L10.1219 8.75055C10.1474 8.5333 10.1748 8.3141 10.2061 8.09228L8.01986 8.21493C3.27884 8.80536 0.848633 9.76896 0.848633 10.8559C0.848633 12.6578 8.66574 14.1179 19.116 14.1179C29.5662 14.1179 37.3833 12.6578 37.3833 10.8559C37.3833 9.54844 33.264 8.42109 27.0114 7.90112Z" fill="black" stroke="black" stroke-width="0.5"/>
<path d="M13.7167 1.66095C13.8661 1.66095 14.0175 1.69096 14.1669 1.75098L18.874 3.63186L19.116 3.72842L19.3581 3.63186L24.0658 1.75098C24.2152 1.69161 24.3659 1.66095 24.5153 1.66095C25.0033 1.66095 25.4006 1.97802 25.5285 2.46928C26.0237 4.36777 26.8314 7.80529 26.9338 10.3431C26.0413 10.5199 23.7435 10.8546 19.116 10.8546C14.4859 10.8546 12.1881 10.5199 11.2983 10.3431C11.4007 7.80464 12.209 4.36712 12.7035 2.46797C12.8308 1.97802 13.2287 1.66095 13.7167 1.66095ZM24.5153 1.00854C24.2883 1.00854 24.0541 1.05226 23.8225 1.1449L19.116 3.02578L14.4089 1.1449C14.178 1.05226 13.9431 1.00854 13.7161 1.00854C12.9573 1.00854 12.2808 1.49915 12.0714 2.30487C11.4914 4.53479 10.6348 8.26524 10.6348 10.8559C10.6348 10.8559 12.592 11.507 19.116 11.507C25.6401 11.507 27.5973 10.8559 27.5973 10.8559C27.5973 8.26524 26.7407 4.53479 26.16 2.30487C25.9513 1.49981 25.2741 1.00854 24.5153 1.00854Z" fill="black" stroke="black" stroke-width="0.5"/>
<path d="M26.8804 7.74988C26.8432 7.53524 26.8047 7.32125 26.7649 7.10791C25.7883 7.28536 23.482 7.58808 19.1155 7.58808C14.749 7.58808 12.4427 7.28536 11.4661 7.10791C11.4263 7.32125 11.3878 7.53524 11.3506 7.74988C12.4186 7.94625 14.7431 8.23983 19.1148 8.23983C23.4866 8.23983 25.8124 7.94625 26.8804 7.74988Z" fill="black" stroke="black" stroke-width="0.5"/>
<path d="M20.0992 35.9146C23.0115 33.2705 25.7653 29.8799 27.4531 25.3287C27.1523 25.5956 26.8229 25.8141 26.4797 25.9851C24.7782 30.0502 22.198 33.1217 19.6021 35.4815C19.7678 35.6256 19.9289 35.7711 20.0992 35.9146Z" fill="black" stroke="black" stroke-width="0.5"/>
<path d="M36.832 19.0031C35.5598 18.0923 32.0727 15.8813 27.7068 15.4384L27.5796 16.0758C31.6317 16.4868 35.0425 18.5451 36.316 19.4369L31.7048 23.4727L31.1796 23.932L31.6728 24.4252L34.4736 27.226C33.0448 28.5915 28.3416 32.7205 20.4736 36.2168C20.6615 36.3707 20.852 36.5247 21.0458 36.6774C28.8499 33.1557 33.5145 29.0423 34.9322 27.6846C35.1925 27.4354 35.1893 27.0185 34.9342 26.7634L32.1334 23.9627L36.8614 19.8258C37.1328 19.5883 37.1249 19.2132 36.832 19.0031Z" fill="black" stroke="black" stroke-width="0.5"/>
<path d="M21.1579 37.6032C17.8117 35.051 13.9893 31.4008 11.7216 25.9852C11.3784 25.8136 11.0489 25.595 10.7482 25.3288C12.6343 30.4124 15.8487 34.0554 19.1303 36.8196C10.4141 33.2112 5.24057 28.6705 3.72829 27.2247L6.52906 24.424L7.02228 23.9307L6.4971 23.4715L1.8859 19.4363C3.15874 18.5445 6.57017 16.4862 10.6223 16.0751L10.495 15.4377C6.12914 15.8807 2.64204 18.0917 1.36985 19.0025C1.07757 19.2126 1.06909 19.5877 1.34049 19.8252L6.06781 23.9627L3.26704 26.7635C3.01195 27.0186 3.00869 27.4355 3.269 27.6847C4.81324 29.1637 10.2204 33.9125 19.3364 37.6032H21.1579Z" fill="black" stroke="black" stroke-width="0.5"/>
<path d="M21.7275 21.2938C22.8288 21.2938 23.4211 22.2476 23.7245 23.0474C24.037 23.8734 25.0515 24.4729 26.1358 24.4729C26.2643 24.4729 26.3909 24.4631 26.5122 24.4442C25.5708 25.1932 24.3534 25.2069 24.3339 25.2069C23.1347 25.2069 22.6017 24.5636 22.0367 23.8825C21.537 23.2803 20.9707 22.5979 19.9836 22.5979H18.2482C17.2611 22.5979 16.6948 23.2803 16.1958 23.8825C15.6308 24.5636 15.0971 25.2069 13.8986 25.2069C13.8791 25.2069 12.6754 25.1932 11.7359 24.456C11.8586 24.4749 11.9851 24.484 12.115 24.484C13.2084 24.484 14.2177 23.874 14.5158 23.0292C14.7396 22.3813 15.2954 21.2938 16.5056 21.2938C17.0445 21.2938 17.2683 21.3714 17.5521 21.4706C17.9005 21.5919 18.2958 21.7289 19.1166 21.7289C19.9373 21.7289 20.3327 21.5919 20.681 21.4706C20.9648 21.3714 21.1886 21.2938 21.7275 21.2938ZM21.7275 20.6414C20.409 20.6414 20.5166 21.0765 19.1159 21.0765C17.7152 21.0765 17.8229 20.6414 16.5043 20.6414C15.2178 20.6414 14.3299 21.5652 13.898 22.8165C13.6892 23.4082 12.8965 23.8323 12.1143 23.8323C11.2577 23.8323 10.4592 23.2777 10.6347 21.7824C10.7417 21.7824 10.8115 21.8216 10.9517 21.8216C11.0946 21.8216 11.2218 21.7609 11.2884 21.5104C11.3229 21.2024 11.0907 21.0419 10.8121 21.0419C10.4376 21.0419 9.98291 21.2116 9.98291 21.9449C9.98291 25.0177 12.5769 25.8593 13.8986 25.8593C16.5591 25.8593 16.6818 23.2503 18.2489 23.2503H19.9843C21.5513 23.2503 21.674 25.8593 24.3345 25.8593C25.6563 25.8593 28.2502 25.0177 28.2502 21.9449C28.2502 21.1848 27.7955 21.0419 27.421 21.0419C27.1418 21.0419 26.9102 21.2024 26.9448 21.5104C27.0113 21.7609 27.1385 21.8216 27.2814 21.8216C27.4217 21.8216 27.4915 21.7654 27.5985 21.7654C27.7485 23.2503 26.9911 23.8205 26.1371 23.8205C25.3562 23.8205 24.5557 23.3978 24.3352 22.8165C23.8706 21.5926 23.0316 20.6414 21.7275 20.6414Z" fill="black" stroke="black" stroke-width="0.5"/>
</svg>
