<svg width="37" height="38" viewBox="0 0 37 38" fill="none" xmlns="http://www.w3.org/2000/svg">
<path d="M35.0366 13.3174C35.3739 13.2031 35.7445 13.3016 35.9869 13.5701C36.2293 13.8386 36.2994 14.2283 36.1666 14.5692C34.2389 19.0192 30.8427 23.9575 26.6972 27.1433C29.1999 27.3965 31.6381 28.1153 33.8944 29.265C34.2157 29.4606 34.413 29.8178 34.413 30.2038C34.413 30.5899 34.2157 30.947 33.8944 31.1427C30.9272 32.7003 27.6211 33.4356 24.2981 33.277C24.7959 34.3349 25.1556 35.4567 25.3677 36.6129C25.421 36.945 25.302 37.2816 25.0544 37.4996C24.8068 37.7176 24.4669 37.7849 24.1591 37.677C21.9823 37.0371 20.0705 35.6708 18.7203 33.7902V37.1011C18.7203 37.4468 18.4498 37.727 18.116 37.727C17.7823 37.727 17.5117 37.4468 17.5117 37.1011V33.7902C16.1577 35.6667 14.2473 37.032 12.0729 37.677C11.7651 37.7849 11.4252 37.7176 11.1776 37.4996C10.93 37.2816 10.8111 36.945 10.8643 36.6129C11.0727 35.4662 11.4263 34.353 11.9158 33.302C8.5929 33.4589 5.28723 32.7237 2.31944 31.1677C1.99814 30.9721 1.80083 30.6149 1.80083 30.2289C1.80083 29.8429 1.99814 29.4857 2.31944 29.29C4.57983 28.1295 7.02436 27.4021 9.53485 27.1433C5.42557 24.0263 2.02937 19.1131 0.0653774 14.5692C-0.0673854 14.2283 0.00270977 13.8386 0.245085 13.5701C0.48746 13.3016 0.858146 13.2031 1.19543 13.3174C5.68542 14.8132 10.8039 17.7862 14.2787 21.6855C13.1909 14.8007 14.6896 6.89576 17.3002 0.743276C17.4419 0.400013 17.7676 0.177368 18.1281 0.177368C18.4885 0.177368 18.8143 0.400013 18.956 0.743276C21.5243 6.77684 23.0955 14.7131 21.9775 21.6855C25.3677 17.8363 30.4741 14.8383 35.0366 13.3174ZM33.0122 30.2164C28.6309 28.1196 23.023 27.3373 19.0769 30.2164C23.0169 33.1142 28.6672 32.2943 33.0122 30.2164ZM24.0563 36.325C23.8139 35.1952 23.4063 34.1104 22.8477 33.108C21.5105 32.8643 20.2256 32.3769 19.0527 31.6684C19.796 33.9717 21.8506 35.4801 24.0563 36.325ZM12.1757 36.325C14.3753 35.4863 16.4058 33.978 17.2095 31.6684C16.0372 32.378 14.752 32.8655 13.4145 33.108C12.8454 34.1085 12.4276 35.1935 12.1757 36.325ZM17.1552 30.2164C13.2151 27.3185 7.56482 28.1384 3.21985 30.2164C7.60107 32.3131 13.209 33.0955 17.1552 30.2164ZM1.44319 14.7319C3.69121 19.5012 7.23849 24.3017 11.6439 27.0869C13.2299 27.1577 14.7885 27.54 16.2366 28.2135C15.6422 26.9646 15.1665 25.6587 14.8165 24.3142C11.6318 19.8517 6.40455 16.5407 1.46737 14.7319H1.44319ZM18.116 1.91995C14.8104 10.1879 13.4266 21.5541 18.116 29.1336C22.8054 21.5478 21.4155 10.1879 18.116 1.91995ZM19.9954 28.2386C21.4436 27.565 23.0021 27.1827 24.5881 27.112C28.9935 24.3017 32.5468 19.4886 34.7646 14.7319C29.8154 16.547 24.5942 19.8579 21.4155 24.3393C21.0655 25.6837 20.5899 26.9896 19.9954 28.2386Z" fill="black"/>
</svg>
