<svg width="1920" height="1077" viewBox="0 0 1920 1077" fill="none" xmlns="http://www.w3.org/2000/svg">
<g clip-path="url(#clip0_60_374)">
<path d="M707.359 776.106C707.359 776.106 713.88 776.848 716.664 776.768C750.065 775.808 783.466 774.848 816.84 772.958C818.696 772.905 820.551 772.852 822.407 772.798C863.23 771.625 904.054 770.451 944.877 769.277C946.733 769.224 948.589 769.171 950.444 769.117C955.083 768.984 960.65 768.824 963.594 774.319C965.583 778.911 961.979 782.735 959.302 786.531C936.007 816.028 910.83 844.65 887.561 875.076C883.984 879.828 879.372 880.891 874.733 881.024C842.259 881.958 808.912 884.776 776.465 886.639C733.786 887.866 691.16 890.951 648.481 892.178C637.348 892.498 629.104 896.455 622.903 906.862C561.663 1005.33 500.422 1103.81 443.927 1205.86C424.503 1240.83 405.107 1276.72 391.33 1314.31C387.833 1321.85 385.29 1330.3 384.602 1338.68C383.094 1350.82 387.84 1354.4 398.867 1350.36C407.137 1347.34 414.426 1342.48 420.787 1337.64C439.897 1324.08 456.143 1307.8 473.291 1290.57C539.151 1223.58 598.329 1150.28 656.553 1076.07C688.779 1034.23 725.751 995.967 771.42 969.546C801.557 951.942 833.736 940.787 868.966 938.845C891.234 938.205 913.608 941.281 934.313 950.915C975.724 970.183 988.087 1012.6 983.562 1049C978.242 1090.07 960.674 1124.98 934.649 1156.42C880.797 1221.2 810.291 1255.77 725.941 1260.99C725.941 1260.99 725.013 1261.01 724.085 1261.04C697.179 1261.81 694.502 1265.61 693.448 1293.54C692.527 1326.11 710.743 1346.05 743.35 1349.76C774.101 1353.52 801.722 1345.29 828.254 1331.51C861.201 1314.75 890.277 1292.53 916.515 1268.53C953.62 1234.91 987.889 1199.52 1018.31 1159.59C1023.69 1152.93 1028.14 1146.29 1032.57 1138.72C1058.25 1095.21 1087.77 1056.23 1124.85 1021.69C1159.22 990.015 1197.47 963.808 1242.59 950.422C1267.45 943.198 1292.39 938.761 1319.43 942.633C1351.14 947.301 1367.34 961.714 1374.72 992.19C1374.8 994.977 1374.85 996.835 1375.8 997.738C1383.97 990.994 1392.16 985.179 1399.37 977.532C1411.11 966.036 1423.96 961.017 1439.73 960.563C1459.22 960.003 1478.7 959.443 1497.45 965.413C1501.18 966.236 1503.99 967.085 1507.76 968.837C1522.76 973.985 1523.8 977.675 1513.94 990.047C1465.57 1051.88 1424.79 1119.08 1391.54 1189.78C1375.75 1221.85 1362.76 1254.77 1355.4 1289.39C1352.94 1300.62 1353.26 1311.77 1353.61 1323.85C1354.11 1341.5 1371.3 1357.75 1393.22 1345.03C1413.31 1333.29 1429.55 1317.01 1443.92 1299.86C1504.13 1230.25 1556.73 1154.34 1604.59 1074.85C1659.53 983.072 1715.44 893.123 1773.21 803.12C1808.75 747.233 1846.14 691.293 1881.65 634.477C1889.65 622.158 1897.79 614.485 1913.59 614.961C1930.29 614.481 1946.99 614.001 1964.62 613.494C1978.53 613.094 1992.45 612.694 2006.37 612.294C2011.01 612.16 2015.65 612.027 2019.36 611.92C2027.76 613.538 2029.75 618.131 2026.28 626.6C2025.43 629.414 2023.63 631.326 2021.85 634.166C1957.03 737.391 1892.22 840.615 1829.31 945.644C1764.62 1053.51 1699.91 1160.46 1643.71 1272.73C1633.19 1294.42 1622.67 1316.11 1616.82 1338.6C1615.15 1345.16 1611.65 1352.7 1617.38 1358.11C1624.06 1364.43 1632.33 1361.4 1639.7 1359.33C1649.82 1356.25 1659.87 1350.38 1668.99 1344.54C1694.51 1328 1718.13 1309.65 1741.69 1289.44C1807.79 1230.82 1869.12 1167.68 1928.54 1102.74C1952.84 1076 1976.22 1049.29 2000.54 1023.48C2015.84 1006.31 2026.38 985.545 2038.84 966.588C2051.29 947.632 2063.72 927.746 2075.25 908.817C2073.23 903.295 2068.65 905.287 2065.86 905.367C2034.37 908.132 2003.7 907.154 1972.18 908.99C1966.62 909.15 1960.12 909.337 1954.55 909.497C1939.63 907.136 1932.73 893.385 1939.78 880.164C1950.33 859.403 1962.76 839.517 1974.26 819.658C1979.58 811.136 1987.88 809.037 1997.16 808.771C2039.84 807.544 2081.56 805.414 2124.32 806.975C2138.24 806.575 2146.48 802.618 2154.48 790.299C2193.6 729.66 2234.59 669.897 2273.74 610.187C2279.96 600.709 2288.18 595.823 2300.27 596.405C2332.79 597.33 2365.29 597.326 2396.92 599.206C2409.96 600.691 2412.88 605.257 2405.78 616.62C2393.38 637.435 2380.97 658.25 2367.65 679.091C2345.46 715.065 2322.36 751.066 2300.18 787.041C2297.5 790.838 2294.82 794.634 2294.96 799.28C2297.87 803.846 2303.39 801.827 2307.1 801.721C2335.86 800.894 2364.62 800.067 2393.39 799.24C2398.02 799.107 2402.66 798.973 2406.37 798.867C2419.42 800.352 2424.32 809.51 2418.18 821.775C2412.9 832.156 2405.77 842.59 2399.57 852.997C2393.37 863.405 2387.14 872.883 2380.94 883.29C2376.55 891.786 2369.2 894.787 2359.92 895.053C2333.02 895.827 2306.11 896.6 2279.21 897.374C2265.29 897.774 2251.4 899.103 2237.45 898.574C2229.1 898.814 2224.6 903.593 2221.05 909.275C2205.09 935.771 2188.21 962.294 2172.29 989.72C2120.88 1074.89 2069.44 1159.13 2024.64 1247.83C2010.54 1274.27 1997.37 1300.69 1987.99 1329.79C1985.42 1337.3 1982.83 1343.88 1983.04 1351.32C1983.33 1361.54 1987.13 1364.22 1996.32 1361.17C2008.25 1356.17 2019.2 1349.35 2030.12 1341.6C2053.73 1323.25 2076.39 1304 2098.07 1282.92C2173.11 1211.95 2244.29 1136.44 2314.52 1060.02C2327.14 1046.64 2334.11 1030.63 2342.93 1014.57C2406.58 903.011 2471.16 791.425 2534.81 679.865C2559.56 636.377 2585.24 592.863 2604.31 545.819C2608.66 535.465 2615.95 530.605 2627.06 529.356C2658.55 526.591 2689.17 525.711 2720.87 530.379C2723.65 530.299 2726.46 531.148 2729.27 531.997C2742.4 536.27 2746.32 543.596 2743.91 556.684C2742.24 563.241 2738.72 569.852 2736.1 575.507C2695.69 655.712 2650.56 733.262 2605.43 810.813C2550.58 905.381 2495.73 999.95 2440.85 1093.59C2439.97 1095.47 2438.2 1098.31 2435.55 1103.04C2442.86 1099.11 2445.51 1094.38 2449.12 1090.56C2484.15 1049.57 2522.05 1011.28 2567.64 982.074C2589.51 967.496 2613.34 956.582 2640.08 950.234C2652.99 947.073 2666.88 945.744 2679.93 947.229C2705.98 949.269 2725.84 961.717 2737.67 985.555C2747.56 1006.66 2749.13 1028.93 2742.35 1051.44C2734.67 1074.91 2724.17 1097.53 2711.8 1119.28C2690.6 1157.08 2669.4 1194.89 2648.2 1232.7C2637.6 1251.6 2627 1270.5 2620.14 1290.23C2617.55 1296.81 2613.15 1305.31 2619.83 1311.62C2626.51 1317.94 2634.75 1313.98 2642.1 1310.98C2665.93 1300.07 2685.88 1283.69 2705.81 1266.38C2760.17 1219.25 2810.66 1166.65 2858.34 1113.2C2870.93 1098.89 2883.52 1084.58 2897.06 1071.17C2921.42 1046.3 2937.26 1016.08 2954.99 986.747C2959.42 979.181 2963.84 971.614 2968.24 963.118C2973.57 954.596 2981.78 949.71 2991.99 949.417C3011.47 948.857 3030.96 948.296 3049.65 952.409C3053.36 952.302 3056.19 954.08 3059.93 954.903C3081.49 961.723 3088.35 974.544 3083.4 996.074C3078.45 1017.6 3067.9 1038.37 3057.33 1058.2C3027.41 1115.78 2991.82 1169.81 2960.03 1226.52C2948.55 1247.31 2938.01 1268.07 2927.46 1288.83C2922.19 1299.21 2917.84 1309.57 2917.26 1321.67C2916.68 1333.78 2920.53 1338.32 2932.59 1337.97C2943.72 1337.65 2952.89 1333.67 2962.01 1327.82C2984.86 1315.08 3004.76 1296.84 3022.78 1277.72C3054.35 1245.2 3082.1 1209.06 3108.92 1172.95C3136.61 1134.96 3162.42 1096.09 3186.32 1055.42C3204.9 1023.27 3225.36 991.993 3250.53 963.372C3257.72 954.796 3265.88 948.052 3274.04 941.308C3296.76 923.917 3320.88 923.223 3346.25 933.653C3363.17 940.606 3376.53 953.241 3387.16 967.814C3393.9 975.989 3393.1 980.662 3385.95 990.167C3368.09 1014.86 3351.21 1041.38 3334.3 1066.97C3296.11 1127.59 3259.83 1190 3226.34 1252.34C3188.42 1322.25 3152.38 1393.03 3119.13 1463.73C3111.26 1480.69 3111.29 1481.62 3130.77 1481.06C3187.32 1477.57 3242.93 1474.12 3299.5 1471.56C3338.44 1469.51 3377.38 1467.46 3415.4 1465.44C3458.98 1463.25 3502.53 1460.14 3546.11 1457.96C3585.98 1455.88 3626.78 1453.78 3666.64 1451.71C3681.49 1451.28 3696.33 1450.85 3711.15 1449.5C3714.86 1449.39 3719.5 1449.26 3723.21 1449.15C3735.33 1450.66 3740.21 1458.89 3735.89 1470.17C3735.04 1472.99 3733.27 1475.83 3731.46 1477.74C3716.41 1503.28 3700.41 1527.92 3685.36 1553.46C3679.18 1564.79 3670.94 1568.75 3657.95 1569.12C3596.71 1570.89 3534.55 1572.67 3473.31 1574.43C3414.86 1576.11 3356.41 1577.79 3297.03 1579.5C3237.65 1581.21 3177.34 1582.94 3117.96 1584.65C3104.05 1585.05 3090.16 1586.38 3076.21 1585.85C3066.01 1586.14 3061.48 1589.99 3057.1 1599.42C3037.1 1646.49 3018.02 1693.53 2999.88 1740.55C2975.74 1805.41 2953.49 1871.14 2935.9 1937.67C2930.92 1958.27 2919.1 1966.98 2897.68 1964.81C2867.88 1961.94 2841.56 1950.61 2819.58 1928.93C2808.09 1917.17 2804.01 1904.27 2807.27 1888.36C2812.09 1862.19 2816.9 1836.01 2820.82 1810.79C2827.86 1765.02 2832.15 1720.26 2831.74 1673.78C2831.13 1652.41 2829.58 1631.06 2825.26 1609.8C2822.98 1594.99 2821.07 1593.18 2805.29 1593.64C2748.7 1595.26 2693.03 1596.86 2636.43 1598.49C2626.23 1598.78 2615.09 1599.1 2604.89 1599.4C2592.83 1599.74 2585.27 1595.31 2577.61 1587.16C2560.29 1566.27 2550.35 1543.31 2545.89 1517.4C2544.77 1510.92 2543.66 1504.45 2543.47 1497.94C2542.12 1483.1 2548.32 1472.7 2562.07 1466.72C2579.49 1458.78 2597.94 1454.53 2616.44 1452.14C2672.85 1444.01 2727.83 1450.8 2779.58 1474.42C2789.92 1478.77 2800.29 1484.05 2809.78 1491.22C2814.52 1494.8 2820.14 1496.5 2826.64 1496.31C2873.93 1494.02 2922.15 1491.71 2969.47 1490.35C2977.82 1490.11 2983.36 1489.02 2986.83 1480.55C3006.81 1432.55 3026.78 1384.55 3045.83 1336.57C3045.78 1334.72 3047.58 1332.8 3045.67 1331C3041.09 1332.99 3039.34 1336.76 3036.64 1339.63C3012.33 1366.36 2986.15 1392.22 2957.05 1413.52C2953.41 1416.41 2949.76 1418.38 2946.13 1421.27C2901.57 1454.17 2855.02 1449.93 2808.81 1425.22C2775.8 1407.57 2761.85 1374.49 2770.09 1337.99C2774.17 1318.35 2782.96 1301.35 2789.88 1283.49C2791.63 1279.72 2794.33 1276.85 2793.24 1271.3C2782.43 1282.77 2772.52 1293.29 2762.63 1304.73C2732.95 1338.13 2699.42 1366.99 2663.03 1393.14C2637.56 1411.55 2611.03 1425.33 2580.65 1434.57C2562.23 1439.75 2542.8 1442.17 2523.23 1439.94C2485.93 1434.5 2463.08 1414.7 2465.35 1364.42C2467.25 1333.68 2476.63 1304.58 2486.96 1276.39C2505.95 1226.56 2530.57 1178.42 2555.19 1130.29C2567.51 1106.69 2579.8 1082.16 2589.32 1057.7C2591.04 1053 2595.52 1047.3 2590.72 1041.85C2584.99 1036.44 2579.58 1042.18 2574.07 1044.19C2561.21 1049.21 2551.28 1058.8 2541.34 1068.38C2513.3 1094.3 2490.96 1124.7 2468.64 1156.02C2414.21 1232.91 2367.31 1313.3 2322.31 1395.5C2316.14 1406.84 2309.94 1417.24 2304.69 1428.55C2301.19 1436.09 2295.71 1439.04 2287.3 1437.42C2270.52 1435.12 2254.64 1431.85 2239.58 1424.85C2194.41 1403.83 2180.9 1354 2191 1317.44C2197.72 1293.07 2208.19 1269.52 2218.68 1246.9C2220.4 1242.2 2223.08 1238.41 2222.89 1231.9C2216.61 1239.52 2209.4 1247.17 2203.12 1254.79C2155.47 1309.16 2105.94 1362.66 2047.79 1407.11C2027.8 1422.56 2005.91 1436.21 1982.03 1445.27C1937.02 1462.37 1892.96 1447.83 1868.56 1406.68C1848.03 1371.01 1839.54 1334.06 1856.02 1293.59C1859.52 1286.06 1862.06 1277.61 1865.51 1268.21C1858.11 1269.36 1855.46 1274.08 1851.86 1277.91C1822.07 1307.59 1792.31 1338.2 1760.61 1366.08C1734.32 1388.23 1707.07 1409.47 1677.86 1427.05C1664.16 1434.88 1649.5 1441.81 1634.81 1447.81C1572.42 1473.78 1493.28 1434.21 1478.18 1361.18C1478.05 1356.54 1477.89 1350.96 1473.11 1346.45C1462.27 1356.99 1450.51 1367.56 1439.67 1378.1C1420.69 1396.31 1399.8 1412.72 1376 1424.56C1353.13 1436.38 1329.19 1443.58 1303.05 1438.75C1270.37 1432.25 1248.49 1414.28 1239.21 1382C1236.16 1372.79 1234.93 1362.6 1232.78 1352.43C1228.12 1351.63 1227.3 1355.38 1225.52 1358.22C1203.92 1382.08 1180.39 1403.22 1152.05 1418.91C1118.26 1438.48 1082.31 1447.89 1043.08 1439.71C1008.51 1432.34 986.583 1412.51 977.244 1378.37C971.037 1356.23 970.369 1333 972.511 1310.62C972.378 1305.98 975.054 1302.18 972.084 1295.76C965.803 1303.38 959.495 1310.07 953.188 1316.76C916.323 1358.74 874.632 1394.34 825.252 1420.87C785.944 1442.46 744.486 1453.88 698.943 1452.4C676.649 1452.11 655.176 1448.08 634.497 1439.37C601.623 1426.37 580.517 1402.8 571.179 1368.66C563.936 1342.83 563.188 1316.81 566.125 1289.76C566.045 1286.97 568.748 1284.1 565.858 1280.47C549.691 1299.53 534.426 1317.64 518.233 1335.77C487.649 1370.13 456.111 1403.58 419.773 1431.59C407.952 1440.3 396.104 1448.08 383.302 1454.96C346.751 1475.54 295.214 1459.35 273.947 1430.21C249.764 1396.5 237.562 1359.65 251.205 1317.41C259.735 1291.13 271.102 1266.62 282.469 1242.12C328.097 1149.68 381.308 1062.59 435.42 974.556C447.822 953.741 461.151 932.9 474.481 912.059C476.256 909.218 478.96 906.35 478.853 902.634C463.08 903.087 448.155 900.726 432.436 903.038C406.511 905.643 380.506 905.461 354.527 906.208C314.631 907.355 273.861 910.387 233.912 909.675C217.211 910.155 203.134 904.98 192.581 893.195C165.774 865.138 149.013 831.213 140.522 794.26C137.392 782.262 139.881 771.961 147.01 761.527C166.54 730.278 188.006 701.764 209.446 672.32C264.86 597.263 322.156 523.083 374.706 445.319C382.736 433.929 390.765 422.539 395.932 408.442C389.384 406.77 384.798 408.762 379.285 410.78C328.656 426.185 280.016 446.181 231.403 467.107C113.953 516.049 -1.50823 569.584 -114.98 627.711C-144.27 642.502 -172.577 659.124 -201.84 674.844C-206.399 677.765 -210.958 680.686 -215.517 683.607C-220.075 686.527 -220.896 690.271 -217.979 694.836C-214.081 701.234 -209.255 707.604 -205.384 713.073C-157.044 779.567 -106.901 844.149 -56.732 909.661C15.6314 1004.29 89.797 1097.01 156.727 1196.45C168.368 1213.78 179.082 1231.14 188.867 1248.53C199.607 1266.82 202.925 1285.32 197.946 1305.92C186.265 1351.83 162.256 1388.78 125.972 1418.65C116.908 1426.35 104.926 1429.49 92.8648 1429.83C31.6028 1430.66 -29.6858 1430.57 -90.9211 1432.33C-163.29 1434.41 -234.731 1436.46 -307.153 1436.68C-374.883 1438.63 -443.568 1439.68 -511.298 1441.62C-555.832 1442.9 -600.421 1442.32 -645.856 1444.56C-657.918 1444.91 -660.781 1442.2 -657.364 1431.87C-644.569 1392.45 -632.728 1352.12 -616.195 1313.52C-611.002 1300.35 -603.713 1295.49 -588.841 1295.99C-544.253 1296.57 -500.7 1293.46 -456.165 1292.18C-412.558 1290.93 -369.826 1291.56 -326.219 1290.3C-279.828 1288.97 -233.385 1289.5 -186.994 1288.16C-121.12 1286.27 -54.3178 1284.35 11.5832 1283.38C18.0778 1283.2 24.5724 1283.01 31.0404 1281.89C38.4361 1280.75 39.3105 1278.87 34.4845 1272.5C23.8512 1257.92 12.3169 1244.31 1.68364 1229.73C-109.208 1086.92 -221 945.071 -327.333 799.341C-336.03 787.502 -343.827 774.707 -353.452 762.895C-367.903 744.712 -373.103 725.333 -370.961 702.954C-369.032 673.141 -362.438 644.124 -350.25 615.876C-343.308 598.938 -330.666 586.486 -314.206 577.643C-246.536 541.291 -177.886 506.771 -109.182 474.108C20.8841 411.784 151.03 352.248 287.037 302.772C327.459 287.661 367.936 274.409 409.473 265.776C411.329 265.722 413.185 265.669 415.013 264.686C433.489 261.365 449.396 265.558 463.713 279.095C493.304 307.072 519.262 337.943 534.301 376.567C547.298 408.74 544.415 437.651 523.903 467.068C450.734 570.532 377.539 673.067 304.37 776.531C303.496 778.416 301.667 779.399 300.793 781.284C296.341 787.921 297.349 790.682 305.699 790.442C325.183 789.882 344.666 789.322 364.15 788.762C368.79 788.628 373.429 788.495 377.14 788.388C417.963 787.215 458.787 786.041 499.61 784.868C514.455 784.441 529.273 783.085 544.145 783.587C555.279 783.267 562.621 780.266 568.849 770.788C603.537 717.716 639.154 664.616 674.77 611.517C680.097 602.995 686.378 595.375 691.704 586.853C696.156 580.215 702.544 576.312 711.795 575.116C735.865 572.564 760.916 571.844 785.092 573.009C791.587 572.822 799.062 574.467 805.61 576.139C818.707 579.482 821.704 586.835 816.457 598.145C811.211 609.455 805.037 620.791 798.836 631.199C773.159 674.713 745.625 718.281 718.993 760.892C716.343 765.618 712.739 769.441 711.097 776.928M1109.99 1312.25C1109.99 1312.25 1110.23 1320.61 1110.33 1324.33C1113.68 1343.76 1128.76 1351.7 1147.11 1343.73C1157.21 1339.72 1165.37 1332.98 1172.58 1325.33C1212.28 1285.13 1240.61 1236.89 1265.17 1186.9C1276.59 1164.26 1285.2 1140.76 1297.55 1118.09C1306.37 1102.02 1312.39 1085.11 1317.47 1068.23C1320.02 1059.79 1321.6 1050.44 1322.29 1042.05C1321.89 1028.12 1316.16 1022.7 1302.3 1024.96C1293.95 1025.2 1285.73 1030.08 1278.42 1034.01C1261.98 1043.79 1246.56 1056.32 1233.97 1070.63C1185.36 1124.1 1148.13 1185.62 1123.15 1253.29C1116.26 1272.09 1111.23 1290.83 1109.99 1312.25ZM729.504 1191.14C788.51 1176.43 833.118 1145.39 861.259 1090.64C863.882 1084.99 865.55 1078.43 866.291 1071.9C865.917 1058.89 859.236 1052.57 846.353 1056.66C835.3 1059.77 827.136 1066.52 819 1074.19C799.095 1092.43 781.073 1111.55 764.987 1133.4C751.578 1151.45 739.096 1169.48 730.432 1191.11M2897.28 1724.9C2897.28 1724.9 2899.96 1721.1 2900.81 1718.29C2909.34 1692.01 2916.94 1665.75 2926.42 1640.37C2930.69 1627.23 2935.91 1614.99 2940.2 1602.78C2943.64 1593.38 2941.74 1591.57 2932.48 1592.77C2920.45 1594.05 2907.43 1593.49 2895.37 1593.84C2884.24 1594.16 2884.26 1595.09 2886.41 1605.25C2897.74 1643.98 2900.75 1683.88 2897.28 1724.9ZM2732.06 1500.89C2708.62 1493.19 2685.29 1489.22 2661.22 1491.77C2655.66 1491.93 2646.38 1492.19 2646.56 1498.7C2646.75 1505.2 2656 1504.01 2661.57 1503.85C2684.74 1502.25 2707.96 1502.51 2731.13 1500.92" fill="black" fill-opacity="0.05"/>
</g>
<defs>
<clipPath id="clip0_60_374">
<rect width="1920" height="1077" fill="white"/>
</clipPath>
</defs>
</svg>
