<svg width="16" height="27" viewBox="0 0 16 27" fill="none" xmlns="http://www.w3.org/2000/svg">
<path d="M8.60454 8.39397C8.48989 8.21361 8.30998 8.08453 8.1024 8.03368C7.89482 7.98284 7.67562 8.01416 7.49059 8.12112C7.30556 8.22807 7.16901 8.40238 7.10946 8.60763C7.04991 8.81289 7.07198 9.03321 7.17104 9.22259L9.24257 12.8188L4.21289 11.9902L8.59625 20.7652C8.69802 20.9549 8.86967 21.0976 9.07484 21.163C9.28001 21.2284 9.50258 21.2114 9.6954 21.1155C9.88822 21.0197 10.0361 20.8525 10.1078 20.6494C10.1795 20.4464 10.1694 20.2234 10.0795 20.0277L7.15447 14.1611L12.441 15.0395L8.60454 8.39397Z" fill="black"/>
<path d="M14.0154 1.95557H12.2588V1.60755C12.2588 1.26032 12.1209 0.927322 11.8753 0.681798C11.6298 0.436274 11.2968 0.29834 10.9496 0.29834H5.28187C4.93464 0.29834 4.60164 0.436274 4.35611 0.681798C4.11059 0.927322 3.97266 1.26032 3.97266 1.60755V1.95557H2.216C1.80284 1.95557 1.40661 2.11969 1.11447 2.41183C0.822327 2.70398 0.658203 3.10021 0.658203 3.51336V25.2562C0.658203 25.4607 0.698497 25.6633 0.776783 25.8523C0.855069 26.0413 0.969816 26.213 1.11447 26.3577C1.25912 26.5024 1.43085 26.6171 1.61985 26.6954C1.80885 26.7737 2.01142 26.814 2.216 26.814H14.0154C14.4286 26.814 14.8248 26.6498 15.117 26.3577C15.4091 26.0656 15.5732 25.6693 15.5732 25.2562V3.51336C15.5732 3.10021 15.4091 2.70398 15.117 2.41183C14.8248 2.11969 14.4286 1.95557 14.0154 1.95557ZM13.916 25.1567H2.31543V3.61279H5.62988V1.95557H10.6016V3.61279H13.916V25.1567Z" fill="black"/>
</svg>
