<svg width="692" height="659" viewBox="0 0 692 659" fill="none" xmlns="http://www.w3.org/2000/svg">
<g filter="url(#filter0_d_223_31)">
<path fill-rule="evenodd" clip-rule="evenodd" d="M632 90.6407C632 63.0265 609.614 40.6407 582 40.6407H110.226C82.6114 40.6407 60.2256 63.0265 60.2256 90.6407V528.885C60.2256 556.499 82.6113 578.885 110.226 578.885H423.79C451.404 578.885 473.79 556.499 473.79 528.885V486.914C473.79 451.016 502.891 421.914 538.79 421.914H582C609.614 421.914 632 399.529 632 371.914V90.6407Z" fill="#E3605C"/>
</g>
<mask id="mask0_223_31" style="mask-type:alpha" maskUnits="userSpaceOnUse" x="60" y="40" width="572" height="539">
<path fill-rule="evenodd" clip-rule="evenodd" d="M632 90.6407C632 63.0265 609.614 40.6407 582 40.6407H110.226C82.6114 40.6407 60.2256 63.0265 60.2256 90.6407V528.885C60.2256 556.499 82.6113 578.885 110.226 578.885H423.79C451.404 578.885 473.79 556.499 473.79 528.885V486.914C473.79 451.016 502.891 421.914 538.79 421.914H582C609.614 421.914 632 399.529 632 371.914V90.6407Z" fill="#D9D9D9"/>
</mask>
<g mask="url(#mask0_223_31)">
<path d="M496.737 140.694C485.668 163.659 474.599 187.034 465.579 210.819C462.299 218.611 461.889 226.402 465.579 234.194C476.648 258.799 492.638 279.713 514.777 295.707C524.206 302.268 534.046 303.908 545.525 301.858C570.944 296.937 595.953 290.786 620.552 284.634L605.382 203.437C596.363 205.488 586.933 207.538 577.504 209.179C572.174 210.409 570.944 208.768 572.994 203.437C573.404 202.207 574.224 200.977 574.634 199.747C611.122 118.55 648.02 37.7628 684.509 -43.4341C694.758 -66.3988 692.708 -86.493 679.999 -106.997C664.42 -131.602 642.281 -148.826 618.092 -164.409C606.202 -172.201 594.723 -172.611 582.423 -167.69C581.193 -167.28 579.964 -166.46 578.734 -166.05C550.445 -154.977 524.616 -139.804 498.787 -124.221C412.281 -71.7299 329.875 -13.0877 248.699 47.1948C205.241 79.1815 163.013 112.398 121.195 146.435C110.946 154.637 104.386 164.479 101.516 177.602C97.0062 198.516 96.1862 219.021 99.0561 240.345C101.106 255.928 107.256 269.051 119.555 279.303C127.755 285.865 134.724 293.656 142.514 301.038C235.58 387.566 331.925 470.403 427.861 553.65C437.29 561.852 446.72 570.054 456.149 578.666C460.249 582.356 459.839 583.997 454.919 586.047C450.82 587.687 446.31 588.918 441.8 589.738C396.292 599.58 350.784 609.832 305.686 619.674C273.708 626.646 241.729 631.977 210.161 639.768C180.642 646.74 150.714 652.071 120.785 658.632C90.4465 665.604 60.1079 672.575 29.3594 678.726C19.5198 680.777 15.01 685.288 12.9601 694.72C7.22039 723.426 3.94055 752.952 0.660699 782.068C-0.159262 789.449 2.30062 791.09 10.0903 789.039C40.4288 781.248 71.5874 775.917 102.336 768.945C149.074 758.693 195.812 748.441 242.549 738.189C292.157 727.526 341.765 716.864 391.372 705.792C433.19 696.36 475.418 687.748 517.646 679.136C526.256 677.496 533.636 673.395 538.966 666.834C559.875 641.409 571.764 612.703 573.404 579.486C574.224 564.723 569.304 552.01 559.874 540.938C550.445 529.865 540.605 519.613 530.766 509.361C471.319 450.309 407.772 395.767 345.045 340.406C301.587 302.268 257.719 264.54 215.901 225.172C212.211 221.481 208.521 217.79 204.831 214.1C201.961 211.229 201.961 208.768 204.831 205.898C207.701 203.437 210.161 200.567 213.441 198.106C231.07 183.343 248.699 168.17 266.738 153.817C337.255 98.4555 409.822 46.3746 484.438 -3.65576C515.187 -24.16 546.345 -44.6643 579.144 -62.298C582.423 -63.9383 585.293 -66.3988 590.213 -65.9888C588.573 -55.7366 584.473 -46.7147 580.374 -37.6929C554.545 22.9998 525.026 81.642 496.737 141.104V140.694Z" fill="white" fill-opacity="0.2"/>
</g>
<defs>
<filter id="filter0_d_223_31" x="0.225586" y="0.640747" width="691.774" height="658.244" filterUnits="userSpaceOnUse" color-interpolation-filters="sRGB">
<feFlood flood-opacity="0" result="BackgroundImageFix"/>
<feColorMatrix in="SourceAlpha" type="matrix" values="0 0 0 0 0 0 0 0 0 0 0 0 0 0 0 0 0 0 127 0" result="hardAlpha"/>
<feOffset dy="20"/>
<feGaussianBlur stdDeviation="30"/>
<feComposite in2="hardAlpha" operator="out"/>
<feColorMatrix type="matrix" values="0 0 0 0 0.890196 0 0 0 0 0.376471 0 0 0 0 0.360784 0 0 0 0.5 0"/>
<feBlend mode="normal" in2="BackgroundImageFix" result="effect1_dropShadow_223_31"/>
<feBlend mode="normal" in="SourceGraphic" in2="effect1_dropShadow_223_31" result="shape"/>
</filter>
</defs>
</svg>
