<svg width="137" height="139" viewBox="0 0 137 139" fill="none" xmlns="http://www.w3.org/2000/svg">
<path d="M20.5586 0.0563913C22.002 0.925121 23.5501 1.6563 24.8529 2.69878C26.1412 3.72677 27.1841 5.06607 28.3496 6.28953C30.9623 4.71495 33.593 4.03807 36.4799 4.56655C38.9699 5.01901 40.9727 6.27505 42.7373 8.05232C50.615 15.9867 58.5216 23.8922 66.3992 31.8266C67.0235 32.4564 67.5035 32.7098 68.4634 32.3804C70.9678 31.5297 73.2665 32.127 75.2007 33.9332C75.6807 34.3821 76.0091 34.9974 76.2797 35.363C78.7877 32.8111 80.8483 30.3352 83.2733 28.3082C94.4385 18.9694 110.829 18.4264 122.662 26.8603C123.026 27.1209 123.412 27.3743 123.715 27.7001C124.459 28.5037 124.52 29.4158 123.874 30.2882C123.264 31.1099 122.402 31.3126 121.467 30.9108C121.02 30.7189 120.63 30.3859 120.226 30.1036C107.069 20.9168 88.7765 24.4206 80.0219 37.8027C79.9245 37.9511 79.8379 38.1104 79.3976 38.6461C79.8559 38.9284 80.4008 39.1311 80.7581 39.5076C83.4609 42.3671 83.4537 46.2475 80.74 49.107C79.2496 50.678 77.7232 52.2127 76.1643 53.7113C75.5291 54.323 75.2765 54.9311 75.327 55.8397C76.0452 68.3784 86.0772 79.6863 98.4801 81.8762C115.098 84.8154 130.243 73.7319 132.297 56.9727C133.185 49.7079 131.424 42.997 127.18 36.9883C126.999 36.7313 126.801 36.4815 126.624 36.2209C125.841 35.0698 125.913 33.9188 126.812 33.2057C127.754 32.46 129.006 32.6808 129.861 33.8029C132.881 37.7737 134.956 42.197 135.891 47.1053C139.456 65.8482 127.44 83.0092 108.61 86.1149C91.9196 88.8695 75.1033 77.0765 71.8772 60.3607C71.7689 59.7997 71.6462 59.2386 71.4947 58.5038C71.04 58.9237 70.6791 59.2386 70.3435 59.5752C65.5043 64.4256 60.6687 69.2833 55.8259 74.1301C52.3436 77.6159 48.54 77.6267 45.0902 74.1699C43.4988 72.5736 41.8965 70.9882 40.3195 69.3774C38.2698 67.2852 37.6744 64.8491 38.6199 62.0403C38.7281 61.7145 38.7714 61.1643 38.5838 60.9724C35.2494 57.5663 31.8753 54.2036 28.4218 50.7395C25.8669 53.99 24.2141 57.5301 23.6043 61.4502C22.0092 71.7338 25.405 80.07 33.6327 86.4298C34.4807 87.085 35.2169 87.2117 36.3103 86.8823C41.3769 85.3475 46.1619 86.0642 50.6403 88.9528C51.3367 89.4016 52.2678 89.702 53.0942 89.7093C62.5019 89.76 71.9097 89.7093 81.3174 89.7527C87.8671 89.7817 92.8218 94.0602 93.9116 100.507C94.6802 105.068 91.9665 108.358 87.3691 108.369C78.1418 108.391 68.9145 108.376 59.6836 108.376C59.1459 108.376 58.6082 108.376 57.9694 108.376V115.71C58.5216 115.71 59.0484 115.71 59.5717 115.71C71.141 115.71 82.7104 115.681 94.2797 115.721C102.085 115.749 108.05 120.875 109.339 128.538C110.324 134.416 106.661 138.771 100.707 138.771C70.2316 138.771 39.7566 138.771 9.28154 138.771C4.81764 138.771 2.20137 136.183 2.21941 131.734C2.23024 129.754 2.1725 127.745 2.46119 125.794C3.18292 120.889 6.99365 116.977 11.8617 115.999C12.8577 115.8 13.5217 115.395 14.063 114.508C15.9972 111.359 18.0145 108.264 20.075 105.035C19.6744 104.72 19.2991 104.423 18.9202 104.134C14.8497 100.999 11.3962 97.289 8.49124 93.0503C7.90664 92.1997 7.65043 91.349 8.27833 90.4224C9.14441 89.1446 10.642 89.3003 11.7751 90.6323C14.1929 93.4738 16.6468 96.2899 19.1692 99.0409C20.0353 99.9856 21.154 100.702 22.2005 101.557C25.2895 97.5785 27.0614 92.8186 30.9659 89.6333C17.6139 79.7985 15.2863 60.5924 25.3581 47.8691C21.8793 44.405 18.4042 40.9446 14.8208 37.3756C14.1424 38.2407 13.3485 39.1528 12.6628 40.141C3.64483 53.1792 1.84772 67.1549 7.27513 82.0645C7.41226 82.4445 7.57825 82.8174 7.70456 83.2011C8.10873 84.4245 7.70456 85.4887 6.6797 85.9267C5.57906 86.3973 4.38821 85.9629 3.97321 84.6707C2.86536 81.203 1.51933 77.7498 0.938339 74.1807C-1.43615 59.5571 2.12919 46.4574 11.5297 34.9829C11.8112 34.6391 12.0891 33.9549 11.9339 33.6473C9.99605 29.7633 10.2162 25.9988 12.5546 22.0859C11.2988 20.8987 9.99244 19.7331 8.7655 18.4879C5.48163 15.1542 5.48163 10.7454 8.73663 7.41164C9.96357 6.1556 11.2555 4.95747 12.4499 3.66524C13.9728 2.01465 15.6508 0.646404 17.8557 0.0455322C18.7579 0.0455322 19.6564 0.0455322 20.5586 0.0455322V0.0563913ZM55.0284 134.717C70.1522 134.717 85.2725 134.659 100.396 134.764C103.489 134.786 106.091 133.11 105.279 128.82C104.24 123.333 99.8514 119.785 93.9838 119.782C72.0648 119.771 50.1459 119.778 28.2269 119.778C23.5465 119.778 18.8661 119.742 14.1857 119.8C10.3425 119.847 7.14883 122.493 6.48123 126.297C6.18892 127.966 6.27914 129.711 6.2611 131.419C6.23223 134.011 6.95035 134.713 9.52693 134.713C24.6941 134.713 39.8612 134.713 55.0284 134.713V134.717ZM64.1547 35.3196C64.0067 35.1603 63.8624 34.9902 63.7036 34.8309C55.7176 26.8205 47.7353 18.8029 39.7385 10.8033C36.5377 7.60348 32.5862 7.62158 29.3745 10.8323C25.3256 14.8791 21.2875 18.9368 17.2494 22.9909C13.7779 26.4803 13.7671 30.2846 17.2278 33.7595C25.0225 41.5817 32.8172 49.4002 40.6154 57.2188C40.9222 57.5265 41.2578 57.8088 41.5176 58.0441C49.0886 50.4427 56.5873 42.9137 64.1547 35.3196ZM78.9285 44.3073C78.5279 43.558 78.3078 42.8377 77.8459 42.349C76.1173 40.5139 74.3347 38.7293 72.5159 36.981C71.2024 35.7177 69.7553 35.7214 68.4526 37.0245C60.0119 45.4584 51.5857 53.9104 43.1776 62.3769C41.8496 63.7162 41.8893 65.1785 43.2209 66.5468C44.9133 68.2915 46.6275 70.0181 48.3704 71.7121C49.7237 73.0297 51.1707 73.0297 52.5276 71.6723C60.9358 63.2673 69.3295 54.8479 77.6979 46.4031C78.2284 45.8674 78.4918 45.0674 78.9285 44.3073ZM53.8087 115.644C53.8087 113.52 53.8231 111.46 53.8051 109.397C53.7762 106.555 53.9963 103.674 53.621 100.88C52.8921 95.4646 48.9514 91.4902 43.7081 90.3898C38.7173 89.3437 33.593 91.53 30.6592 96.0583C26.6644 102.226 22.7274 108.43 18.7687 114.62C18.5846 114.91 18.4439 115.228 18.2238 115.648H53.8087V115.644ZM57.8395 104.246C58.4097 104.279 58.8066 104.318 59.2 104.318C68.5139 104.318 77.8242 104.326 87.1382 104.318C89.4693 104.318 90.2921 103.301 89.8916 100.977C89.159 96.7243 85.7705 93.8394 81.3571 93.8213C72.9453 93.7923 64.5336 93.8104 56.1182 93.814C55.9161 93.814 55.714 93.8466 55.3423 93.8792C57.2838 97.1152 58.0416 100.492 57.8431 104.246H57.8395ZM25.3978 8.90658C24.0842 7.60348 22.8248 6.26057 21.4607 5.03349C20.0425 3.75935 18.2129 3.77021 16.8236 5.08778C14.9291 6.88316 13.0851 8.73645 11.2988 10.6368C10.0718 11.9435 9.99244 13.7859 11.1544 15.0746C12.4427 16.5043 13.9006 17.7821 15.2394 19.0816C18.5738 15.7406 21.9118 12.3996 25.4014 8.91019L25.3978 8.90658Z" fill="black"/>
<path d="M121.074 43.4351C120.024 45.7734 121.435 47.3227 123.473 49.042C126.516 51.6084 126.072 56.6651 122.799 58.96C121.182 60.093 120.612 61.2441 120.965 63.2566C121.756 67.7704 117.858 71.5964 113.373 70.8073C111.55 70.4888 110.342 70.9051 109.263 72.4941C106.668 76.3165 101.093 76.3165 98.4835 72.505C97.4442 70.9883 96.3111 70.4707 94.514 70.782C89.7758 71.6037 85.9398 67.7451 86.8059 62.996C87.1199 61.2803 86.6832 60.1762 85.2686 59.2098C81.2558 56.4588 81.2522 50.9026 85.2542 48.1371C86.593 47.2141 87.1524 46.1861 86.8276 44.4957C85.8749 39.562 89.7903 35.7034 94.7666 36.5902C96.2534 36.8545 97.3468 36.4744 98.2381 35.1749C101.158 30.9145 106.581 30.9109 109.497 35.1749C110.471 36.6011 111.67 36.8472 113.236 36.5396C117.292 35.7396 121.052 38.8779 121.074 43.4351ZM91.0605 61.9246C91.0028 62.2829 90.9126 62.8114 90.8223 63.3435C90.4074 65.794 91.7642 67.1623 94.2145 66.7352C97.3287 66.1886 99.7646 67.1804 101.54 69.8372C102.85 71.7955 104.903 71.7702 106.235 69.7902C108.021 67.1333 110.475 66.185 113.582 66.7424C115.928 67.1659 117.393 65.7289 116.924 63.4195C116.281 60.2704 117.313 57.856 119.926 56.0606C121.954 54.667 121.925 52.6762 119.879 51.2537C117.324 49.48 116.296 47.091 116.909 43.9998C117.386 41.5999 115.921 40.1629 113.528 40.6009C110.486 41.1583 108.046 40.2244 106.278 37.6218C104.838 35.5007 102.886 35.5224 101.425 37.6653C99.7177 40.1665 97.354 41.1149 94.4166 40.6479C91.6632 40.2099 90.3568 41.4768 90.862 44.1952C91.4069 47.1236 90.4001 49.4257 88.0293 51.1378C85.7161 52.8065 85.7197 54.5838 88.0834 56.2416C89.9924 57.5773 90.909 59.4451 91.0569 61.9282L91.0605 61.9246Z" fill="black"/>
</svg>
