<svg width="147" height="130" viewBox="0 0 147 130" fill="none" xmlns="http://www.w3.org/2000/svg">
<g clip-path="url(#clip0_67_12)">
<path d="M146.689 51.6699C145.143 53.3848 143.654 55.1609 142.02 56.7918C141.285 57.5252 141.055 58.2012 141.266 59.1713C141.56 60.5158 141.782 61.8794 142 63.2391C142.28 64.9999 142.242 66.7339 140.672 67.9218C139.061 69.1402 137.339 68.7315 135.678 67.9218C133.974 67.093 132.283 65.5957 130.579 65.5919C128.934 65.5843 127.273 67.0891 125.634 67.96C123.939 68.8614 122.308 68.7391 120.812 67.5933C119.384 66.5009 118.994 65.019 119.369 63.262C119.69 61.7762 119.951 60.2714 120.089 58.7588C120.138 58.2088 119.897 57.487 119.53 57.0745C118.485 55.9057 117.298 54.863 116.185 53.7515C114.899 52.4643 114.106 50.9442 114.719 49.1185C115.297 47.3883 116.793 46.7389 118.485 46.4792C120.085 46.2309 121.704 46.0629 123.281 45.7153C123.82 45.5969 124.433 45.1309 124.708 44.6497C125.581 43.1257 126.274 41.5024 127.108 39.9517C127.881 38.5118 128.93 37.343 130.744 37.3736C132.489 37.4003 133.504 38.5462 134.254 39.9326C135.092 41.4795 135.777 43.1066 136.65 44.6306C136.925 45.108 137.538 45.5625 138.077 45.6924C139.417 46.0132 140.795 46.1966 142.169 46.3303C144.366 46.548 145.931 47.5448 146.689 49.6723V51.6737V51.6699ZM123.61 64.1558C125.064 63.4033 126.266 62.9144 127.322 62.2117C129.63 60.6762 131.835 60.7603 134.127 62.2346C135.207 62.9297 136.405 63.4377 137.786 64.1558C137.476 62.3606 137.297 60.8978 136.96 59.4731C136.432 57.2425 137.021 55.4626 138.782 53.996C139.926 53.0411 140.986 51.9907 142.088 50.9824C140.228 50.4056 138.636 50.1345 137.036 49.9549C135.169 49.7411 133.844 48.8549 133.044 47.1362C132.336 45.6122 131.555 44.1264 130.69 42.3847C129.86 44.0424 129.098 45.4098 128.478 46.8382C127.632 48.7862 126.216 49.7945 124.1 49.9893C122.561 50.1306 121.038 50.4362 119.212 50.7112C120.617 52.0862 121.776 53.2626 122.986 54.3932C124.36 55.6765 124.873 57.1661 124.463 59.0338C124.119 60.6037 123.927 62.2078 123.61 64.1558Z" fill="black"/>
<path d="M116.304 103.768C118.761 108.443 117.666 113.003 113.38 116.124C114.581 118.129 115.159 120.264 114.627 122.636C113.781 126.413 110.547 129.182 106.67 129.209C99.7961 129.255 92.922 129.228 86.048 129.217C84.4481 129.217 83.5372 128.422 83.5296 127.128C83.5219 125.844 84.4558 124.985 86.0174 124.95C87.9694 124.908 89.9175 124.939 92.1719 124.939C90.6562 121.788 90.9279 118.889 92.7115 116.158C86.5647 112.132 87.4029 104.398 92.7115 101.209C90.7213 98.0346 90.5835 94.7957 92.7689 91.4574C90.8437 90.239 89.4544 88.6043 88.8076 86.4195C88.176 84.2883 88.2985 82.199 89.2554 80.0639H83.319C83.319 80.992 83.3344 81.9202 83.319 82.8445C83.1736 91.1939 77.3751 97.4273 69.1155 98.1186C67.2898 98.2714 66.2526 97.6297 66.1148 96.2662C65.9694 94.8529 66.8038 94.0623 68.6333 93.8752C75.0442 93.222 79.0476 88.8869 79.0055 82.4549C78.9864 79.4872 79.1931 76.6226 80.1959 73.7694C80.881 71.8215 81.0647 69.6864 81.3824 67.6239C81.6273 66.0311 82.5268 65.0419 83.7975 65.1832C85.0682 65.3207 85.8069 66.31 85.6691 67.8912C85.5543 69.2166 85.3476 70.5381 85.1103 71.8482C84.8806 73.101 84.5553 74.3385 84.2453 75.7097C84.8577 75.7097 85.3744 75.7097 85.8949 75.7097C93.4387 75.7097 100.986 75.8892 108.523 75.6601C115.929 75.4347 120.012 83.2455 116.369 88.6234C116.319 88.6959 116.323 88.8029 116.304 88.8984C122.045 94.0088 122.049 98.7221 116.319 103.771L116.304 103.768ZM102.881 88.0123C105.028 88.0123 107.171 88.0428 109.319 88.0046C111.646 87.9626 113.372 86.2973 113.433 84.1202C113.494 81.9049 111.761 80.0639 109.368 80.0257C105.124 79.9608 100.879 79.957 96.6384 80.0257C94.254 80.0639 92.5125 81.9393 92.5929 84.1431C92.6732 86.324 94.3994 87.9626 96.7341 88.0046C98.7856 88.0428 100.833 88.0123 102.885 88.0123H102.881ZM105.82 100.322C107.918 100.322 110.015 100.353 112.113 100.315C114.532 100.269 116.285 98.5808 116.296 96.354C116.308 94.1349 114.574 92.3626 112.155 92.3244C107.96 92.2633 103.761 92.2595 99.5664 92.3244C97.1552 92.3626 95.4137 94.1654 95.4481 96.3769C95.4787 98.5922 97.247 100.269 99.6659 100.311C101.714 100.349 103.765 100.319 105.817 100.319L105.82 100.322ZM102.854 112.636C104.952 112.636 107.049 112.667 109.146 112.629C111.673 112.579 113.445 110.891 113.433 108.622C113.422 106.395 111.692 104.669 109.25 104.635C105.105 104.577 100.956 104.577 96.8069 104.635C94.3573 104.665 92.6235 106.365 92.5852 108.592C92.5469 110.853 94.3343 112.579 96.8451 112.629C98.8469 112.671 100.849 112.636 102.85 112.636H102.854ZM102.988 124.92C104.228 124.92 105.468 124.966 106.705 124.908C108.81 124.813 110.402 123.262 110.559 121.226C110.712 119.233 109.311 117.235 107.244 117.082C104.454 116.876 101.626 116.88 98.8316 117.071C96.7571 117.212 95.3256 119.191 95.4596 121.173C95.5974 123.213 97.1858 124.801 99.2717 124.905C100.508 124.966 101.748 124.916 102.988 124.92Z" fill="black"/>
<path d="M30.344 124.87H45.4661V75.6868H30.344C30.344 76.1948 30.344 76.6951 30.344 77.1993C30.344 82.7261 30.344 88.2529 30.344 93.7797C30.344 94.2074 30.3822 94.6505 30.2904 95.0592C30.0225 96.2203 29.3029 96.9231 28.0628 96.8429C26.8419 96.7627 26.1376 96.0331 26.0764 94.8186C26.0113 93.5352 26.0534 92.248 26.0534 90.9609C26.0534 85.3386 26.0496 79.7163 26.0534 74.0941C26.0534 72.0239 26.7232 71.3364 28.7747 71.3326C34.8374 71.3211 40.9038 71.3211 46.9664 71.3326C49.171 71.3364 49.8561 72.0468 49.86 74.2583C49.86 75.2895 49.86 76.3208 49.86 77.7951C54.8662 73.6243 59.7423 69.8888 64.2166 65.7294C67.6804 62.5096 68.6258 58.0599 68.5684 53.4154C68.5569 52.4185 68.5952 51.414 68.7406 50.4285C69.2994 46.6396 71.9365 44.2563 75.8137 43.9545C79.1971 43.691 82.3662 45.8452 83.369 49.3018C84.1383 51.9487 84.7086 54.6529 85.2903 57.3456C85.5889 58.7321 84.8387 59.8168 83.6101 60.0384C82.3432 60.2675 81.394 59.5418 81.0725 58.1324C80.5329 55.7682 80.0315 53.3925 79.4114 51.0511C78.8679 48.9962 77.4441 47.9955 75.7065 48.2629C73.8923 48.5417 72.9775 49.8289 72.8015 51.9411C72.5527 54.9623 72.4417 58.037 71.7681 60.9703C70.8686 64.8738 68.488 68.0593 65.4528 70.6336C62.3297 73.2843 59.0036 75.6982 55.8307 78.2917C53.9897 79.8004 52.2444 81.4313 50.5221 83.0737C50.1585 83.4174 49.8867 84.0514 49.8867 84.5518C49.8561 96.2241 49.8676 107.9 49.8753 119.573C49.8753 119.664 49.9135 119.756 49.9671 119.974C50.9355 120.142 51.9497 120.314 52.9678 120.493C55.6891 120.971 58.1846 121.99 60.4045 123.637C61.6407 124.557 62.9956 124.966 64.5419 124.947C68.1244 124.905 71.703 124.928 75.2855 124.939C75.806 124.939 76.3418 124.958 76.8432 125.088C77.9073 125.363 78.4661 126.15 78.401 127.2C78.3359 128.308 77.6929 129.163 76.5179 129.171C71.8408 129.202 67.156 129.282 62.4866 129.049C61.0628 128.98 59.5395 128.186 58.3224 127.341C55.8078 125.604 53.1018 124.633 49.8561 124.393C49.8561 125.203 49.8714 125.982 49.8561 126.765C49.8179 128.38 49.0906 129.194 47.5214 129.202C41.1717 129.228 34.822 129.232 28.4685 129.202C26.8266 129.194 26.0573 128.342 26.0534 126.677C26.042 119.29 26.042 111.907 26.0534 104.52C26.0534 102.927 26.8381 102.007 28.1279 101.98C29.4828 101.953 30.3325 102.901 30.3363 104.562C30.3516 110.757 30.344 116.952 30.344 123.144C30.344 123.663 30.344 124.183 30.344 124.87Z" fill="black"/>
<path d="M61.8973 26.7745C62.1155 25.5141 62.3757 23.8221 62.7202 22.1453C62.9384 21.0797 62.7891 20.2738 61.8858 19.529C60.7491 18.5932 59.7233 17.5161 58.6976 16.4543C57.5111 15.2244 56.7877 13.7692 57.3618 12.0428C57.9359 10.3164 59.398 9.60977 61.0859 9.32713C62.636 9.06741 64.1938 8.82296 65.7553 8.64345C66.5935 8.54796 67.1026 8.22712 67.4547 7.41357C68.1169 5.8896 68.8862 4.40764 69.6631 2.93332C70.4324 1.46664 71.5233 0.397186 73.3375 0.431561C75.121 0.465937 76.2386 1.50102 77.0156 2.97534C77.6356 4.15174 78.3246 5.31668 78.7609 6.56565C79.312 8.14309 80.3493 8.71602 81.9338 8.79622C83.2619 8.86498 84.5824 9.12852 85.8952 9.36151C89.5083 10.007 90.7101 13.307 88.2835 16.0685C87.0894 17.4244 85.6732 18.5817 84.4599 19.9224C84.0925 20.3272 83.8705 21.0682 83.9279 21.6182C84.0925 23.2224 84.4255 24.8113 84.701 26.404C84.9881 28.054 84.5058 29.4405 83.1701 30.445C81.8113 31.4648 80.2957 31.7207 78.7303 30.9492C77.1917 30.193 75.7143 29.3107 74.1527 28.6041C73.6819 28.3902 72.9509 28.3978 72.4763 28.6117C70.9185 29.3183 69.4603 30.2579 67.8949 30.9454C64.5842 32.4006 61.8246 30.6437 61.8973 26.7669V26.7745ZM66.2414 27.0075C67.7571 26.2169 69.0316 25.6669 70.1798 24.9297C72.3117 23.5623 74.3479 23.5929 76.4759 24.9221C77.6471 25.6554 78.9255 26.2207 80.4143 26.9961C80.1235 25.2811 79.9933 23.9023 79.645 22.5807C78.9982 20.1248 79.691 18.2227 81.6315 16.6262C82.6955 15.7477 83.6179 14.7011 84.7853 13.5477C83.0514 13.2727 81.7003 12.9213 80.3378 12.8678C77.7581 12.7685 76.2157 11.466 75.2779 9.15908C74.7574 7.87573 74.0379 6.67641 73.3107 5.23647C72.4725 6.91704 71.7185 8.29587 71.0908 9.72818C70.2602 11.6188 68.8709 12.6081 66.8194 12.8143C65.2463 12.9709 63.6885 13.2688 62.0734 13.5095C63.3862 14.8807 64.5497 16.1373 65.7592 17.3442C66.961 18.5435 67.4853 19.9033 67.137 21.6144C66.8002 23.2835 66.5744 24.9755 66.2453 27.0037L66.2414 27.0075Z" fill="black"/>
<path d="M93.4925 38.9472C93.8446 36.8885 94.1202 35.101 94.4685 33.3287C94.6407 32.4579 94.5182 31.8124 93.8025 31.186C92.5854 30.1204 91.418 28.9822 90.3234 27.7943C89.1905 26.5606 88.379 25.1207 88.9761 23.3828C89.577 21.6411 91.0889 21.0338 92.7653 20.7627C94.4111 20.4953 96.076 20.3196 97.7065 19.9758C98.2117 19.8689 98.7896 19.4297 99.0461 18.9751C99.846 17.5734 100.497 16.0838 101.224 14.64C102.02 13.0588 103.264 12.1612 105.086 12.1765C106.846 12.1917 108.056 13.0817 108.833 14.598C109.591 16.08 110.272 17.6039 111.083 19.0553C111.313 19.4678 111.86 19.8613 112.323 19.9529C114.004 20.2967 115.714 20.4762 117.406 20.7741C121.345 21.4731 122.474 24.628 119.833 27.6836C118.715 28.9784 117.345 30.0555 116.216 31.3388C115.822 31.7857 115.588 32.5763 115.646 33.176C115.795 34.784 116.135 36.3691 116.407 37.9656C116.69 39.6309 116.147 40.983 114.781 41.957C113.391 42.9462 111.883 43.1295 110.329 42.3351C108.844 41.575 107.397 40.7347 105.882 40.051C105.411 39.8371 104.68 39.8333 104.209 40.0472C102.69 40.7309 101.262 41.6094 99.7541 42.3198C97.5725 43.3511 95.3105 42.9882 94.3422 41.384C93.8714 40.6049 93.7259 39.6309 93.4963 38.9472H93.4925ZM116.43 24.945C114.635 24.6814 113.139 24.3797 111.623 24.2537C109.503 24.0741 108.094 23.0505 107.241 21.1217C106.594 19.6588 105.836 18.2456 105.036 16.6223C104.205 18.2991 103.444 19.7238 102.785 21.1943C101.947 23.0734 100.554 24.0512 98.5026 24.246C96.9333 24.395 95.3832 24.712 93.814 24.9526C94.9699 26.1787 95.9382 27.3665 97.0749 28.3634C98.7781 29.8568 99.2068 31.6291 98.7475 33.7642C98.4337 35.2232 98.2346 36.7052 97.9438 38.4316C99.6278 37.5569 101.086 36.8694 102.479 36.0635C104.221 35.059 105.886 35.0857 107.619 36.0635C109.013 36.8503 110.456 37.5493 112.132 38.4201C111.81 36.5486 111.569 34.9635 111.259 33.386C110.892 31.5069 111.313 29.937 112.767 28.6117C113.984 27.504 115.098 26.2856 116.43 24.9373V24.945Z" fill="black"/>
<path d="M4.55836 63.8158C4.76887 62.5936 5.04444 60.8557 5.38125 59.1331C5.56114 58.2241 5.46163 57.5137 4.68084 56.8605C3.62447 55.9782 2.66762 54.9699 1.69163 53.9921C0.371167 52.6668 -0.386661 51.116 0.206589 49.2216C0.773046 47.3997 2.24277 46.6931 4.00338 46.4372C5.4157 46.2309 6.82419 45.9674 8.24799 45.8299C9.20484 45.7382 9.76747 45.3524 10.1502 44.4434C10.7626 43.0035 11.5243 41.6246 12.2285 40.2229C12.994 38.7027 14.1728 37.7058 15.9258 37.744C17.6902 37.7822 18.9762 38.6913 19.7494 40.2993C20.4498 41.7583 21.1158 43.2365 21.9233 44.6344C22.1989 45.1118 22.819 45.5702 23.3548 45.6886C25.0274 46.0552 26.7421 46.2271 28.4299 46.5212C30.091 46.8153 31.3579 47.6709 31.9052 49.3323C32.4411 50.9594 31.8823 52.3268 30.7302 53.4879C29.5208 54.7025 28.2309 55.8446 27.0865 57.1203C26.7191 57.529 26.4933 58.2699 26.5507 58.8238C26.7229 60.4776 27.0904 62.1085 27.3353 63.7547C27.8099 66.9745 24.6217 69.461 21.598 68.235C21.0277 68.002 20.4268 67.7652 19.9484 67.3909C17.2424 65.2634 14.59 65.2672 11.8993 67.4176C11.4286 67.7957 10.82 68.0249 10.2497 68.2579C6.96963 69.5985 4.48564 67.8874 4.55836 63.8273V63.8158ZM15.9564 42.358C15.1335 44.0156 14.3795 45.3983 13.7556 46.8344C12.9098 48.7785 11.4936 49.7945 9.37708 49.9855C7.83845 50.1268 6.31132 50.4285 4.49329 50.6997C5.84437 52.0213 6.95049 53.1824 8.14465 54.2518C9.59524 55.5543 10.1081 57.1088 9.74451 59.0071C9.43449 60.6342 9.18188 62.2727 8.85655 64.1748C10.4143 63.3651 11.7998 62.7387 13.0858 61.9519C15.0493 60.7488 16.9209 60.7908 18.8729 61.9634C20.1283 62.7158 21.4641 63.3307 23.0065 64.1328C22.8228 62.9106 22.7998 61.9023 22.5089 60.9779C21.4985 57.7314 22.1913 55.1074 25.0082 53.064C25.8464 52.4567 26.5124 51.6126 27.4578 50.6844C25.4522 50.398 23.8562 50.1383 22.2487 49.9473C20.4421 49.7296 19.137 48.8778 18.3524 47.2125C17.6252 45.6695 16.8405 44.1531 15.9526 42.3618L15.9564 42.358Z" fill="black"/>
<path d="M48.4782 42.8507C47.7931 42.549 46.3693 42.1747 45.244 41.3802C42.8174 39.6614 40.5631 39.4896 38.1862 41.3878C37.6045 41.8538 36.8658 42.1517 36.1692 42.4535C33.2068 43.7254 30.0147 41.4719 30.3171 38.2711C30.474 36.6173 30.7955 34.9749 31.1247 33.344C31.3007 32.4732 31.1936 31.8277 30.474 31.2013C29.3219 30.2044 28.2541 29.1082 27.1901 28.0197C25.9806 26.7745 25.085 25.3613 25.6821 23.5394C26.2715 21.7404 27.768 21.0376 29.5057 20.7512C31.0558 20.4953 32.6097 20.2279 34.1751 20.0675C35.0554 19.9796 35.5032 19.5671 35.8439 18.7956C36.4601 17.4053 37.126 16.0303 37.8647 14.7011C38.6991 13.1924 39.8014 11.932 41.7113 11.9091C43.6518 11.8862 44.712 13.1886 45.531 14.7011C46.2774 16.08 46.8668 17.5466 47.6553 18.8987C47.9347 19.38 48.5509 19.8421 49.0944 19.9605C50.721 20.3196 52.3936 20.4647 54.0317 20.7741C55.7081 21.0911 57.0937 21.8665 57.6525 23.6196C58.196 25.3307 57.4496 26.7019 56.3282 27.886C55.2144 29.0624 54.0547 30.1968 52.8452 31.2777C52.1793 31.8735 52.1027 32.477 52.2673 33.302C52.6003 34.9787 52.9447 36.6708 53.0557 38.3743C53.2318 41.0746 51.6128 42.8545 48.482 42.8469L48.4782 42.8507ZM41.696 16.6567C40.8463 18.3564 40.0387 19.8612 39.3306 21.4043C38.5384 23.1345 37.2064 24.0016 35.3501 24.2231C33.7235 24.4179 32.1045 24.6929 30.275 24.9641C31.4997 26.1825 32.4796 27.2901 33.5933 28.2335C35.3999 29.7613 35.9166 31.5947 35.3846 33.8558C35.0516 35.269 34.8908 36.7281 34.6114 38.4277C36.2764 37.5645 37.7308 36.8732 39.1163 36.0711C40.8539 35.0666 42.5227 35.0781 44.2603 36.052C45.6612 36.8388 47.1041 37.5493 48.7805 38.4277C48.4896 36.6746 48.3098 35.1774 47.9806 33.7145C47.4945 31.5565 47.9806 29.8072 49.7068 28.3481C50.8703 27.3627 51.8999 26.2169 53.1744 24.9602C51.2722 24.6776 49.7335 24.395 48.1796 24.2384C46.1932 24.0398 44.8153 23.1154 43.9924 21.2744C43.315 19.7619 42.5227 18.3067 41.696 16.6529V16.6567Z" fill="black"/>
<path d="M34.6607 88.7532C34.6607 87.9015 34.6263 87.0459 34.6684 86.1942C34.7296 84.949 35.5525 84.0858 36.6816 84.0209C37.7839 83.956 38.8518 84.7886 38.9053 85.9726C38.9934 87.9091 38.9934 89.8571 38.9053 91.7973C38.8479 93.0158 37.8566 93.7758 36.6893 93.73C35.5334 93.6804 34.7296 92.863 34.6684 91.5949C34.6263 90.6477 34.6607 89.7005 34.6607 88.7532Z" fill="black"/>
</g>
<defs>
<clipPath id="clip0_67_12">
<rect width="146.689" height="128.801" fill="white" transform="translate(0 0.431549)"/>
</clipPath>
</defs>
</svg>
