<svg width="378" height="363" viewBox="0 0 378 363" fill="none" xmlns="http://www.w3.org/2000/svg">
<g filter="url(#filter0_d_223_32)">
<path d="M317.302 232.113C317.302 259.727 294.916 282.113 267.302 282.113L110.873 282.113C83.2584 282.113 60.8726 259.727 60.8726 232.113L60.8726 90.7211C60.8726 63.1068 83.2584 40.7211 110.873 40.7211L267.302 40.7211C294.916 40.7211 317.302 63.1069 317.302 90.7211L317.302 232.113Z" fill="#E3605C"/>
</g>
<mask id="mask0_223_32" style="mask-type:alpha" maskUnits="userSpaceOnUse" x="60" y="40" width="258" height="243">
<path d="M317.302 232.113C317.302 259.727 294.916 282.113 267.302 282.113L110.873 282.113C83.2584 282.113 60.8726 259.727 60.8726 232.113L60.8726 90.7211C60.8726 63.1068 83.2584 40.7211 110.873 40.7211L267.302 40.7211C294.916 40.7211 317.302 63.1069 317.302 90.7211L317.302 232.113Z" fill="#D9D9D9"/>
</mask>
<g mask="url(#mask0_223_32)">
<path d="M256.943 32.2877C251.979 42.5869 247.014 53.0701 242.969 63.7372C241.498 67.2316 241.314 70.7259 242.969 74.2203C247.934 85.2552 255.104 94.6349 265.033 101.808C269.262 104.75 273.675 105.486 278.823 104.566C290.223 102.359 301.439 99.6006 312.471 96.8419L305.668 60.4267C301.623 61.3463 297.394 62.2659 293.165 63.0015C290.775 63.5533 290.223 62.8176 291.143 60.4267C291.326 59.875 291.694 59.3232 291.878 58.7715C308.242 22.3563 324.79 -13.875 341.155 -50.2901C345.751 -60.5894 344.832 -69.6012 339.132 -78.7969C332.145 -89.8318 322.216 -97.5563 311.368 -104.545C306.036 -108.039 300.888 -108.223 295.372 -106.016C294.82 -105.832 294.268 -105.465 293.717 -105.281C281.03 -100.315 269.446 -93.5101 257.862 -86.5214C219.066 -62.9802 182.109 -36.6804 145.703 -9.6449C126.213 4.70047 107.275 19.5976 88.52 34.8625C83.9233 38.5408 80.9814 42.9548 79.6943 48.8401C77.6718 58.2197 77.304 67.4155 78.5911 76.979C79.5104 83.9678 82.2685 89.8531 87.7845 94.451C91.4619 97.3936 94.5876 100.888 98.0811 104.198C139.819 143.005 183.028 180.155 226.053 217.49C230.282 221.168 234.511 224.847 238.74 228.709C240.579 230.364 240.395 231.1 238.189 232.019C236.35 232.755 234.327 233.307 232.305 233.675C211.895 238.089 191.486 242.686 171.261 247.1C156.919 250.227 142.577 252.618 128.419 256.112C115.181 259.239 101.758 261.63 88.3361 264.572C74.7299 267.699 61.1236 270.825 47.3335 273.584C42.9207 274.504 40.8981 276.527 39.9788 280.757C37.4046 293.631 35.9337 306.873 34.4628 319.931C34.095 323.241 35.1982 323.977 38.6917 323.057C52.298 319.563 66.2719 317.172 80.062 314.045C101.023 309.448 121.984 304.85 142.945 300.252C165.193 295.47 187.441 290.688 209.689 285.722C228.444 281.492 247.382 277.63 266.32 273.768C270.182 273.032 273.491 271.193 275.882 268.251C285.259 256.848 290.591 243.974 291.326 229.077C291.694 222.456 289.488 216.754 285.259 211.789C281.03 206.823 276.617 202.225 272.204 197.627C245.543 171.143 217.044 146.683 188.912 121.854C169.422 104.75 149.748 87.83 130.993 70.1742C129.339 68.519 127.684 66.8637 126.029 65.2085C124.742 63.9211 124.742 62.8176 126.029 61.5302C127.316 60.4267 128.419 59.1393 129.89 58.0358C137.797 51.4149 145.703 44.61 153.793 38.173C185.418 13.3445 217.963 -10.0127 251.427 -32.4504C265.217 -41.6461 279.191 -50.8419 293.901 -58.7502C295.372 -59.4859 296.659 -60.5894 298.865 -60.4054C298.13 -55.8076 296.291 -51.7614 294.452 -47.7153C282.868 -20.4959 269.63 5.80395 256.943 32.4716V32.2877Z" fill="white" fill-opacity="0.2"/>
</g>
<defs>
<filter id="filter0_d_223_32" x="0.873047" y="0.721069" width="376.429" height="361.391" filterUnits="userSpaceOnUse" color-interpolation-filters="sRGB">
<feFlood flood-opacity="0" result="BackgroundImageFix"/>
<feColorMatrix in="SourceAlpha" type="matrix" values="0 0 0 0 0 0 0 0 0 0 0 0 0 0 0 0 0 0 127 0" result="hardAlpha"/>
<feOffset dy="20"/>
<feGaussianBlur stdDeviation="30"/>
<feComposite in2="hardAlpha" operator="out"/>
<feColorMatrix type="matrix" values="0 0 0 0 0.890196 0 0 0 0 0.376471 0 0 0 0 0.360784 0 0 0 0.5 0"/>
<feBlend mode="normal" in2="BackgroundImageFix" result="effect1_dropShadow_223_32"/>
<feBlend mode="normal" in="SourceGraphic" in2="effect1_dropShadow_223_32" result="shape"/>
</filter>
</defs>
</svg>
