<svg width="1920" height="1078" viewBox="0 0 1920 1078" fill="none" xmlns="http://www.w3.org/2000/svg">
<g clip-path="url(#clip0_60_364)">
<path d="M-164.826 391.355C-164.826 391.355 -157.737 392.162 -154.711 392.075C-118.401 391.032 -82.0905 389.988 -45.8093 387.934C-43.7921 387.876 -41.7749 387.818 -39.7576 387.76C4.62148 386.484 49.0006 385.208 93.3796 383.933C95.3969 383.875 97.4141 383.817 99.4313 383.759C104.474 383.614 110.526 383.44 113.726 389.413C115.889 394.405 111.97 398.562 109.061 402.689C83.7367 434.755 56.3665 465.869 31.0717 498.946C27.1824 504.112 22.1686 505.267 17.1255 505.412C-18.176 506.427 -54.4282 509.491 -89.7007 511.516C-136.097 512.849 -182.435 516.203 -228.832 517.537C-240.935 517.885 -249.897 522.186 -256.637 533.5C-323.212 640.549 -389.787 747.597 -451.202 858.541C-472.317 896.552 -493.403 935.572 -508.38 976.439C-512.182 984.636 -514.947 993.813 -515.694 1002.93C-517.334 1016.12 -512.174 1020.02 -500.187 1015.63C-491.197 1012.34 -483.273 1007.06 -476.358 1001.8C-455.583 987.052 -437.922 969.359 -419.281 950.627C-347.684 877.805 -283.352 798.116 -220.057 717.445C-185.024 671.958 -144.832 630.366 -95.1852 601.644C-62.4235 582.506 -27.4415 570.381 10.8569 568.269C35.0637 567.573 59.3864 570.917 81.8954 581.39C126.913 602.336 140.352 648.451 135.433 688.018C129.65 732.665 110.553 770.617 82.2609 804.791C23.7185 875.215 -52.9286 912.801 -144.626 918.469C-144.626 918.469 -145.634 918.498 -146.643 918.527C-175.893 919.368 -178.802 923.496 -179.948 953.856C-180.949 989.266 -161.147 1010.94 -125.7 1014.97C-92.2704 1019.07 -62.2445 1010.12 -33.4011 995.134C2.41545 976.919 34.0234 952.759 62.5473 926.667C102.884 890.125 140.137 851.651 173.211 808.242C179.059 800.997 183.899 793.782 188.71 785.556C216.624 738.252 248.718 695.882 289.026 658.33C326.395 623.896 367.973 595.406 417.017 580.854C444.047 573.001 471.163 568.178 500.558 572.387C535.025 577.462 552.636 593.13 560.655 626.26C560.742 629.29 560.8 631.31 561.838 632.291C570.712 624.96 579.615 618.638 587.452 610.326C600.215 597.828 614.191 592.372 631.338 591.879C652.519 591.27 673.699 590.661 694.075 597.152C698.138 598.046 701.193 598.969 705.286 600.873C721.598 606.469 722.723 610.481 712.005 623.931C659.427 691.151 615.093 764.2 578.943 841.058C561.775 875.922 547.663 911.71 539.659 949.344C536.982 961.551 537.33 973.672 537.708 986.803C538.26 1005.99 556.937 1023.65 580.767 1009.83C602.608 997.069 620.269 979.375 635.884 960.73C701.342 885.052 758.527 802.535 810.553 716.123C870.271 616.348 931.055 518.564 993.857 420.722C1032.49 359.968 1073.14 299.156 1111.74 237.392C1120.44 224 1129.28 215.658 1146.46 216.175C1164.62 215.654 1182.77 215.132 1201.93 214.581C1217.06 214.146 1232.19 213.711 1247.32 213.276C1252.37 213.131 1257.41 212.986 1261.44 212.87C1270.58 214.629 1272.74 219.622 1268.97 228.828C1268.05 231.887 1266.09 233.966 1264.16 237.054C1193.69 349.269 1123.23 461.483 1054.84 575.66C984.521 692.926 914.174 809.181 853.078 931.235C841.642 954.815 830.206 978.395 823.843 1002.84C822.029 1009.97 818.227 1018.16 824.453 1024.05C831.716 1030.92 840.707 1027.63 848.718 1025.38C859.726 1022.03 870.646 1015.65 880.558 1009.3C908.306 991.313 933.978 971.368 959.592 949.402C1031.45 885.671 1098.12 817.035 1162.71 746.436C1189.13 717.371 1214.54 688.335 1240.99 660.28C1257.62 641.606 1269.08 619.036 1282.62 598.429C1296.16 577.821 1309.67 556.204 1322.2 535.625C1320.01 529.623 1315.03 531.788 1312 531.875C1277.77 534.881 1244.42 533.818 1210.16 535.814C1204.11 535.988 1197.05 536.191 1191 536.365C1174.77 533.798 1167.27 518.85 1174.94 504.477C1186.4 481.907 1199.91 460.29 1212.41 438.701C1218.21 429.437 1227.22 427.156 1237.31 426.866C1283.71 425.532 1329.07 423.217 1375.55 424.913C1390.68 424.479 1399.64 420.177 1408.34 406.785C1450.86 340.865 1495.43 275.896 1537.98 210.986C1544.75 200.682 1553.68 195.371 1566.82 196.004C1602.18 197.009 1637.51 197.004 1671.89 199.049C1686.07 200.663 1689.24 205.626 1681.52 217.979C1668.04 240.607 1654.56 263.234 1640.07 285.891C1615.95 324.999 1590.83 364.136 1566.72 403.243C1563.81 407.371 1560.9 411.498 1561.05 416.548C1564.22 421.512 1570.21 419.317 1574.25 419.201C1605.51 418.303 1636.78 417.404 1668.05 416.505C1673.09 416.36 1678.13 416.215 1682.17 416.099C1696.35 417.713 1701.68 427.669 1695 441.003C1689.27 452.288 1681.52 463.63 1674.78 474.944C1668.03 486.258 1661.26 496.562 1654.52 507.876C1649.74 517.111 1641.76 520.373 1631.67 520.663C1602.42 521.504 1573.17 522.345 1543.92 523.186C1528.79 523.621 1513.69 525.066 1498.54 524.491C1489.46 524.752 1484.56 529.947 1480.7 536.123C1463.36 564.927 1445.01 593.761 1427.69 623.575C1371.81 716.163 1315.89 807.741 1267.18 904.167C1251.86 932.913 1237.54 961.63 1227.35 993.262C1224.55 1001.43 1221.73 1008.59 1221.96 1016.67C1222.28 1027.78 1226.4 1030.69 1236.4 1027.37C1249.37 1021.94 1261.27 1014.53 1273.14 1006.1C1298.81 986.153 1323.45 965.226 1347.02 942.309C1428.58 865.156 1505.97 783.07 1582.32 700.002C1596.03 685.455 1603.61 668.052 1613.2 650.591C1682.39 529.314 1752.6 408.009 1821.79 286.732C1848.7 239.457 1876.61 192.153 1897.35 141.011C1902.07 129.755 1910 124.473 1922.07 123.115C1956.31 120.109 1989.59 119.152 2024.06 124.227C2027.08 124.14 2030.14 125.063 2033.19 125.986C2047.46 130.63 2051.73 138.595 2049.11 152.823C2047.29 159.951 2043.46 167.138 2040.61 173.285C1996.68 260.476 1947.62 344.78 1898.56 429.085C1838.93 531.891 1779.3 634.696 1719.64 736.491C1718.69 738.54 1716.76 741.628 1713.88 746.766C1721.83 742.493 1724.72 737.356 1728.63 733.2C1766.72 688.636 1807.92 647.015 1857.48 615.263C1881.25 599.416 1907.16 587.551 1936.23 580.65C1950.27 577.214 1965.37 575.769 1979.55 577.383C2007.87 579.601 2029.46 593.133 2042.32 619.047C2053.07 641.989 2054.78 666.202 2047.41 690.676C2039.06 716.189 2027.65 740.778 2014.2 764.416C1991.15 805.515 1968.11 846.614 1945.06 887.713C1933.54 908.262 1922.01 928.812 1914.56 950.255C1911.73 957.413 1906.95 966.648 1914.22 973.516C1921.48 980.383 1930.44 976.082 1938.42 972.82C1964.33 960.955 1986.02 943.146 2007.69 924.327C2066.78 873.093 2121.67 815.916 2173.5 757.815C2187.18 742.258 2200.87 726.7 2215.59 712.124C2242.07 685.08 2259.3 652.235 2278.57 620.343C2283.38 612.118 2288.19 603.892 2292.97 594.656C2298.76 585.392 2307.69 580.08 2318.79 579.761C2339.97 579.153 2361.15 578.544 2381.47 583.014C2385.5 582.898 2388.59 584.831 2392.65 585.725C2416.08 593.139 2423.55 607.077 2418.16 630.483C2412.78 653.889 2401.32 676.458 2389.82 698.018C2357.3 760.618 2318.61 819.352 2284.04 881.001C2271.57 903.599 2260.1 926.169 2248.64 948.738C2242.91 960.023 2238.18 971.279 2237.55 984.439C2236.92 997.599 2241.1 1002.53 2254.21 1002.16C2266.32 1001.81 2276.29 997.478 2286.2 991.128C2311.04 977.272 2332.67 957.442 2352.27 936.661C2386.58 901.304 2416.74 862.022 2445.9 822.769C2476 781.467 2504.06 739.214 2530.05 694.997C2550.24 660.046 2572.48 626.047 2599.85 594.932C2607.66 585.61 2616.53 578.278 2625.41 570.947C2650.1 552.041 2676.32 551.287 2703.91 562.625C2722.29 570.183 2736.82 583.919 2748.38 599.761C2755.7 608.649 2754.84 613.728 2747.06 624.061C2727.64 650.902 2709.29 679.736 2690.91 707.558C2649.4 773.45 2609.96 841.304 2573.55 909.071C2532.33 985.063 2493.15 1062.01 2457 1138.86C2448.45 1157.31 2448.48 1158.32 2469.66 1157.71C2531.13 1153.92 2591.59 1150.16 2653.08 1147.38C2695.42 1145.15 2737.75 1142.93 2779.07 1140.73C2826.45 1138.35 2873.8 1134.97 2921.17 1132.6C2964.51 1130.34 3008.86 1128.05 3052.2 1125.8C3068.34 1125.33 3084.48 1124.87 3100.59 1123.4C3104.62 1123.28 3109.67 1123.14 3113.7 1123.02C3126.87 1124.66 3132.18 1133.61 3127.48 1145.87C3126.56 1148.93 3124.63 1152.02 3122.67 1154.1C3106.31 1181.86 3088.91 1208.65 3072.55 1236.41C3065.83 1248.74 3056.87 1253.04 3042.75 1253.44C2976.18 1255.36 2908.61 1257.3 2842.04 1259.21C2778.49 1261.04 2714.95 1262.87 2650.4 1264.72C2585.85 1266.58 2520.29 1268.46 2455.74 1270.32C2440.61 1270.75 2425.51 1272.2 2410.35 1271.62C2399.25 1271.94 2394.33 1276.13 2389.57 1286.37C2367.83 1337.54 2347.09 1388.69 2327.36 1439.8C2301.12 1510.31 2276.93 1581.77 2257.81 1654.09C2252.4 1676.49 2239.55 1685.95 2216.26 1683.59C2183.87 1680.48 2155.25 1668.16 2131.36 1644.58C2118.88 1631.8 2114.44 1617.77 2117.98 1600.49C2123.22 1572.03 2128.45 1543.58 2132.71 1516.16C2140.37 1466.4 2145.03 1417.75 2144.58 1367.21C2143.92 1343.98 2142.24 1320.78 2137.54 1297.66C2135.05 1281.56 2132.98 1279.6 2115.83 1280.09C2054.31 1281.86 1993.79 1283.6 1932.27 1285.37C1921.17 1285.69 1909.07 1286.03 1897.97 1286.35C1884.86 1286.73 1876.65 1281.91 1868.32 1273.05C1849.49 1250.34 1838.68 1225.38 1833.83 1197.22C1832.62 1190.17 1831.41 1183.13 1831.21 1176.06C1829.73 1159.93 1836.47 1148.62 1851.43 1142.12C1870.36 1133.49 1890.42 1128.87 1910.53 1126.27C1971.85 1117.43 2031.62 1124.81 2087.88 1150.49C2099.12 1155.22 2110.39 1160.96 2120.71 1168.75C2125.87 1172.65 2131.98 1174.49 2139.04 1174.29C2190.45 1171.8 2242.87 1169.28 2294.31 1167.8C2303.38 1167.54 2309.41 1166.36 2313.18 1157.15C2334.9 1104.97 2356.61 1052.79 2377.32 1000.64C2377.26 998.619 2379.22 996.541 2377.15 994.579C2372.16 996.744 2370.26 1000.84 2367.32 1003.96C2340.9 1033.02 2312.44 1061.14 2280.8 1084.29C2276.85 1087.43 2272.88 1089.57 2268.93 1092.71C2220.5 1128.48 2169.89 1123.87 2119.66 1097.01C2083.77 1077.82 2068.61 1041.86 2077.56 1002.18C2081.99 980.823 2091.56 962.352 2099.07 942.929C2100.98 938.83 2103.91 935.713 2102.73 929.682C2090.98 942.151 2080.2 953.58 2069.46 966.02C2037.19 1002.33 2000.74 1033.7 1961.18 1062.14C1933.49 1082.14 1904.65 1097.12 1871.62 1107.17C1851.6 1112.8 1830.47 1115.43 1809.2 1113.01C1768.66 1107.1 1743.81 1085.57 1746.28 1030.91C1748.35 997.491 1758.54 965.86 1769.77 935.21C1790.42 881.038 1817.18 828.712 1843.94 776.387C1857.34 750.729 1870.7 724.061 1881.04 697.48C1882.92 692.372 1887.78 686.166 1882.57 680.251C1876.34 674.364 1870.46 680.599 1864.47 682.793C1850.49 688.249 1839.69 698.669 1828.89 709.089C1798.4 737.26 1774.12 770.307 1749.86 804.364C1690.69 887.949 1639.7 975.342 1590.78 1064.7C1584.07 1077.02 1577.33 1088.33 1571.63 1100.63C1567.83 1108.83 1561.86 1112.03 1552.73 1110.27C1534.48 1107.76 1517.22 1104.22 1500.85 1096.6C1451.74 1073.75 1437.06 1019.58 1448.03 979.841C1455.35 953.347 1466.72 927.747 1478.13 903.157C1480 898.049 1482.91 893.922 1482.71 886.851C1475.88 895.135 1468.04 903.448 1461.21 911.731C1409.41 970.842 1355.57 1029 1292.35 1077.32C1270.62 1094.12 1246.82 1108.96 1220.86 1118.8C1171.93 1137.39 1124.03 1121.58 1097.51 1076.86C1075.2 1038.07 1065.97 997.901 1083.88 953.917C1087.69 945.72 1090.45 936.542 1094.19 926.326C1086.16 927.568 1083.27 932.705 1079.36 936.861C1046.97 969.131 1014.62 1002.41 980.157 1032.72C951.575 1056.79 921.956 1079.88 890.203 1098.99C875.306 1107.51 859.371 1115.04 843.407 1121.56C775.576 1149.8 689.546 1106.78 673.132 1027.39C672.986 1022.34 672.812 1016.28 667.624 1011.37C655.84 1022.83 643.047 1034.32 631.263 1045.78C610.634 1065.58 587.929 1083.42 562.054 1096.29C537.187 1109.14 511.166 1116.96 482.751 1111.71C447.217 1104.65 423.438 1085.11 413.344 1050.02C410.028 1040.01 408.7 1028.93 406.363 1017.87C401.291 1017.01 400.399 1021.08 398.468 1024.17C374.988 1050.11 349.402 1073.09 318.6 1090.15C281.862 1111.42 242.787 1121.65 200.135 1112.76C162.555 1104.74 138.718 1083.19 128.566 1046.08C121.817 1022.01 121.091 996.758 123.42 972.429C123.275 967.379 126.185 963.252 122.956 956.268C116.128 964.552 109.271 971.825 102.414 979.099C62.3379 1024.73 17.0162 1063.44 -36.6651 1092.27C-79.3967 1115.74 -124.465 1128.16 -173.974 1126.55C-198.21 1126.24 -221.554 1121.85 -244.034 1112.39C-279.771 1098.25 -302.715 1072.63 -312.867 1035.52C-320.74 1007.44 -321.553 979.156 -318.361 949.748C-318.448 946.717 -315.509 943.6 -318.651 939.647C-336.226 960.37 -352.821 980.055 -370.424 999.768C-403.672 1037.12 -437.957 1073.48 -477.459 1103.94C-490.31 1113.4 -503.19 1121.86 -517.107 1129.34C-556.842 1151.71 -612.867 1134.11 -635.986 1102.43C-662.276 1065.78 -675.541 1025.72 -660.71 979.807C-651.437 951.235 -639.08 924.596 -626.723 897.958C-577.12 797.462 -519.275 702.796 -460.449 607.09C-446.968 584.463 -432.477 561.806 -417.987 539.149C-416.057 536.061 -413.118 532.944 -413.234 528.904C-430.381 529.397 -446.606 526.83 -463.694 529.344C-491.877 532.176 -520.147 531.977 -548.389 532.789C-591.759 534.036 -636.08 537.332 -679.509 536.559C-697.664 537.08 -712.967 531.455 -724.44 518.643C-753.581 488.142 -771.802 451.263 -781.032 411.092C-784.436 398.048 -781.729 386.85 -773.98 375.507C-752.748 341.537 -729.413 310.538 -706.106 278.53C-645.866 196.937 -583.579 116.295 -526.452 31.7583C-517.723 19.3764 -508.994 6.99454 -503.378 -8.33055C-510.496 -10.1477 -515.481 -7.98261 -521.475 -5.78848C-576.513 10.9574 -629.389 32.6956 -682.236 55.444C-809.916 108.649 -935.433 166.846 -1058.79 230.036C-1090.63 246.115 -1121.4 264.185 -1153.21 281.274C-1158.17 284.45 -1163.13 287.625 -1168.08 290.8C-1173.04 293.975 -1173.93 298.044 -1170.76 303.008C-1166.52 309.962 -1161.27 316.888 -1157.07 322.832C-1104.52 395.118 -1050.01 465.326 -995.467 536.543C-916.801 639.417 -836.176 740.212 -763.416 848.309C-750.761 867.152 -739.115 886.025 -728.477 904.927C-716.801 924.809 -713.195 944.924 -718.607 967.319C-731.305 1017.22 -757.405 1057.39 -796.85 1089.87C-806.704 1098.24 -819.729 1101.64 -832.841 1102.02C-899.438 1102.92 -966.065 1102.82 -1032.63 1104.73C-1111.31 1106.99 -1188.97 1109.23 -1267.7 1109.47C-1341.33 1111.58 -1415.99 1112.72 -1489.62 1114.84C-1538.04 1116.23 -1586.51 1115.6 -1635.9 1118.03C-1649.01 1118.41 -1652.13 1115.46 -1648.41 1104.24C-1634.5 1061.38 -1621.63 1017.54 -1603.66 975.577C-1598.01 961.262 -1590.09 955.979 -1573.92 956.525C-1525.45 957.154 -1478.1 953.771 -1429.69 952.379C-1382.28 951.016 -1335.83 951.703 -1288.43 950.34C-1237.99 948.89 -1187.51 949.461 -1137.07 948.011C-1065.46 945.952 -992.842 943.865 -921.202 942.816C-914.141 942.613 -907.081 942.41 -900.05 941.197C-892.01 939.955 -891.059 937.906 -896.306 930.98C-907.865 915.138 -920.404 900.335 -931.963 884.493C-1052.51 729.245 -1174.04 575.037 -1289.64 416.615C-1299.09 403.744 -1307.57 389.835 -1318.03 376.994C-1333.74 357.228 -1339.39 336.161 -1337.06 311.832C-1334.97 279.423 -1327.8 247.879 -1314.55 217.171C-1307 198.757 -1293.26 185.22 -1275.37 175.608C-1201.8 136.089 -1127.17 98.562 -1052.48 63.0549C-911.091 -4.69711 -769.609 -69.4189 -621.757 -123.204C-577.814 -139.631 -533.812 -154.038 -488.656 -163.423C-486.639 -163.481 -484.622 -163.539 -482.634 -164.607C-462.549 -168.217 -445.257 -163.66 -429.692 -148.943C-397.525 -118.53 -369.305 -84.9703 -352.956 -42.9821C-338.828 -8.00639 -341.962 23.4219 -364.26 55.4011C-443.802 167.877 -523.372 279.343 -602.914 391.818C-603.864 393.867 -605.852 394.936 -606.803 396.985C-611.643 404.2 -610.547 407.201 -601.469 406.94C-580.289 406.332 -559.108 405.723 -537.927 405.114C-532.884 404.969 -527.841 404.824 -523.806 404.708C-479.427 403.432 -435.048 402.156 -390.669 400.88C-374.531 400.417 -358.422 398.943 -342.255 399.489C-330.152 399.141 -322.17 395.879 -315.4 385.575C-277.69 327.88 -238.972 270.156 -200.253 212.432C-194.463 203.167 -187.635 194.884 -181.844 185.619C-177.005 178.404 -170.06 174.16 -160.003 172.86C-133.837 170.086 -106.605 169.303 -80.3225 170.57C-73.2622 170.367 -65.1353 172.155 -58.0169 173.972C-43.7803 177.606 -40.5221 185.6 -46.2254 197.895C-51.9286 210.19 -58.6402 222.514 -65.3811 233.827C-93.2953 281.132 -123.227 328.494 -152.178 374.817C-155.059 379.955 -158.978 384.111 -160.762 392.249M272.87 974.198C272.87 974.198 273.131 983.289 273.247 987.329C276.883 1008.45 293.282 1017.08 313.222 1008.42C324.201 1004.06 333.075 996.73 340.912 988.417C384.071 944.718 414.866 892.276 441.568 837.931C453.983 813.312 463.344 787.77 476.767 763.122C486.36 745.661 492.898 727.277 498.427 708.921C501.191 699.744 502.918 689.585 503.665 680.465C503.229 665.314 497.004 659.428 481.933 661.883C472.855 662.144 463.923 667.455 455.97 671.727C438.105 682.35 421.336 695.974 407.651 711.531C354.812 769.661 314.337 836.534 287.178 910.1C279.69 930.533 274.219 950.909 272.87 974.198ZM-140.752 842.54C-76.6067 826.543 -28.1138 792.8 2.47782 733.288C5.32944 727.14 7.14342 720.012 7.94878 712.912C7.54226 698.771 0.278681 691.904 -13.7258 696.35C-25.7421 699.728 -34.6164 707.06 -43.4616 715.401C-65.0995 735.231 -84.691 756.012 -102.178 779.766C-116.756 799.392 -130.325 818.989 -139.743 842.511M2215.83 1422.79C2215.83 1422.79 2218.74 1418.66 2219.66 1415.6C2228.94 1387.03 2237.2 1358.49 2247.51 1330.89C2252.15 1316.61 2257.82 1303.3 2262.49 1290.03C2266.23 1279.81 2264.16 1277.85 2254.1 1279.15C2241.02 1280.54 2226.87 1279.93 2213.76 1280.31C2201.65 1280.66 2201.68 1281.67 2204.02 1292.72C2216.33 1334.82 2219.6 1378.2 2215.83 1422.79ZM2036.22 1179.27C2010.74 1170.9 1985.38 1166.58 1959.21 1169.35C1953.16 1169.52 1943.08 1169.81 1943.28 1176.88C1943.48 1183.95 1953.54 1182.65 1959.59 1182.48C1984.78 1180.75 2010.02 1181.03 2035.21 1179.3" fill="black" fill-opacity="0.05"/>
</g>
<defs>
<clipPath id="clip0_60_364">
<rect width="1920" height="1078" fill="white"/>
</clipPath>
</defs>
</svg>
