<svg width="149" height="149" viewBox="0 0 149 149" fill="none" xmlns="http://www.w3.org/2000/svg">
<g clip-path="url(#clip0_67_32)">
<path d="M0.540039 107.405C1.4981 105.435 2.34458 103.396 3.4373 101.503C20.1514 72.5058 36.9001 43.5277 53.6411 14.5497C56.7769 9.11725 61.7634 7.76299 67.204 10.8986C84.072 20.6207 100.936 30.3468 117.793 40.092C123.183 43.2084 124.511 48.2676 121.398 53.6731C119.509 56.9549 117.619 60.2405 115.699 63.503C114.876 64.8996 113.545 65.5498 112.217 65.2651C110.755 64.9535 109.739 64.0455 109.605 62.5681C109.528 61.7294 109.809 60.7522 110.22 60.002C112.025 56.724 113.937 53.5115 115.803 50.2721C116.992 48.2061 116.719 47.0288 114.699 45.863C97.6733 36.0331 80.6399 26.2071 63.6065 16.3964C61.7442 15.323 60.5284 15.6731 59.4356 17.5698C42.1906 47.4212 24.9609 77.2803 7.73125 107.143C6.63852 109.036 6.96557 110.263 8.82013 111.337C25.8459 121.171 42.8716 130.997 59.9012 140.823C61.8327 141.935 63.0524 141.596 64.1913 139.661C65.0647 138.172 65.8958 136.66 66.7884 135.183C67.8658 133.394 69.7088 132.82 71.321 133.717C72.9793 134.636 73.4602 136.606 72.4252 138.468C71.471 140.188 70.4552 141.869 69.4741 143.574C68.0351 146.074 65.7265 147.309 63.0486 148.017H60.1667C58.6161 147.298 56.9962 146.694 55.5188 145.843C39.4857 136.621 23.4988 127.315 7.43498 118.147C4.24915 116.323 1.55196 114.272 0.540039 110.571C0.540039 109.517 0.540039 108.459 0.540039 107.405Z" fill="black"/>
<path d="M141.047 73.0367C137.061 73.9523 133.21 74.8487 129.351 75.7259C122.533 77.2764 115.653 78.5999 108.908 80.4197C103.264 81.9394 98.0347 84.5055 93.8985 88.8299C89.8046 93.112 88.458 98.0789 90.4087 103.788C90.501 104.054 90.6395 104.304 90.6857 104.415C93.9754 102.326 97.1497 100.099 100.516 98.2174C106.115 95.0934 112.175 93.1005 118.389 91.5846C120.524 91.0652 122.255 92.0309 122.686 93.8622C123.133 95.7705 122.121 97.3556 119.985 97.9058C113.037 99.6986 106.319 102.045 100.216 105.916C93.1059 110.425 87.573 116.246 85.4606 124.637C84.8489 127.065 84.7796 129.654 84.6719 132.178C84.5757 134.451 83.4945 136.017 81.5707 136.121C79.6815 136.225 78.1963 134.767 78.0924 132.509C77.7115 124.514 80.1509 117.385 84.9335 111.044C85.6723 110.067 85.7762 109.378 85.249 108.267C80.7281 98.7637 82.9982 89.2416 91.3629 82.201C96.8881 77.5534 103.391 74.8718 110.278 73.1713C117.392 71.4169 124.61 70.0896 131.767 68.4968C134.145 67.9659 136.526 67.3426 138.8 66.4808C140.085 65.9922 141.236 65.0304 142.302 64.1147C143.387 63.1875 144.51 62.7489 145.857 63.2106C147.211 63.6761 148.065 64.6918 148.015 66.1307C147.492 80.7236 144.641 94.6394 135.353 106.435C128.827 114.722 120.058 118.897 109.531 119.185C106.48 119.27 103.406 118.916 100.355 118.635C98.2001 118.439 96.9266 116.835 97.2036 114.961C97.4883 113.01 99.0389 111.922 101.197 112.218C105.892 112.86 110.574 113.003 115.222 111.925C121.174 110.548 126.119 107.466 129.97 102.738C137.019 94.0815 139.597 83.7553 141.051 73.0367H141.047Z" fill="black"/>
<path d="M117.812 21.9904C117.692 25.3222 115.853 28.0384 113.853 30.6122C112.933 31.7972 110.986 31.7241 109.766 30.8238C108.535 29.912 108.073 28.2731 108.774 26.8342C109.359 25.63 110.101 24.5027 110.74 23.3216C111.594 21.7403 111.286 20.4515 109.712 19.5358C102.791 15.5115 95.8533 11.5103 88.9007 7.53214C87.4117 6.67804 86.1573 7.07431 85.2301 8.57092C84.599 9.59046 84.0488 10.66 83.414 11.6757C82.3136 13.4378 80.459 13.961 78.8468 13.0107C77.2501 12.0681 76.7999 10.1791 77.7888 8.37086C78.4544 7.15126 79.1393 5.93935 79.8972 4.76976C82.4752 0.783937 87.4963 -0.674199 91.644 1.6342C99.0199 5.73544 106.315 9.98289 113.587 14.2611C116.411 15.9232 117.639 18.6317 117.808 21.9865L117.812 21.9904Z" fill="black"/>
<path d="M75.0028 62.2603C73.7908 64.3571 72.6904 66.2654 71.5823 68.1698C70.2933 70.3859 68.5273 71.0784 66.7497 70.0704C64.9759 69.0663 64.6489 67.1311 65.8916 64.9573C67.0075 63.0067 68.131 61.0638 69.3468 58.9478C67.1729 57.6897 65.0644 56.4932 62.979 55.2544C61.5015 54.3772 60.8666 53.0614 61.1745 51.6648C61.6708 49.4026 63.9717 48.383 66.1264 49.5488C68.2733 50.7107 70.3626 51.9726 72.6327 53.2768C73.8254 51.2185 74.9259 49.1564 76.1994 47.2096C76.7189 46.4171 77.5115 45.6322 78.3656 45.2667C79.5853 44.7435 80.8474 45.1205 81.74 46.1901C82.6981 47.3366 82.8327 48.6293 82.1017 49.9412C80.8897 52.115 79.6315 54.2656 78.3233 56.5548C80.4203 57.7744 82.5134 58.9132 84.5141 60.1982C85.2413 60.6637 85.9647 61.3755 86.3071 62.1449C86.8766 63.4261 86.538 64.7111 85.4491 65.6691C84.3179 66.6655 83.0213 66.7886 81.7092 66.0692C79.9008 65.0766 78.1309 64.0186 76.3418 62.9913C75.9301 62.7566 75.5107 62.5335 75.0105 62.2565L75.0028 62.2603Z" fill="black"/>
<path d="M31.5823 103.508C31.5515 100.957 34.1333 99.4255 36.4842 100.695C39.0544 102.088 41.563 103.6 44.0948 105.062C47.8308 107.22 51.5784 109.363 55.2952 111.556C56.6534 112.356 57.2537 113.764 56.9189 115.096C56.5726 116.477 55.7031 117.458 54.2717 117.581C53.4714 117.65 52.5211 117.45 51.8208 117.05C45.6915 113.572 39.6046 110.017 33.5023 106.493C32.3441 105.824 31.59 104.908 31.5862 103.508H31.5823Z" fill="black"/>
</g>
<defs>
<clipPath id="clip0_67_32">
<rect width="147.476" height="147.476" fill="white" transform="translate(0.540039 0.53772)"/>
</clipPath>
</defs>
</svg>
