<svg width="34" height="34" viewBox="0 0 34 34" fill="none" xmlns="http://www.w3.org/2000/svg">
<path d="M5.97039 23.4246L13.9316 18.6479M20.3005 15.4634L28.2617 10.6867M17.116 5.90996V13.8711M17.116 20.2401V28.2013M5.97039 10.6867L13.9316 15.4634M20.3005 18.6479L28.2617 23.4246M30.65 12.2789V21.0362M19.5044 30.5896L28.2617 25.8129M5.17427 25.8129L14.7277 30.5896M3.58203 21.8323V12.2789M5.17427 8.29832L14.7277 3.52161M29.0578 8.29832L19.5044 3.52161" stroke="black" stroke-width="1.5" stroke-linecap="round" stroke-linejoin="round"/>
<path d="M17.1154 5.91001C18.4345 5.91001 19.5038 4.84071 19.5038 3.52166C19.5038 2.2026 18.4345 1.1333 17.1154 1.1333C15.7964 1.1333 14.7271 2.2026 14.7271 3.52166C14.7271 4.84071 15.7964 5.91001 17.1154 5.91001Z" stroke="black" stroke-width="1.5" stroke-linecap="round" stroke-linejoin="round"/>
<path d="M17.1154 32.9781C18.4345 32.9781 19.5038 31.9088 19.5038 30.5898C19.5038 29.2707 18.4345 28.2014 17.1154 28.2014C15.7964 28.2014 14.7271 29.2707 14.7271 30.5898C14.7271 31.9088 15.7964 32.9781 17.1154 32.9781Z" stroke="black" stroke-width="1.5" stroke-linecap="round" stroke-linejoin="round"/>
<path d="M3.58171 12.2789C4.90077 12.2789 5.97007 11.2096 5.97007 9.89055C5.97007 8.5715 4.90077 7.5022 3.58171 7.5022C2.26266 7.5022 1.19336 8.5715 1.19336 9.89055C1.19336 11.2096 2.26266 12.2789 3.58171 12.2789Z" stroke="black" stroke-width="1.5" stroke-linecap="round" stroke-linejoin="round"/>
<path d="M30.6496 12.2789C31.9686 12.2789 33.0379 11.2096 33.0379 9.89055C33.0379 8.5715 31.9686 7.5022 30.6496 7.5022C29.3305 7.5022 28.2612 8.5715 28.2612 9.89055C28.2612 11.2096 29.3305 12.2789 30.6496 12.2789Z" stroke="black" stroke-width="1.5" stroke-linecap="round" stroke-linejoin="round"/>
<path d="M30.6496 26.609C31.9686 26.609 33.0379 25.5397 33.0379 24.2206C33.0379 22.9016 31.9686 21.8323 30.6496 21.8323C29.3305 21.8323 28.2612 22.9016 28.2612 24.2206C28.2612 25.5397 29.3305 26.609 30.6496 26.609Z" stroke="black" stroke-width="1.5" stroke-linecap="round" stroke-linejoin="round"/>
<path d="M3.58171 26.609C4.90077 26.609 5.97007 25.5397 5.97007 24.2206C5.97007 22.9016 4.90077 21.8323 3.58171 21.8323C2.26266 21.8323 1.19336 22.9016 1.19336 24.2206C1.19336 25.5397 2.26266 26.609 3.58171 26.609Z" stroke="black" stroke-width="1.5" stroke-linecap="round" stroke-linejoin="round"/>
<path d="M17.1161 13.4731L20.3006 15.2644V18.8469L17.1161 20.6382L13.9316 18.8469V15.2644L17.1161 13.4731Z" stroke="black" stroke-width="1.5" stroke-linecap="round" stroke-linejoin="round"/>
</svg>
