<svg width="1920" height="911" viewBox="0 0 1920 911" fill="none" xmlns="http://www.w3.org/2000/svg">
<g clip-path="url(#clip0_223_6)">
<path d="M108.902 458.861C108.902 458.861 117.519 459.843 121.197 459.737C165.335 458.468 209.473 457.199 253.576 454.702C256.028 454.632 258.48 454.561 260.932 454.491C314.878 452.94 368.825 451.389 422.771 449.838C425.223 449.768 427.675 449.698 430.127 449.627C436.258 449.451 443.614 449.239 447.504 456.5C450.132 462.569 445.369 467.621 441.832 472.638C411.049 511.617 377.779 549.439 347.031 589.646C342.303 595.926 336.208 597.33 330.078 597.506C287.166 598.74 243.099 602.464 200.222 604.926C143.824 606.547 87.4961 610.624 31.0977 612.245C16.3851 612.668 5.49175 617.897 -2.70235 631.65C-83.6291 761.776 -164.556 891.901 -239.211 1026.76C-264.878 1072.97 -290.51 1120.4 -308.715 1170.08C-313.337 1180.04 -316.697 1191.2 -317.606 1202.28C-319.599 1218.31 -313.327 1223.05 -298.756 1217.72C-287.827 1213.71 -278.196 1207.29 -269.79 1200.91C-244.537 1182.98 -223.068 1161.47 -200.408 1138.7C-113.377 1050.18 -35.1756 953.311 41.7647 855.249C84.3495 799.956 133.206 749.398 193.555 714.484C233.38 691.22 275.903 676.481 322.458 673.913C351.883 673.068 381.45 677.133 408.811 689.864C463.534 715.325 479.87 771.382 473.89 819.479C466.861 873.75 443.646 919.884 409.255 961.425C338.092 1047.03 244.922 1092.72 133.457 1099.61C133.457 1099.61 132.231 1099.65 131.005 1099.68C95.4493 1100.7 91.9123 1105.72 90.5191 1142.63C89.3024 1185.67 113.374 1212.01 156.462 1216.92C197.099 1221.89 233.598 1211.01 268.659 1192.8C312.197 1170.66 350.619 1141.29 385.292 1109.57C434.325 1065.16 479.608 1018.39 519.812 965.619C526.921 956.813 532.804 948.042 538.652 938.043C572.584 880.541 611.597 829.037 660.594 783.39C706.019 741.533 756.56 706.901 816.178 689.212C849.034 679.666 881.997 673.803 917.729 678.92C959.626 685.089 981.034 704.135 990.781 744.406C990.887 748.09 990.957 750.545 992.219 751.738C1003.01 742.826 1013.83 735.142 1023.35 725.037C1038.87 709.845 1055.86 703.213 1076.7 702.613C1102.45 701.873 1128.2 701.133 1152.96 709.023C1157.9 710.11 1161.62 711.232 1166.59 713.546C1186.42 720.349 1187.79 725.226 1174.76 741.575C1110.85 823.287 1056.95 912.084 1013.01 1005.51C992.143 1047.89 974.988 1091.39 965.259 1137.14C962.005 1151.98 962.428 1166.71 962.887 1182.68C963.558 1206 986.262 1227.47 1015.23 1210.66C1041.78 1195.15 1063.25 1173.65 1082.23 1150.98C1161.8 1058.99 1231.31 958.683 1294.55 853.642C1367.14 732.358 1441.03 613.494 1517.37 494.56C1564.33 420.708 1613.74 346.786 1660.67 271.707C1671.24 255.428 1682 245.288 1702.87 245.916C1724.94 245.282 1747.01 244.648 1770.31 243.978C1788.7 243.449 1807.09 242.92 1825.48 242.392C1831.61 242.216 1837.74 242.039 1842.64 241.898C1853.75 244.037 1856.38 250.105 1851.79 261.297C1850.67 265.016 1848.29 267.542 1845.94 271.296C1760.29 407.702 1674.63 544.108 1591.5 682.899C1506.02 825.444 1420.51 966.761 1346.24 1115.13C1332.34 1143.79 1318.44 1172.45 1310.71 1202.17C1308.5 1210.83 1303.88 1220.8 1311.45 1227.95C1320.28 1236.3 1331.21 1232.3 1340.94 1229.56C1354.32 1225.49 1367.6 1217.74 1379.65 1210.02C1413.38 1188.16 1444.58 1163.91 1475.72 1137.21C1563.07 1059.74 1644.11 976.308 1722.63 890.49C1754.75 855.159 1785.63 819.863 1817.79 785.76C1837.99 763.06 1851.93 735.625 1868.39 710.575C1884.85 685.525 1901.27 659.248 1916.5 634.233C1913.84 626.936 1907.78 629.568 1904.1 629.674C1862.49 633.328 1821.96 632.036 1780.3 634.462C1772.95 634.673 1764.37 634.92 1757.01 635.131C1737.29 632.012 1728.18 613.841 1737.49 596.37C1751.43 568.935 1767.85 542.657 1783.05 516.414C1790.09 505.152 1801.05 502.379 1813.31 502.027C1869.71 500.406 1924.85 497.592 1981.35 499.654C1999.74 499.125 2010.63 493.897 2021.21 477.618C2072.9 397.486 2127.07 318.512 2178.79 239.608C2187.02 227.083 2197.88 220.627 2213.85 221.396C2256.84 222.618 2299.78 222.612 2341.58 225.098C2358.81 227.06 2362.67 233.093 2353.28 248.109C2336.89 275.615 2320.5 303.12 2302.89 330.661C2273.58 378.2 2243.04 425.773 2213.73 473.312C2210.2 478.329 2206.66 483.346 2206.84 489.485C2210.69 495.519 2217.98 492.851 2222.88 492.71C2260.89 491.618 2298.9 490.525 2336.9 489.433C2343.04 489.256 2349.17 489.08 2354.07 488.939C2371.3 490.901 2377.79 503.003 2369.66 519.212C2362.7 532.929 2353.28 546.717 2345.08 560.47C2336.89 574.223 2328.66 586.748 2320.46 600.501C2314.65 611.728 2304.95 615.693 2292.69 616.045C2257.13 617.068 2221.58 618.09 2186.02 619.112C2167.63 619.64 2149.28 621.397 2130.85 620.698C2119.82 621.015 2113.86 627.33 2109.17 634.838C2088.09 669.852 2065.78 704.901 2044.74 741.142C1976.8 853.691 1908.83 965.011 1849.62 1082.22C1830.99 1117.17 1813.59 1152.08 1801.2 1190.53C1797.8 1200.45 1794.37 1209.15 1794.65 1218.98C1795.04 1232.48 1800.05 1236.03 1812.21 1231.99C1827.97 1225.39 1842.43 1216.37 1856.86 1206.13C1888.07 1181.88 1918.02 1156.45 1946.67 1128.59C2045.82 1034.8 2139.89 935.021 2232.69 834.046C2249.36 816.363 2258.57 795.208 2270.23 773.982C2354.34 626.561 2439.68 479.105 2523.79 331.684C2556.5 274.217 2590.43 216.715 2615.64 154.548C2621.38 140.866 2631.01 134.445 2645.69 132.794C2687.3 129.14 2727.76 127.977 2769.66 134.145C2773.34 134.04 2777.05 135.162 2780.77 136.284C2798.11 141.93 2803.29 151.611 2800.11 168.906C2797.91 177.572 2793.25 186.308 2789.78 193.78C2736.38 299.767 2676.75 402.246 2617.12 504.725C2544.63 629.693 2472.14 754.661 2399.62 878.401C2398.47 880.892 2396.12 884.646 2392.62 890.891C2402.29 885.697 2405.79 879.452 2410.55 874.4C2456.85 820.229 2506.93 769.636 2567.18 731.039C2596.07 711.775 2627.56 697.353 2662.9 688.964C2679.96 684.787 2698.32 683.03 2715.55 684.993C2749.99 687.689 2776.23 704.139 2791.86 735.639C2804.93 763.527 2807.01 792.959 2798.05 822.709C2787.89 853.722 2774.03 883.613 2757.67 912.346C2729.66 962.305 2701.65 1012.26 2673.63 1062.22C2659.63 1087.2 2645.62 1112.18 2636.55 1138.25C2633.12 1146.95 2627.31 1158.18 2636.14 1166.52C2644.97 1174.87 2655.86 1169.64 2665.57 1165.68C2697.05 1151.25 2723.43 1129.61 2749.77 1106.73C2821.6 1044.45 2888.32 974.948 2951.32 904.322C2967.96 885.411 2984.59 866.5 3002.49 848.782C3034.67 815.906 3055.61 775.982 3079.04 737.214C3084.89 727.215 3090.74 717.216 3096.55 705.99C3103.59 694.728 3114.44 688.272 3127.93 687.884C3153.68 687.144 3179.43 686.404 3204.12 691.838C3209.03 691.697 3212.78 694.047 3217.72 695.134C3246.2 704.145 3255.27 721.088 3248.73 749.54C3242.18 777.991 3228.25 805.426 3214.28 831.634C3174.74 907.729 3127.71 979.125 3085.69 1054.06C3070.53 1081.53 3056.6 1108.97 3042.66 1136.4C3035.69 1150.12 3029.95 1163.8 3029.18 1179.8C3028.42 1195.8 3033.5 1201.8 3049.44 1201.34C3064.15 1200.92 3076.27 1195.65 3088.32 1187.93C3118.51 1171.09 3144.81 1146.98 3168.63 1121.72C3210.34 1078.74 3247 1030.99 3282.44 983.279C3319.04 933.073 3353.15 881.71 3384.73 827.962C3409.28 785.476 3436.32 744.147 3469.59 706.325C3479.08 694.993 3489.86 686.081 3500.65 677.169C3530.67 654.187 3562.54 653.271 3596.07 667.053C3618.42 676.241 3636.08 692.937 3650.13 712.195C3659.03 722.998 3657.98 729.173 3648.53 741.733C3624.92 774.361 3602.62 809.41 3580.28 843.231C3529.82 923.328 3481.88 1005.81 3437.62 1088.18C3387.51 1180.56 3339.89 1274.09 3295.94 1367.52C3285.54 1389.94 3285.58 1391.16 3311.33 1390.42C3386.05 1385.82 3459.54 1381.25 3534.29 1377.87C3585.75 1375.16 3637.21 1372.45 3687.44 1369.78C3745.03 1366.9 3802.59 1362.78 3860.18 1359.9C3912.86 1357.16 3966.77 1354.38 4019.46 1351.63C4039.07 1351.07 4058.69 1350.51 4078.27 1348.71C4083.18 1348.57 4089.31 1348.4 4094.21 1348.26C4110.22 1350.25 4116.67 1361.13 4110.96 1376.04C4109.84 1379.76 4107.49 1383.51 4105.11 1386.04C4085.22 1419.79 4064.07 1452.35 4044.18 1486.1C4036.02 1501.08 4025.13 1506.3 4007.97 1506.8C3927.05 1509.12 3844.9 1511.49 3763.98 1513.81C3686.74 1516.03 3609.5 1518.25 3531.03 1520.51C3452.56 1522.76 3372.87 1525.06 3294.4 1527.31C3276.01 1527.84 3257.66 1529.6 3239.23 1528.9C3225.74 1529.29 3219.75 1534.37 3213.98 1546.83C3187.54 1609.03 3162.33 1671.2 3138.35 1733.33C3106.46 1819.03 3077.05 1905.9 3053.81 1993.81C3047.23 2021.04 3031.61 2032.55 3003.31 2029.67C2963.93 2025.89 2929.14 2010.92 2900.1 1982.26C2884.92 1966.72 2879.53 1949.67 2883.83 1928.66C2890.2 1894.07 2896.57 1859.48 2901.74 1826.15C2911.05 1765.67 2916.71 1706.52 2916.17 1645.09C2915.36 1616.85 2913.32 1588.65 2907.61 1560.55C2904.59 1540.98 2902.07 1538.59 2881.22 1539.19C2806.43 1541.34 2732.87 1543.45 2658.08 1545.6C2644.6 1545.99 2629.88 1546.41 2616.4 1546.8C2600.46 1547.26 2590.47 1541.4 2580.35 1530.64C2557.47 1503.03 2544.32 1472.69 2538.43 1438.45C2536.96 1429.89 2535.48 1421.33 2535.24 1412.73C2533.45 1393.12 2541.64 1379.37 2559.82 1371.48C2582.83 1360.98 2607.21 1355.37 2631.66 1352.21C2706.2 1341.46 2778.86 1350.43 2847.24 1381.65C2860.91 1387.4 2874.61 1394.38 2887.15 1403.85C2893.42 1408.58 2900.85 1410.83 2909.43 1410.58C2971.92 1407.55 3035.64 1404.49 3098.17 1402.7C3109.21 1402.38 3116.53 1400.94 3121.11 1389.75C3147.51 1326.32 3173.91 1262.89 3199.08 1199.49C3199.01 1197.04 3201.39 1194.51 3198.87 1192.13C3192.81 1194.76 3190.5 1199.74 3186.93 1203.53C3154.81 1238.86 3120.21 1273.03 3081.75 1301.17C3076.96 1305 3072.12 1307.59 3067.32 1311.42C3008.45 1354.89 2946.93 1349.29 2885.87 1316.64C2842.25 1293.31 2823.82 1249.6 2834.7 1201.37C2840.09 1175.41 2851.71 1152.95 2860.85 1129.34C2863.16 1124.36 2866.73 1120.57 2865.3 1113.24C2851.01 1128.4 2837.91 1142.29 2824.85 1157.41C2785.62 1201.55 2741.32 1239.69 2693.23 1274.25C2659.57 1298.56 2624.51 1316.78 2584.37 1328.99C2560.02 1335.83 2534.34 1339.03 2508.49 1336.09C2459.2 1328.9 2429 1302.74 2432 1236.29C2434.51 1195.67 2446.9 1157.22 2460.56 1119.96C2485.66 1054.11 2518.19 990.503 2550.72 926.897C2567 895.708 2583.25 863.291 2595.82 830.98C2598.09 824.771 2604.01 817.227 2597.67 810.037C2590.1 802.881 2582.96 810.46 2575.67 813.127C2558.68 819.759 2545.55 832.425 2532.42 845.091C2495.36 879.335 2465.84 919.507 2436.35 960.906C2364.42 1062.51 2302.44 1168.74 2242.98 1277.36C2234.83 1292.34 2226.63 1306.1 2219.7 1321.04C2215.08 1331 2207.83 1334.9 2196.72 1332.76C2174.55 1329.71 2153.56 1325.4 2133.66 1316.14C2073.97 1288.36 2056.12 1222.52 2069.46 1174.21C2078.35 1142.01 2092.18 1110.89 2106.04 1081C2108.32 1074.79 2111.86 1069.77 2111.61 1061.18C2103.31 1071.25 2093.78 1081.35 2085.48 1091.42C2022.51 1163.27 1957.06 1233.97 1880.21 1292.71C1853.81 1313.13 1824.87 1331.16 1793.31 1343.13C1733.84 1365.73 1675.61 1346.51 1643.37 1292.14C1616.25 1245 1605.03 1196.17 1626.81 1142.7C1631.43 1132.74 1634.79 1121.58 1639.34 1109.16C1629.57 1110.67 1626.07 1116.91 1621.3 1121.97C1581.94 1161.19 1542.61 1201.65 1500.72 1238.49C1465.98 1267.75 1429.97 1295.82 1391.37 1319.05C1373.26 1329.4 1353.89 1338.56 1334.49 1346.49C1252.03 1380.81 1147.46 1328.52 1127.51 1232.01C1127.33 1225.87 1127.12 1218.51 1120.81 1212.54C1106.49 1226.47 1090.94 1240.44 1076.61 1254.37C1051.53 1278.43 1023.94 1300.12 992.482 1315.77C962.254 1331.38 930.623 1340.89 896.082 1334.51C852.888 1325.93 823.983 1302.18 811.713 1259.52C807.682 1247.35 806.068 1233.88 803.227 1220.44C797.062 1219.39 795.977 1224.34 793.63 1228.09C765.088 1259.63 733.987 1287.56 696.544 1308.3C651.886 1334.16 604.388 1346.59 552.54 1335.79C506.859 1326.04 477.883 1299.84 465.543 1254.73C457.339 1225.47 456.457 1194.78 459.288 1165.2C459.111 1159.06 462.648 1154.05 458.723 1145.56C450.423 1155.63 442.088 1164.47 433.752 1173.31C385.037 1228.78 329.945 1275.83 264.691 1310.88C212.748 1339.41 157.963 1354.5 97.781 1352.55C68.3204 1352.17 39.9447 1346.84 12.6186 1335.33C-30.8227 1318.15 -58.7135 1287 -71.054 1241.89C-80.6247 1207.76 -81.613 1173.38 -77.7324 1137.63C-77.8382 1133.95 -74.266 1130.16 -78.0853 1125.35C-99.4483 1150.54 -119.621 1174.47 -141.019 1198.43C-181.434 1243.83 -223.11 1288.04 -271.129 1325.06C-286.75 1336.57 -302.406 1346.85 -319.324 1355.94C-367.625 1383.13 -435.728 1361.74 -463.831 1323.23C-495.788 1278.68 -511.913 1229.99 -493.884 1174.17C-482.612 1139.44 -467.591 1107.06 -452.57 1074.68C-392.274 952.517 -321.959 837.442 -250.452 721.104C-234.064 693.599 -216.45 666.058 -198.835 638.517C-196.489 634.763 -192.917 630.974 -193.058 626.062C-213.901 626.662 -233.624 623.542 -254.396 626.597C-288.655 630.039 -323.02 629.798 -357.349 630.785C-410.069 632.301 -463.945 636.307 -516.736 635.367C-538.805 636.002 -557.407 629.163 -571.353 613.589C-606.776 576.514 -628.925 531.683 -640.146 482.852C-644.283 466.996 -640.993 453.385 -631.573 439.596C-605.764 398.303 -577.398 360.622 -549.067 321.714C-475.84 222.53 -400.126 124.504 -330.683 21.7428C-320.072 6.6917 -309.461 -8.35944 -302.635 -26.9883C-311.288 -29.1972 -317.347 -26.5653 -324.633 -23.8982C-391.536 -3.54231 -455.811 22.8823 -520.051 50.5346C-675.256 115.21 -827.832 185.953 -977.78 262.765C-1016.48 282.311 -1053.89 304.276 -1092.56 325.049C-1098.59 328.909 -1104.61 332.769 -1110.63 336.628C-1116.66 340.488 -1117.74 345.435 -1113.89 351.468C-1108.74 359.922 -1102.36 368.34 -1097.24 375.566C-1033.36 463.435 -967.104 548.778 -900.808 635.349C-805.183 760.399 -707.177 882.924 -618.732 1014.32C-603.349 1037.23 -589.191 1060.17 -576.26 1083.15C-562.068 1107.32 -557.684 1131.77 -564.263 1158.99C-579.699 1219.65 -611.425 1268.48 -659.373 1307.96C-671.351 1318.13 -687.184 1322.27 -703.123 1322.73C-784.078 1323.83 -865.068 1323.7 -945.987 1326.03C-1041.62 1328.78 -1136.03 1331.49 -1231.73 1331.78C-1321.23 1334.36 -1411.99 1335.74 -1501.49 1338.31C-1560.35 1340 -1619.27 1339.24 -1679.31 1342.19C-1695.25 1342.65 -1699.03 1339.07 -1694.51 1325.43C-1677.61 1273.33 -1661.96 1220.04 -1640.11 1169.03C-1633.25 1151.63 -1623.62 1145.21 -1603.97 1145.87C-1545.04 1146.63 -1487.49 1142.52 -1428.64 1140.83C-1371.02 1139.17 -1314.55 1140.01 -1256.92 1138.35C-1195.62 1136.59 -1134.25 1137.28 -1072.94 1135.52C-985.894 1133.02 -897.618 1130.48 -810.533 1129.21C-801.95 1128.96 -793.368 1128.71 -784.821 1127.24C-775.048 1125.73 -773.892 1123.24 -780.27 1114.82C-794.321 1095.56 -809.563 1077.57 -823.614 1058.31C-970.152 869.593 -1117.88 682.141 -1258.39 489.566C-1269.89 473.921 -1280.19 457.014 -1292.91 441.404C-1312.01 417.377 -1318.88 391.769 -1316.05 362.195C-1313.5 322.799 -1304.78 284.454 -1288.68 247.126C-1279.5 224.743 -1262.8 208.288 -1241.05 196.603C-1151.63 148.565 -1060.91 102.948 -970.118 59.7864C-798.242 -22.5716 -626.26 -101.246 -446.534 -166.626C-393.117 -186.594 -339.63 -204.107 -284.74 -215.515C-282.288 -215.586 -279.836 -215.656 -277.419 -216.955C-253.004 -221.343 -231.984 -215.803 -213.064 -197.914C-173.962 -160.944 -139.659 -120.15 -119.786 -69.11C-102.612 -26.5943 -106.422 11.6093 -133.527 50.4826C-230.215 187.206 -326.94 322.701 -423.629 459.424C-424.784 461.915 -427.201 463.214 -428.356 465.704C-434.239 474.475 -432.907 478.124 -421.873 477.806C-396.126 477.066 -370.379 476.326 -344.632 475.586C-338.502 475.41 -332.371 475.233 -327.467 475.092C-273.521 473.542 -219.574 471.991 -165.628 470.44C-146.011 469.876 -126.43 468.084 -106.778 468.748C-92.065 468.325 -82.3624 464.36 -74.133 451.835C-28.2936 381.702 18.7718 311.534 65.8373 241.366C72.8759 230.104 81.1759 220.035 88.2146 208.773C94.0978 200.002 102.539 194.844 114.764 193.263C146.571 189.891 179.674 188.94 211.622 190.479C220.205 190.232 230.083 192.406 238.736 194.615C256.042 199.033 260.003 208.75 253.07 223.695C246.137 238.64 237.979 253.621 229.785 267.374C195.853 324.876 159.469 382.448 124.276 438.758C120.774 445.003 116.011 450.055 113.841 459.948M640.955 1167.35C640.955 1167.35 641.273 1178.4 641.414 1183.31C645.834 1208.99 665.768 1219.48 690.007 1208.95C703.352 1203.65 714.14 1194.74 723.666 1184.64C776.13 1131.52 813.563 1067.77 846.022 1001.71C861.113 971.783 872.491 940.735 888.809 910.773C900.47 889.548 908.416 867.2 915.137 844.888C918.498 833.732 920.597 821.383 921.505 810.297C920.976 791.88 913.408 784.725 895.088 787.709C884.053 788.026 873.195 794.482 863.528 799.676C841.812 812.588 821.428 829.149 804.793 848.06C740.563 918.722 691.363 1000.01 658.348 1089.44C649.246 1114.27 642.596 1139.04 640.955 1167.35ZM138.166 1007.31C216.139 987.866 275.086 946.849 312.273 874.507C315.739 867.034 317.944 858.369 318.923 849.739C318.429 832.55 309.599 824.202 292.576 829.606C277.969 833.713 267.182 842.625 256.43 852.765C230.127 876.869 206.312 902.13 185.055 931.005C167.335 954.862 150.841 978.684 139.392 1007.28M3002.78 1712.65C3002.78 1712.65 3006.32 1707.63 3007.44 1703.91C3018.71 1669.18 3028.76 1634.48 3041.29 1600.95C3046.93 1583.58 3053.82 1567.41 3059.49 1551.27C3064.05 1538.85 3061.52 1536.46 3049.3 1538.04C3033.39 1539.73 3016.19 1539 3000.26 1539.45C2985.54 1539.88 2985.58 1541.1 2988.42 1554.54C3003.39 1605.72 3007.36 1658.45 3002.78 1712.65ZM2784.44 1416.63C2753.47 1406.46 2722.65 1401.2 2690.84 1404.57C2683.48 1404.79 2671.22 1405.14 2671.47 1413.73C2671.72 1422.33 2683.94 1420.75 2691.3 1420.54C2721.91 1418.43 2752.6 1418.77 2783.22 1416.67" fill="black" fill-opacity="0.05"/>
</g>
<defs>
<clipPath id="clip0_223_6">
<rect width="1920" height="911" fill="white"/>
</clipPath>
</defs>
</svg>
