<svg width="68" height="67" viewBox="0 0 68 67" fill="none" xmlns="http://www.w3.org/2000/svg">
<path d="M39.2778 33.248L30.5673 28.2706V38.2255L39.2778 33.248Z" fill="black"/>
<path fill-rule="evenodd" clip-rule="evenodd" d="M0.702637 33.248C0.702637 14.9216 15.5591 0.0650635 33.8856 0.0650635C52.212 0.0650635 67.0685 14.9216 67.0685 33.248C67.0685 51.5744 52.212 66.431 33.8856 66.431C15.5591 66.431 0.702637 51.5744 0.702637 33.248ZM46.744 22.2562C48.1958 22.6709 49.2327 23.7079 49.6475 25.1597C50.4771 27.8558 50.4771 33.248 50.4771 33.248C50.4771 33.248 50.4771 38.6402 49.8549 41.3364C49.4401 42.7881 48.4031 43.8251 46.9513 44.2399C44.2552 44.862 33.8856 44.862 33.8856 44.862C33.8856 44.862 23.3085 44.862 20.8198 44.2399C19.368 43.8251 18.3311 42.7881 17.9163 41.3364C17.2941 38.6402 17.2941 33.248 17.2941 33.248C17.2941 33.248 17.2941 27.8558 17.7089 25.1597C18.1237 23.7079 19.1607 22.6709 20.6124 22.2562C23.3085 21.634 33.6782 21.634 33.6782 21.634C33.6782 21.634 44.2553 21.634 46.744 22.2562Z" fill="black"/>
</svg>
