<svg width="51" height="51" viewBox="0 0 51 51" fill="none" xmlns="http://www.w3.org/2000/svg">
<path d="M35.5726 16.2089L35.5566 16.2043L35.5404 16.2003C34.9712 16.058 34.0341 15.9668 33.0338 15.9015C32.0046 15.8344 30.8183 15.7901 29.6992 15.7606C28.5786 15.7311 27.5179 15.7164 26.7379 15.709C26.3478 15.7053 26.0274 15.7035 25.8043 15.7026C25.6927 15.7021 25.6055 15.7019 25.546 15.7018L25.478 15.7017L25.4603 15.7017L25.4558 15.7017H25.4546H25.4542C25.4542 15.7017 25.4541 15.7017 25.4541 16.7017C25.4541 15.7017 25.454 15.7017 25.4539 15.7017H25.4536H25.4524L25.4479 15.7017L25.4307 15.7017L25.3639 15.7018C25.3055 15.7019 25.2198 15.7021 25.1102 15.7026C24.8911 15.7035 24.5762 15.7054 24.1921 15.709C23.4242 15.7164 22.3782 15.7311 21.2674 15.7606C20.1579 15.7901 18.9768 15.8344 17.9408 15.9015C16.9279 15.9671 15.9827 16.0582 15.3855 16.196L15.3604 16.2018L15.3356 16.2089C13.9097 16.6163 12.8687 17.6572 12.4613 19.0832L12.444 19.1437L12.4345 19.2059C12.2679 20.2886 12.1889 21.8675 12.1499 23.1358C12.1301 23.7784 12.1202 24.3562 12.1153 24.7733C12.1128 24.982 12.1116 25.1508 12.111 25.2678L12.1104 25.403L12.1104 25.4387L12.1104 25.4481L12.1104 25.4506V25.4513V25.4515C12.1104 25.4516 12.1104 25.4517 13.1104 25.4517C12.1104 25.4517 12.1104 25.4517 12.1104 25.4518V25.4521V25.4529L12.1104 25.4555L12.1104 25.4652L12.1105 25.5016C12.1106 25.5331 12.1108 25.5792 12.1113 25.6381C12.1122 25.7561 12.1141 25.926 12.1178 26.1359C12.1253 26.5554 12.1402 27.1364 12.17 27.7829C12.2286 29.0514 12.3478 30.6569 12.6047 31.7703L12.6105 31.7954L12.6176 31.8201C13.025 33.2461 14.0659 34.287 15.4919 34.6944L15.5079 34.699L15.5241 34.7031C16.0933 34.8454 17.0304 34.9366 18.0306 35.0018C19.0598 35.0689 20.2462 35.1133 21.3653 35.1427C22.4859 35.1722 23.5465 35.1869 24.3265 35.1943C24.7167 35.198 25.0371 35.1998 25.2601 35.2007C25.3717 35.2012 25.4589 35.2014 25.5185 35.2015L25.5865 35.2016L25.6041 35.2017H25.6087H25.6099H25.6102C25.6103 35.2017 25.6104 35.2017 25.6104 34.2017C25.6104 35.2017 25.6104 35.2017 25.6105 35.2017H25.6108H25.612H25.6165L25.6338 35.2016L25.7006 35.2015C25.759 35.2014 25.8446 35.2012 25.9542 35.2007C26.1734 35.1998 26.4883 35.198 26.8724 35.1943C27.6402 35.1869 28.6862 35.1722 29.797 35.1427C30.9065 35.1133 32.0876 35.0689 33.1237 35.0018C34.1366 34.9362 35.0818 34.8451 35.6789 34.7073L35.704 34.7015L35.7288 34.6944C37.1547 34.287 38.1957 33.2461 38.6031 31.8201L38.6102 31.7954L38.616 31.7703C38.873 30.6568 38.9922 29.0514 39.0507 27.7829C39.0805 27.1364 39.0954 26.5553 39.1029 26.1359C39.1066 25.926 39.1085 25.7561 39.1094 25.6381C39.1099 25.5792 39.1101 25.5331 39.1102 25.5016L39.1103 25.4652L39.1103 25.4555L39.1104 25.4529V25.4521V25.4518C39.1104 25.4517 39.1104 25.4517 38.1104 25.4517C39.1104 25.4517 39.1104 25.4516 39.1104 25.4515V25.4512V25.4503L39.1103 25.4475L39.1103 25.4375L39.1102 25.4005C39.11 25.3685 39.1097 25.322 39.1091 25.2625C39.1078 25.1436 39.1053 24.9726 39.1003 24.7615C39.0903 24.3398 39.0704 23.7555 39.0303 23.1051C38.9524 21.839 38.7931 20.2139 38.444 19.0733C38.0347 17.6524 36.9953 16.6154 35.5726 16.2089ZM24.1103 27.4785V23.4248L27.6573 25.4517L24.1103 27.4785ZM1.61035 25.4517C1.61035 12.1968 12.3555 1.45166 25.6104 1.45166C38.8652 1.45166 49.6104 12.1968 49.6104 25.4517C49.6104 38.7065 38.8652 49.4517 25.6104 49.4517C12.3555 49.4517 1.61035 38.7065 1.61035 25.4517Z" stroke="#080807" stroke-width="2"/>
</svg>
